<?xml version="1.0" standalone="no"?><!DOCTYPE svg PUBLIC "-//W3C//DTD SVG 1.1//EN" "http://www.w3.org/Graphics/SVG/1.1/DTD/svg11.dtd"><svg t="1622732531147" class="icon" viewBox="0 0 1024 1024" version="1.1" xmlns="http://www.w3.org/2000/svg" p-id="91086" width="64" height="64" xmlns:xlink="http://www.w3.org/1999/xlink"><defs><style type="text/css"></style></defs><path d="M500.363636 139.636364c196.747636 0 360.727273 81.966545 360.727273 197.818181 0 34.490182-14.568727 66.001455-40.168727 93.230546 25.832727 27.415273 40.168727 58.973091 40.168727 92.951273 0 34.490182-14.568727 66.001455-40.168727 93.230545 25.832727 27.415273 40.168727 58.973091 40.168727 92.951273 0 115.851636-163.979636 197.818182-360.727273 197.818182S139.636364 825.669818 139.636364 709.818182c0-33.978182 14.336-65.536 40.122181-92.997818-25.6-27.182545-40.122182-58.647273-40.122181-93.184 0-34.071273 14.336-65.629091 40.168727-93.044364C154.205091 403.409455 139.636364 371.944727 139.636364 337.454545 139.636364 221.602909 303.616 139.636364 500.363636 139.636364z m265.076364 520.238545l-6.609455 3.723636c-65.908364 36.445091-157.928727 57.856-258.466909 57.856-103.936 0-198.749091-22.900364-265.029818-61.53309-17.408 16.616727-25.879273 33.698909-25.879273 49.896727 0 64.093091 127.767273 128 290.909091 128S791.272727 773.911273 791.272727 709.818182c0-16.244364-8.517818-33.326545-25.832727-49.943273z m-530.152727-186.181818c-17.268364 16.663273-25.832727 33.745455-25.832728 49.943273 0 64.093091 127.767273 128 290.909091 128S791.272727 587.729455 791.272727 523.636364c0-16.244364-8.517818-33.326545-25.832727-49.896728-66.327273 38.632727-161.140364 61.533091-265.076364 61.533091-103.982545 0-198.749091-22.900364-265.076363-61.579636zM500.363636 209.454545C337.221818 209.454545 209.454545 273.361455 209.454545 337.454545S337.221818 465.454545 500.363636 465.454545 791.272727 401.547636 791.272727 337.454545 663.505455 209.454545 500.363636 209.454545z" fill="#51c4d3" p-id="91087"></path></svg>