<?xml version="1.0" standalone="no"?><!DOCTYPE svg PUBLIC "-//W3C//DTD SVG 1.1//EN" "http://www.w3.org/Graphics/SVG/1.1/DTD/svg11.dtd"><svg t="1622732582717" class="icon" viewBox="0 0 1130 1024" version="1.1" xmlns="http://www.w3.org/2000/svg" p-id="92830" width="70.625" height="64" xmlns:xlink="http://www.w3.org/1999/xlink"><defs><style type="text/css"></style></defs><path d="M863.530667 207.445333h95.125333c27.328 0 53.546667-10.88 72.896-30.378666a103.978667 103.978667 0 0 0 30.186667-73.344C1061.76 46.421333 1015.616 0 958.656 0h-95.146667c-56.96 0-103.082667 46.421333-103.082666 103.722667s46.144 103.722667 103.104 103.722666z m95.125333-63.616h-95.146667c-22.186667 0-39.850667-18.346667-39.850666-40.682666 0-22.357333 17.642667-40.682667 39.872-40.682667h95.125333c22.186667 0 39.872 18.346667 39.872 40.682667 0 22.336-17.664 40.682667-39.893333 40.682666z m6.250667 511.722667h-4.544v0.554667c-23.36 2.304-78.613333 22.933333-164.053334 60.757333-19.370667-71.061333-29.610667-81.941333-34.176-85.973333-17.088-17.173333-301.888-174.762667-379.946666-174.762667-67.754667 0-327.509333 61.312-357.12 68.202667h-0.576A31.829333 31.829333 0 0 0 0 555.264V808.533333a32.213333 32.213333 0 0 0 31.338667 32.106667h219.861333c26.197333 14.890667 93.973333 53.290667 173.717333 91.669333 103.68 49.856 187.413333 80.213333 248.917334 91.114667 1.706667 0.576 3.413333 0.576 5.696 0.576 54.122667 0 349.738667-129.493333 443.157333-233.216a31.573333 31.573333 0 0 0 7.978667-21.205333c-0.576-76.224-55.829333-114.026667-165.76-114.026667zM63.232 776.448v-196.544c47.850667-10.88 266.005333-60.736 318.976-60.736 51.264 0 293.909333 128.917333 334.357333 155.861333 4.565333 9.728 13.098667 37.248 21.077334 67.626667-8.533333 3.989333-18.24 8.576-27.904 12.586667l-2.282667 1.152-146.965333-95.701334a31.36 31.36 0 0 0-17.088-5.141333h-64.938667c-17.066667 0.554667-30.762667 15.466667-30.762667 32.64a32.298667 32.298667 0 0 0 30.762667 30.954667h56.405333l153.792 100.266666c9.109333 5.76 20.48 6.890667 30.186667 2.304 102.528-48.128 225.557333-100.842667 246.058667-102.570666 33.045333 0 57.536 3.434667 74.048 10.325333 14.805333 6.293333 23.936 15.466667 26.773333 27.498667-23.36 22.336-80.874667 68.757333-210.176 131.797333-82.602667 40.106667-154.944 67.626667-175.445333 70.485333-147.52-27.52-402.709333-177.066667-405.546667-178.773333a32.085333 32.085333 0 0 0-15.957333-4.608H63.232v0.576z" fill="#51c4d3" p-id="92831"></path><path d="M806.677333 389.418667c-56.32 0-101.930667 46.506667-101.930666 103.957333 0 57.429333 45.610667 103.957333 101.930666 103.957333h94.058667C957.056 597.333333 1002.666667 550.826667 1002.666667 493.376c0-57.429333-45.610667-103.957333-101.930667-103.957333h-94.058667z m134.037334 103.957333c0 22.4-17.450667 40.768-39.424 40.768H807.253333c-21.973333 0-39.402667-18.368-39.402666-40.768s17.450667-40.789333 39.402666-40.789333h94.08c10.666667 0 20.821333 4.032 28.16 12.074666 6.741333 8.042667 11.242667 17.792 11.242667 28.714667z m-369.450667-135.552h94.058667c56.32 0 101.930667-46.506667 101.930666-103.957333 0-57.429333-45.610667-104.533333-101.930666-104.533334h-94.058667C514.944 149.333333 469.333333 195.84 469.333333 253.290667c0 58.026667 45.610667 104.533333 101.930667 104.533333z m0-144.746667h94.058667c21.973333 0 39.424 18.389333 39.424 40.789334 0 22.4-17.472 40.789333-39.424 40.789333h-94.058667c-21.973333 0-39.424-18.389333-39.424-40.789333 0-22.4 17.472-40.789333 39.424-40.789334z" fill="#51c4d3" p-id="92832"></path></svg>