<?xml version="1.0" standalone="no"?><!DOCTYPE svg PUBLIC "-//W3C//DTD SVG 1.1//EN" "http://www.w3.org/Graphics/SVG/1.1/DTD/svg11.dtd"><svg t="1622732762555" class="icon" viewBox="0 0 1024 1024" version="1.1" xmlns="http://www.w3.org/2000/svg" p-id="96704" width="64" height="64" xmlns:xlink="http://www.w3.org/1999/xlink"><defs><style type="text/css"></style></defs><path d="M692.05045 235.092354L858.023092 0 1023.995733 235.092354h-110.506206v176.639264a55.466436 55.466436 0 1 1-110.506206 0V235.092354zM426.664889 487.677968a601.597493 601.597493 0 0 1-102.399573 8.959963C170.665956 496.637931 42.666489 439.464836 8.106633 363.09182A96.426265 96.426265 0 0 0 0 401.064996c0 94.719605 145.492727 170.665956 325.118645 170.665955h26.026559a294.398773 294.398773 0 0 1 76.373015-85.332978z m213.332444-47.359803a89.599627 89.599627 0 0 0 8.959963-39.253169 97.70626 97.70626 0 0 0-8.106633-37.973176 175.359269 175.359269 0 0 1-68.693047 72.533032h13.653276a250.878955 250.878955 0 0 1 54.186441 4.693313z" p-id="96705" fill="#51c4d3"></path><path d="M325.118645 609.277461C170.665956 609.277461 42.666489 552.104366 8.106633 475.731351A99.412919 99.412919 0 0 0 0 511.997867c0 92.159616 137.386094 167.252636 310.185374 170.665955a294.398773 294.398773 0 0 1 21.75991-75.94635z" p-id="96706" fill="#51c4d3"></path><path d="M306.772055 721.916992c-146.346057-4.693314-267.09222-59.733084-298.665422-133.119445a96.426265 96.426265 0 0 0-8.106633 37.973175c0 92.586281 139.092754 167.679301 313.172028 170.665955a292.265449 292.265449 0 0 1-6.826638-64.426398 104.106233 104.106233 0 0 1 0.426665-11.093287z" p-id="96707" fill="#51c4d3"></path><path d="M8.106633 701.437077a99.412919 99.412919 0 0 0-8.106633 37.973175c0 94.719605 145.492727 170.665956 325.118645 170.665956h35.839851a309.332044 309.332044 0 0 1-37.54651-75.09302C170.665956 834.556523 42.666489 777.810092 8.106633 701.437077z" p-id="96708" fill="#51c4d3"></path><path d="M389.118379 944.209399a515.837851 515.837851 0 0 1-63.999734 3.839984C170.665956 948.049383 42.666489 890.876288 8.106633 814.503273A96.426265 96.426265 0 0 0 0 853.329778c0 94.719605 145.492727 170.665956 325.118645 170.665955a569.597627 569.597627 0 0 0 147.199387-18.773255 270.50554 270.50554 0 0 1-83.199653-61.013079z" p-id="96709" fill="#51c4d3"></path><path d="M599.464169 451.838117a272.638864 272.638864 0 0 0-264.105566 280.745497 273.065529 273.065529 0 0 0 264.105566 280.745497 273.065529 273.065529 0 0 0 264.105566-280.745497 273.065529 273.065529 0 0 0-264.105566-280.745497z m104.532898 335.358603a17.919925 17.919925 0 0 1-18.773255 17.49326h-63.999734v35.839851a20.90658 20.90658 0 0 1-42.666489 0v-35.839851H511.997867a18.34659 18.34659 0 0 1-18.773255-17.49326A18.34659 18.34659 0 0 1 511.997867 767.9968h66.559722v-20.479915H511.997867a18.34659 18.34659 0 0 1-18.773255-17.49326 18.34659 18.34659 0 0 1 18.773255-17.919925h50.346457l-57.173096-78.933005a17.066596 17.066596 0 0 1 0-24.746563 19.626585 19.626585 0 0 1 26.453224 0 12.799947 12.799947 0 0 1 2.986654 4.266648l62.719738 85.332978 62.293074-85.332978a19.626585 19.626585 0 0 1 26.453223 0 16.213266 16.213266 0 0 1 3.839984 20.479915l-57.173095 78.933005h50.346457a18.34659 18.34659 0 0 1 18.773255 17.919925 17.919925 17.919925 0 0 1-18.773255 17.49326h-63.999733V767.9968h64.426398a17.919925 17.919925 0 0 1 18.34659 17.49326zM325.118645 100.692914C145.492727 100.692914 0 177.492594 0 272.212199s145.492727 170.665956 325.118645 170.665956 325.118645-76.79968 325.118646-170.665956-145.492727-171.519285-325.118646-171.519285z m193.279195 133.119445v49.493127h-46.506473a57.173095 57.173095 0 0 1-5.546643 9.813293 50.773122 50.773122 0 0 1-6.399974 7.679968l33.279862 20.053249-58.45309 35.413186-32.853197-20.05325-14.933271 5.119979H383.9984l-17.066596 3.839984v28.159883H285.438811v-26.879888L267.518885 341.331911l-13.226611-3.839984-32.853197 20.05325-59.306419-34.559856 32.853196-20.05325-6.399973-7.679968a60.586414 60.586414 0 0 1-5.973309-9.813292H134.826105V233.812359h46.933138A72.106366 72.106366 0 0 1 194.985854 213.332444l-32.853196-19.19992 58.026425-35.413185 32.853196 20.053249A276.905513 276.905513 0 0 1 285.438811 170.665956v-28.159883h82.346323V170.665956a255.998933 255.998933 0 0 1 32.426532 8.106632l32.853196-20.053249 58.026425 35.413185-32.853196 19.19992a74.239691 74.239691 0 0 1 13.653276 19.626585z" p-id="96710" fill="#51c4d3"></path><path d="M423.25157 253.438944v-4.266649a20.90658 20.90658 0 0 0 0-4.693314l-2.55999-4.266649a112.212866 112.212866 0 0 0-89.599626-36.69318 111.359536 111.359536 0 0 0-89.599627 36.69318l-2.559989 4.266649a20.90658 20.90658 0 0 0 0 4.693314 22.186574 22.186574 0 0 0 0 4.693314v11.093287a10.239957 10.239957 0 0 1 0 3.413319 5.973308 5.973308 0 0 1 0 2.559989 87.466302 87.466302 0 0 0 69.119712 42.666489 147.199387 147.199387 0 0 0 49.919792 0 85.332978 85.332978 0 0 0 69.119712-42.666489v-2.559989a10.239957 10.239957 0 0 0 0-3.413319 11.946617 11.946617 0 0 0 0-3.839984v-7.679968z" p-id="96711" fill="#51c4d3"></path></svg>