<?xml version="1.0" standalone="no"?><!DOCTYPE svg PUBLIC "-//W3C//DTD SVG 1.1//EN" "http://www.w3.org/Graphics/SVG/1.1/DTD/svg11.dtd"><svg t="1622732569447" class="icon" viewBox="0 0 1024 1024" version="1.1" xmlns="http://www.w3.org/2000/svg" p-id="92400" width="64" height="64" xmlns:xlink="http://www.w3.org/1999/xlink"><defs><style type="text/css"></style></defs><path d="M867.52784839 219.1291848H659.48116439l22.77098573-39.7682157c16.17240771-28.23543315 6.34818555-64.38032253-21.8872476-80.55273026-13.68321198-7.83581139-29.59049827-9.86840908-44.80552304-5.74429783-15.21502476 4.13884021-27.91139584 13.94833343-35.74720721 27.63154544l-54.57082934 95.29642799a6.21709773 6.21709773 0 0 1-10.78160515 0l-54.57082932-95.29642799c-7.83581139-13.68321198-20.53218247-23.49270521-35.74720722-27.63154544-15.21502476-4.13884021-31.12231104-2.09151357-44.80552304 5.74429783-28.23543315 16.17240771-38.05965533 52.30256814-21.88724759 80.55273026l22.77098571 39.7682157H156.47215161c-37.05808544 0-68.46024688 28.58892839-70.47811561 65.58809797-2.17988738 40.04806611 29.7672459 73.32080659 69.35871397 73.32080658h8.51334397c9.83895114 0 17.82205222 7.98310108 17.8220522 17.82205222v469.0292818c0 48.590868 42.16903762 88.10869124 94.01500774 88.10869124h472.57896327c51.83124114 0 94.01500771-39.53255219 94.01500772-88.10869124V375.86014157c0-9.83895114 7.98310108-17.82205222 17.82205223-17.82205222h8.51334395c39.57673911 0 71.53860135-33.27274047 69.35871398-73.32080658-2.00313975-36.99916958-33.40530119-65.58809798-70.46338664-65.58809797z m-274.94566021-1.94422389c-7.11409191-4.06519538-9.5738297-13.13824016-5.50863431-20.25233208l30.82773166-53.81965191c1.72328935-3.01943861 4.31558786-5.5233633 7.54123202-6.81951253 4.30085888-1.72328935 8.99939991-1.38452306 12.96149251 0.86900914 7.09936295 4.06519538 9.5738297 13.15296911 5.50863433 20.23760311l-31.07812412 54.26152098c-2.76904613 4.83110176-7.85054035 7.51177407-13.06459531 7.45285821h-0.22093454a14.56105853 14.56105853 0 0 1-6.96680224-1.92949492zM426.86656046 211.67632659l-31.07812413-54.26152097c-4.06519538-7.09936295-1.59072863-16.17240771 5.50863432-20.23760311 3.94736364-2.26826119 8.64590467-2.60702749 12.96149254-0.86900917 3.22564417 1.29614927 5.81794267 3.80007395 7.54123201 6.81951255l30.82773165 53.81965192a14.84680053 14.84680053 0 0 1-5.50863432 20.25233208c-2.19461635 1.25196235-4.59543826 1.885308-6.96680224 1.94422389h-0.22093452c-5.19932598 0.04418691-10.29554917-2.63648541-13.06459531-7.46758719zM489.90654683 379.57184171V578.42764919c0 11.8862778-9.64747456 21.53375235-21.53375236 21.53375236H244.68394563c-11.8862778 0-21.53375235-9.64747456-21.53375236-21.53375236V379.57184171c0-11.8862778 9.64747456-21.53375235 21.53375236-21.53375236h223.68884884c11.8862778 0 21.53375235 9.64747456 21.53375236 21.53375236zM223.15019327 844.88942337V665.69678921c0-11.8862778 9.64747456-21.53375235 21.53375236-21.53375236h223.68884884c11.8862778 0 21.53375235 9.64747456 21.53375236 21.53375236v206.92728237c0 11.8862778-9.64747456 21.53375235-21.53375236 21.53375237H275.70315388c-28.9718816 0-52.55296061-22.09345317-52.55296061-49.26840058z m525.14665285 49.26840058H555.62720553c-11.8862778 0-21.53375235-9.64747456-21.53375236-21.53375237V665.69678921c0-11.8862778 9.64747456-21.53375235 21.53375236-21.53375236h223.68884884c11.8862778 0 21.53375235 9.64747456 21.53375236 21.53375236v179.20736314c0 27.16021843-23.58107902 49.25367161-52.55296061 49.2536716z m31.01920825-294.18169342H555.62720553c-11.8862778 0-21.53375235-9.64747456-21.53375236-21.53375236V379.57184171c0-11.8862778 9.64747456-21.53375235 21.53375236-21.53375236h223.68884884c11.8862778 0 21.53375235 9.64747456 21.53375236 21.53375236V578.42764919c0 11.90100678-9.64747456 21.54848132-21.53375236 21.54848134z m88.7420369-286.12494753H155.95663771c-12.72582902 0-24.65629374-10.31027814-25.76096639-22.99192025-1.31087822-14.97936125 10.45756784-27.54317163 25.17180763-27.54317162h713.27977108c14.71423981 0 26.48268588 12.56381038 25.17180763 27.54317162-1.11940163 12.68164212-13.03513737 22.99192027-25.76096639 22.99192025z" fill="#51c4d3" p-id="92401"></path></svg>