<?xml version="1.0" standalone="no"?><!DOCTYPE svg PUBLIC "-//W3C//DTD SVG 1.1//EN" "http://www.w3.org/Graphics/SVG/1.1/DTD/svg11.dtd"><svg t="1622732478907" class="icon" viewBox="0 0 1024 1024" version="1.1" xmlns="http://www.w3.org/2000/svg" p-id="89121" width="64" height="64" xmlns:xlink="http://www.w3.org/1999/xlink"><defs><style type="text/css"></style></defs><path d="M512 991.573333c-32.426667 0-305.066667-194.986667-310.186667-238.08 0-17.066667 20.906667-69.12 104.106667-268.8C341.333333 404.053333 376.32 315.733333 407.466667 237.653333L286.72 90.88A14.933333 14.933333 0 0 1 284.16 85.333333a37.973333 37.973333 0 0 1 0-33.28A60.16 60.16 0 0 1 338.346667 32.426667h350.293333c16.64 0 39.253333 2.133333 48.64 17.92a36.266667 36.266667 0 0 1-8.106667 42.666666l-112.64 144.213334c33.706667 85.333333 72.533333 177.92 107.093334 261.12 85.333333 201.813333 98.56 239.786667 98.56 252.586666a22.613333 22.613333 0 0 1 0 5.546667c-11.52 35.413333-273.066667 235.093333-310.186667 235.093333z m2.133333-42.666666z m-268.373333-200.96a1522.346667 1522.346667 0 0 0 266.24 200.533333 1765.546667 1765.546667 0 0 0 266.24-201.813333c-8.106667-25.173333-51.626667-130.133333-93.866667-231.68-36.266667-87.466667-76.8-184.746667-110.933333-269.653334a28.586667 28.586667 0 0 1 0-24.32l112.213333-145.92H329.386667l119.04 145.066667a22.186667 22.186667 0 0 1 3.413333 22.186667c-33.706667 83.2-71.68 174.506667-106.666667 258.133333-44.373333 107.52-89.173333 218.453333-99.413333 247.466667z" p-id="89122" fill="#51c4d3"></path><path d="M536.32 244.053333h-48.64a10.666667 10.666667 0 0 1 0-21.333333h48.64a10.666667 10.666667 0 0 1 0 21.333333zM544 548.693333H306.773333a10.666667 10.666667 0 0 1-10.666666-10.666666 10.666667 10.666667 0 0 1 10.666666-10.666667h226.56v-23.893333H325.546667a10.666667 10.666667 0 1 1 0-21.333334h218.453333a10.666667 10.666667 0 0 1 10.666667 10.666667v45.226667a10.666667 10.666667 0 0 1-10.666667 10.666666z" p-id="89123" fill="#51c4d3"></path></svg>