<?xml version="1.0" standalone="no"?><!DOCTYPE svg PUBLIC "-//W3C//DTD SVG 1.1//EN" "http://www.w3.org/Graphics/SVG/1.1/DTD/svg11.dtd"><svg t="1622770320867" class="icon" viewBox="0 0 1024 1024" version="1.1" xmlns="http://www.w3.org/2000/svg" p-id="2368" width="64" height="64" xmlns:xlink="http://www.w3.org/1999/xlink"><defs><style type="text/css"></style></defs><path d="M339.72224 75.264l0 887.88992 344.55552 0L684.27776 75.264 339.72224 75.264zM656.24064 935.1168 367.75936 935.1168 367.75936 103.30112l288.48128 0L656.24064 935.1168zM635.27936 123.5456 388.42368 123.5456l0 788.20352 246.85568 0L635.27936 123.5456zM511.8464 152.76032c56.12544 0 101.64224 45.50656 101.64224 101.64224s-45.50656 101.64224-101.64224 101.64224c-56.13568 0-101.64224-45.50656-101.64224-101.64224S455.71072 152.76032 511.8464 152.76032zM511.8464 383.30368c56.12544 0 101.64224 45.50656 101.64224 101.64224 0 56.12544-45.50656 101.64224-101.64224 101.64224-56.13568 0-101.64224-45.50656-101.64224-101.64224C410.2144 428.81024 455.71072 383.30368 511.8464 383.30368zM512 823.35744c-56.12544 0-101.64224-45.50656-101.64224-101.64224 0-56.13568 45.50656-101.64224 101.64224-101.64224 56.13568 0 101.64224 45.50656 101.64224 101.64224C613.632 777.84064 568.12544 823.35744 512 823.35744zM574.28992 255.01696c0 34.47808-27.9552 62.43328-62.44352 62.43328s-62.44352-27.9552-62.44352-62.43328c0-34.48832 27.9552-62.44352 62.44352-62.44352S574.28992 220.53888 574.28992 255.01696z" p-id="2369" fill="#51c4d3"></path></svg>