<?xml version="1.0" standalone="no"?><!DOCTYPE svg PUBLIC "-//W3C//DTD SVG 1.1//EN" "http://www.w3.org/Graphics/SVG/1.1/DTD/svg11.dtd"><svg t="1622770429119" class="icon" viewBox="0 0 1024 1024" version="1.1" xmlns="http://www.w3.org/2000/svg" p-id="5950" width="64" height="64" xmlns:xlink="http://www.w3.org/1999/xlink"><defs><style type="text/css"></style></defs><path d="M776.5 433c-21.3 0-41.7 3.8-60.6 10.8l-90.3-174.6H692c2 0 3.6 1.6 3.6 3.6s-1.6 3.6-3.6 3.6h-12.3c-12.2 0-22 9.8-22 22s9.8 22 22 22H692c26.2 0 47.6-21.4 47.6-47.6s-21.3-47.6-47.6-47.6H589.4c-7.7 0-14.9 4.1-18.8 10.6s-4.2 14.7-0.7 21.5l39.8 77-197.4 8.7-21.6-45.4H420c12.1 0 22-9.8 22-22s-9.8-22-22-22H304.5c-12.2 0-22 9.8-22 22s9.8 22 22 22H342l34.7 72.9-50.7 71.8c-25.3-14.1-54.4-22.2-85.4-22.2-97 0-175.9 78.9-175.9 175.9s78.8 176 175.8 176c93.8 0 170.8-74 175.7-166.7h87.7c0.3 0 0.6 0 0.8-0.1 0.2 0 0.4 0 0.6-0.1 0.3 0 0.5-0.1 0.8-0.1 0.2 0 0.4-0.1 0.5-0.1 0.4-0.1 0.7-0.2 1.1-0.3h0.2c1.2-0.3 2.5-0.8 3.7-1.3 3.6-1.7 6.5-4.3 8.6-7.3 0.4-0.5 0.8-1.1 1.1-1.7l117.4-203.9 38.2 73.8c-46 31.8-76.2 84.8-76.2 144.8 0 97 78.9 175.9 175.9 175.9S952.5 706 952.5 609s-79-176-176-176z m-378.3-17l69.1 145.3H413c-7.3-36.2-25.8-68.5-51.7-93l36.9-52.3z m-62.7 88.8c15 15.6 26.3 35 32.2 56.5h-72l39.8-56.5z m-95 223.2c-72.8 0-131.9-59.1-131.9-131.8s59.2-131.9 131.9-131.9c21.5 0 41.8 5.2 59.8 14.4l-64.9 91.9c-4.8 6.7-5.4 15.5-1.6 22.8 3.7 7.3 11.3 11.9 19.5 11.9h118.8C367.3 673.7 310.2 728 240.5 728z m263.4-192.1l-71.1-149.7 161.3-7.2-90.2 156.9z m272.6 205c-72.7 0-131.9-59.2-131.9-131.9 0-43 20.7-81.3 52.7-105.4L757 619.1c4 7.6 11.6 11.9 19.6 11.9 3.4 0 6.8-0.8 10.1-2.5 10.8-5.5 15-18.8 9.4-29.6l-59.7-115.5c12.7-4.1 26.2-6.3 40.1-6.3 72.7 0 131.9 59.2 131.9 131.9s-59.2 131.9-131.9 131.9z" p-id="5951" fill="#51c4d3"></path></svg>