<?xml version="1.0" standalone="no"?><!DOCTYPE svg PUBLIC "-//W3C//DTD SVG 1.1//EN" "http://www.w3.org/Graphics/SVG/1.1/DTD/svg11.dtd"><svg t="1622770470105" class="icon" viewBox="0 0 1024 1024" version="1.1" xmlns="http://www.w3.org/2000/svg" p-id="8564" width="64" height="64" xmlns:xlink="http://www.w3.org/1999/xlink"><defs><style type="text/css"></style></defs><path d="M249.9584 731.1872c-46.9504 0-85.0944-38.1952-85.0944-85.0944 0-46.9504 38.1952-85.0944 85.0944-85.0944s85.0944 38.1952 85.0944 85.0944c0 46.9504-38.144 85.0944-85.0944 85.0944z m0-118.9888c-18.688 0-33.8944 15.2064-33.8944 33.8944s15.2064 33.8944 33.8944 33.8944 33.8944-15.2064 33.8944-33.8944-15.2064-33.8944-33.8944-33.8944zM768.8704 731.1872c-46.9504 0-85.0944-38.1952-85.0944-85.0944 0-46.9504 38.1952-85.0944 85.0944-85.0944s85.0944 38.1952 85.0944 85.0944c0 46.9504-38.144 85.0944-85.0944 85.0944z m0-118.9888c-18.688 0-33.8944 15.2064-33.8944 33.8944s15.2064 33.8944 33.8944 33.8944 33.8944-15.2064 33.8944-33.8944-15.2064-33.8944-33.8944-33.8944z" fill="#51c4d3" p-id="8565"></path><path d="M813.6704 266.9568a25.6 25.6 0 0 1-20.48-10.1888 239.43168 239.43168 0 0 0-19.4048-22.6304 25.5744 25.5744 0 0 1 0.512-36.1984 25.62048 25.62048 0 0 1 36.1984 0.512c8.3968 8.6528 16.384 17.92 23.6032 27.5456a25.5744 25.5744 0 0 1-5.0688 35.84c-4.5568 3.4816-9.984 5.12-15.36 5.12z" fill="#51c4d3" p-id="8566"></path><path d="M806.5024 914.7904c-44.8 0-82.3808-31.3856-91.9552-73.3184H294.0928c-9.5744 41.9328-47.1552 73.3184-91.9552 73.3184-51.8656 0-94.1056-42.0864-94.3104-93.9008a153.27232 153.27232 0 0 1-76.6976-133.0176v-65.6896c0-71.1168 38.9632-136.0384 100.608-169.8304V397.6704c0-157.5424 128.1536-285.696 285.696-285.696h188.416c48.7424 0 96.8704 12.4928 139.1616 36.1472a25.6256 25.6256 0 0 1 9.8816 34.816 25.6256 25.6256 0 0 1-34.816 9.8816 234.4448 234.4448 0 0 0-114.176-29.6448h-188.416c-129.28 0-234.496 105.1648-234.496 234.496v70.5536c0 10.1376-5.9904 19.3536-15.3088 23.4496a142.58688 142.58688 0 0 0-85.2992 130.5088v65.6896c0 41.3184 24.576 78.336 62.6688 94.4128 11.3664 4.8128 17.664 16.9984 15.0528 29.0304-0.6656 3.1232-1.024 6.1952-1.024 9.216 0 23.7568 19.3536 43.1104 43.1104 43.1104s43.1104-19.3536 43.1104-43.1104c0-0.7168-0.0512-1.3824-0.1024-2.0992l-0.0512-0.8192c-0.4608-7.0656 1.9968-14.0288 6.8096-19.2a25.7024 25.7024 0 0 1 18.688-8.1408h467.456c7.0656 0 13.8752 2.9184 18.688 8.1408a25.33888 25.33888 0 0 1 6.8096 19.2l-0.0512 0.8192c-0.0512 0.6656-0.1024 1.3824-0.1024 2.0992 0 23.7568 19.3536 43.1104 43.1104 43.1104s43.1104-19.3536 43.1104-43.1104c0-1.792-0.1536-3.7888-0.5632-6.2464a25.62048 25.62048 0 0 1 18.0224-28.2624c43.008-12.8512 73.0624-53.1968 73.0624-98.0992v-65.6896c0-56.2176-33.2288-107.3664-84.6848-130.2016a25.53856 25.53856 0 0 1-15.2064-23.3984V397.6704c0-25.1392-3.9424-49.92-11.7248-73.5232a25.5488 25.5488 0 0 1 16.2816-32.3072c13.4656-4.4544 27.904 2.8672 32.3072 16.2816 9.5232 28.8256 14.336 58.9824 14.336 89.6v55.0912c61.184 33.8944 99.8912 98.6624 99.8912 169.4208v65.6896c0 60.6208-36.5056 115.712-90.8288 140.1856-3.8912 48.4352-44.5952 86.6816-94.0544 86.6816z" fill="#51c4d3" p-id="8567"></path><path d="M732.0576 482.7648H291.1232c-14.1312 0-25.6-11.4688-25.6-25.6V380.0064c0-81.7152 84.0704-148.1728 187.4432-148.1728h117.248c103.3728 0 187.4432 66.4576 187.4432 148.1728V457.216c0 14.1312-11.4688 25.5488-25.6 25.5488z m-415.3344-51.2h389.7344V380.0064c0-53.504-61.1328-96.9728-136.2432-96.9728h-117.248c-75.1104 0-136.2432 43.52-136.2432 96.9728v51.5584z" fill="#51c4d3" p-id="8568"></path></svg>