<?xml version="1.0" standalone="no"?><!DOCTYPE svg PUBLIC "-//W3C//DTD SVG 1.1//EN" "http://www.w3.org/Graphics/SVG/1.1/DTD/svg11.dtd"><svg t="1623140042337" class="icon" viewBox="0 0 1024 1024" version="1.1" xmlns="http://www.w3.org/2000/svg" p-id="2351" xmlns:xlink="http://www.w3.org/1999/xlink" width="64" height="64"><defs><style type="text/css"></style></defs><path d="M792.3 685.9c5.3 5 11.1 10.4 16.7 16.1 20.5 20.4 40.9 40.9 61.4 61.4 14.7 14.7 15.4 35.5 1.6 49.4-13.9 14-34.9 13.4-49.8-1.6-24.7-24.7-49.6-49.4-74.2-74.3-3.1-3.1-5-3.3-8.9-1.2-88.1 48.5-194.4 0.5-216.5-97.6C504.8 558.7 558 478.8 639.3 463c83.7-16.2 164.6 43.7 173.6 128.4 3.4 31.9-2.9 61.6-18.7 89.4-0.5 0.9-1 1.8-1.5 2.8-0.1 0.3-0.1 0.7-0.4 2.3z m-126 23.6c57-0.4 102.6-46 102.3-102.4-0.3-56.4-46.6-101.9-103.2-101.5-55.9 0.5-101 46.7-100.7 103.4 0.3 54.8 46.9 100.9 101.6 100.5z m0 0" fill="#51C4D3" p-id="2352"></path><path d="M587.6 607.2c0.1-46.8 40.4-80.1 78.8-78.4 0.1 1.8 0.3 3.6 0.3 5.5v16.2c-36.8 3.2-55.3 28.2-57 56.8l-22.1-0.1z m0 0" fill="#51C4D3" p-id="2353"></path><path d="M430.2 602.7v10.5h73.7c0-3.4 0-6.9 0.1-10.5h-73.8zM430.2 587v10.5h74.1c0.2-3.4 0.5-6.9 0.9-10.5h-75zM430.2 571.3v10.5h75.6c0.5-3.4 1.1-6.9 1.8-10.5h-77.4z" fill="#51C4D3" opacity=".6" p-id="2354"></path><path d="M420.9 623.7v-62.9H510c9.2-35.2 31-72.4 78.6-96.2 104.2-52.1 177.3 16.7 189.1 28.9-5.1-20.6-19.2-38-38.4-48.3 6.3-3 12.6-7 18.7-12 23.3-19.3 33.2-45.8 22.1-59.2-11.1-13.5-39-8.7-62.3 10.5-6.7 5.5-12.2 11.7-16.5 17.9-0.7-27.3-12.8-114.4-186-114.4-161.1 0-182.6 80.6-185.5 111.1-4.4-6.9-10.5-13.7-17.8-19.8-23.3-19.3-51.2-24-62.3-10.5-11.1 13.5-1.2 40 22.1 59.2 8 6.6 16.6 11.5 24.9 14.5-25.6 11.5-43.8 35.2-45.6 63h-0.3V592.3H246c-12 0-21.8 9.8-21.8 21.8v19.3c0 12 9.8 21.8 21.8 21.8h4.4V690c0 18.3 15 33.2 33.2 33.2H301c18.3 0 33.2-15 33.2-33.2v-34.9h174.5c-0.3-1.1-3.2-13.3-4.3-31.4h-83.5z m-83.4-52.4c-20.3 0-36.7-16.4-36.7-36.7 0-20.3 16.4-36.7 36.7-36.7 20.3 0 36.7 16.4 36.7 36.7 0 20.3-16.4 36.7-36.7 36.7zM360.2 435v-27.6h0.4c2.3-23.9 20.1-87.6 154.2-87.6 138.7 0 153.1 63.7 154.4 87.6h0.1V435H360.2z" fill="#51C4D3" opacity=".6" p-id="2355"></path><path d="M339.2 534.6m-21 0a21 21 0 1 0 42 0 21 21 0 1 0-42 0Z" fill="#51C4D3" opacity=".6" p-id="2356"></path></svg>