<?xml version="1.0" standalone="no"?><!DOCTYPE svg PUBLIC "-//W3C//DTD SVG 1.1//EN" "http://www.w3.org/Graphics/SVG/1.1/DTD/svg11.dtd"><svg t="1623140012577" class="icon" viewBox="0 0 1024 1024" version="1.1" xmlns="http://www.w3.org/2000/svg" p-id="1998" xmlns:xlink="http://www.w3.org/1999/xlink" width="64" height="64"><defs><style type="text/css"></style></defs><path d="M927.812267 463.086933l-70.4512 15.36a170.666667 170.666667 0 0 1-11.810134-29.354666l-75.707733-254.0544A34.133333 34.133333 0 0 0 737.143467 170.666667H275.456a34.133333 34.133333 0 0 0-32.733867 24.405333l-75.741866 254.634667a170.666667 170.666667 0 0 1-20.923734 45.056l-38.058666 57.924266a34.133333 34.133333 0 0 0-5.051734 24.917334l48.503467 264.328533A13.9264 13.9264 0 0 0 165.205333 853.333333h13.789867a34.133333 34.133333 0 0 0 28.3648-15.1552l38.126933-56.9344A68.266667 68.266667 0 0 1 302.1824 750.933333h246.3744a313.685333 313.685333 0 0 0 16.452267 68.266667h-262.826667l-38.126933 56.968533A102.4 102.4 0 0 1 178.961067 921.6H165.205333a82.193067 82.193067 0 0 1-80.861866-67.3792l-48.469334-264.328533a102.4 102.4 0 0 1 15.086934-74.683734l38.058666-57.924266a102.4 102.4 0 0 0 12.561067-27.0336l75.776-254.634667A102.4 102.4 0 0 1 275.456 102.4h461.687467a102.4 102.4 0 0 1 98.133333 73.147733l75.707733 254.020267a102.4 102.4 0 0 0 12.561067 26.999467l4.266667 6.519466z" fill="#51C4D3" p-id="1999"></path><path d="M655.701333 520.874667l164.625067 35.498666 162.269867-35.362133a34.133333 34.133333 0 0 1 41.403733 33.348267v157.320533a248.490667 248.490667 0 0 1-195.003733 242.688l-6.3488 1.365333-12.970667-2.730666A246.715733 246.715733 0 0 1 614.4 711.68v-157.422933a34.133333 34.133333 0 0 1 41.301333-33.348267z m26.965334 190.805333a178.449067 178.449067 0 0 0 139.3664 174.08A180.224 180.224 0 0 0 955.733333 711.68v-114.926933l-120.866133 26.3168a68.266667 68.266667 0 0 1-28.910933 0.034133L682.666667 596.548267v115.131733z" fill="#51C4D3" p-id="2000"></path></svg>