<?xml version="1.0" standalone="no"?><!DOCTYPE svg PUBLIC "-//W3C//DTD SVG 1.1//EN" "http://www.w3.org/Graphics/SVG/1.1/DTD/svg11.dtd"><svg t="1622770382149" class="icon" viewBox="0 0 1024 1024" version="1.1" xmlns="http://www.w3.org/2000/svg" p-id="4377" width="64" height="64" xmlns:xlink="http://www.w3.org/1999/xlink"><defs><style type="text/css"></style></defs><path d="M810.666667 938.756267h-177.92c-22.613333 0-44.373333-8.96-60.16-25.173334l-17.493334-17.493333c-23.466667-23.466667-61.866667-23.466667-85.333333 0l-17.493333 17.493333c-16.213333 16.213333-37.546667 25.173333-60.16 25.173334H213.333333c-46.933333 0-85.333333-38.4-85.333333-85.333334v-682.666666c0-46.933333 38.4-85.333333 85.333333-85.333334h177.92c22.613333 0 44.373333 8.96 60.16 25.173334l17.493334 17.493333c23.466667 23.466667 61.866667 23.466667 85.333333 0l17.493333-17.493333c16.213333-16.213333 37.546667-25.173333 60.16-25.173334H810.666667c46.933333 0 85.333333 38.4 85.333333 85.333334v682.666666c0 46.933333-38.4 85.333333-85.333333 85.333334z m-298.666667-124.16c32 0 63.573333 11.946667 87.893333 36.266666l17.493334 17.493334c3.84 3.84 9.386667 6.4 14.933333 6.4H810.666667c11.946667 0 21.333333-9.386667 21.333333-21.333334v-682.666666c0-11.946667-9.386667-21.333333-21.333333-21.333334h-177.92c-5.546667 0-11.093333 2.133333-14.933334 6.4l-17.493333 17.493334c-48.64 48.64-127.573333 48.64-175.786667 0l-17.92-17.92c-3.84-3.84-9.386667-6.4-14.933333-6.4H213.333333c-11.946667 0-21.333333 9.386667-21.333333 21.333333v682.666667c0 11.946667 9.386667 21.333333 21.333333 21.333333h177.92c5.546667 0 11.093333-2.133333 14.933334-6.4l17.493333-17.493333c24.746667-23.893333 56.32-35.84 88.32-35.84z" p-id="4378" fill="#51c4d3"></path><path d="M375.893333 468.996267H648.533333c19.2 0 34.56 15.36 34.56 34.56s-15.36 34.56-34.56 34.56H375.893333c-19.2 0-34.56-15.36-34.56-34.56s15.36-34.56 34.56-34.56z" p-id="4379" fill="#51c4d3"></path></svg>