<?xml version="1.0" standalone="no"?><!DOCTYPE svg PUBLIC "-//W3C//DTD SVG 1.1//EN" "http://www.w3.org/Graphics/SVG/1.1/DTD/svg11.dtd"><svg t="1622770904207" class="icon" viewBox="0 0 1024 1024" version="1.1" xmlns="http://www.w3.org/2000/svg" p-id="25328" width="64" height="64" xmlns:xlink="http://www.w3.org/1999/xlink"><defs><style type="text/css"></style></defs><path d="M940.464445 453.956026 677.973102 453.956026 677.973102 196.146309l268.905426-84.842317c10.536984-3.324722 16.385179-14.563694 13.059434-25.100678-3.325745-10.539031-14.56574-16.385179-25.099654-13.060457l-796.265252 251.228835c-10.536984 3.324722-16.385179 14.562671-13.059434 25.100678 2.692319 8.535397 10.57587 13.992689 19.073404 13.992689 1.994424 0 4.022617-0.299829 6.025227-0.932232l75.057463-23.681352 0 115.104551L84.532255 453.956026c-11.048637 0-20.007683 8.870018-20.007683 19.920702 0 127.804804 39.901779 245.476831 112.356974 331.500043 81.137948 96.331999 197.192128 147.249669 335.616804 147.249669s254.475785-50.874691 335.614757-147.205667c72.455195-86.023212 112.359021-203.739241 112.359021-331.544045C960.472128 462.827067 951.514105 453.956026 940.464445 453.956026zM638.06416 453.956026l-62.421678 0L575.642482 228.432643l62.421678-19.694551L638.06416 453.956026zM369.957937 453.956026l0-160.628374 61.398372-19.37221 0 179.99956L369.957937 453.955003zM471.26525 261.364683l64.46829-20.340257 0 212.9316-64.46829 0L471.26525 261.364683zM265.580704 326.259692l64.46829-20.340257 0 148.036591-64.46829 0L265.580704 326.259692zM817.507042 779.642666C744.213759 866.659509 638.743636 912.62847 512.49835 912.62847s-231.717456-45.977147-305.008692-132.995013c-62.631456-74.360592-98.717326-175.25142-102.599749-285.768489l815.217906 0C916.223345 604.382037 880.138498 705.282075 817.507042 779.642666z" p-id="25329" fill="#51c4d3"></path></svg>