<?xml version="1.0" standalone="no"?><!DOCTYPE svg PUBLIC "-//W3C//DTD SVG 1.1//EN" "http://www.w3.org/Graphics/SVG/1.1/DTD/svg11.dtd"><svg t="1622770924017" class="icon" viewBox="0 0 1024 1024" version="1.1" xmlns="http://www.w3.org/2000/svg" p-id="26862" width="64" height="64" xmlns:xlink="http://www.w3.org/1999/xlink"><defs><style type="text/css"></style></defs><path d="M288.182857 679.740952c-4.87619 0-9.752381-1.950476-13.653333-5.851428l-102.4-102.4c-7.801905-7.801905-7.801905-19.992381 0-27.794286 7.801905-7.801905 19.992381-7.801905 27.794286 0l102.4 102.4c7.801905 7.801905 7.801905 19.992381 0 27.794286-4.388571 3.900952-9.264762 5.851429-14.140953 5.851428z" fill="#51c4d3" p-id="26863"></path><path d="M387.657143 952.807619c-3.900952 0-7.801905-0.975238-11.215238-3.900952-8.777143-6.339048-10.727619-18.529524-4.388572-27.306667l64.365715-89.234286c0.487619-0.975238 1.462857-1.462857 1.950476-2.438095l277.455238-277.455238-5.851429-81.92-175.542857-98.499048c-3.413333-1.950476-6.339048-4.87619-8.289524-8.777143l-42.422857-91.184761-296.96 296.96c-0.975238 0.975238-1.950476 1.462857-2.925714 2.438095l-97.036191 65.828571c-8.777143 5.851429-20.967619 3.900952-27.306666-5.363809s-3.900952-20.967619 5.363809-27.306667l95.573334-64.853333L475.91619 224.304762c4.388571-4.388571 10.727619-6.339048 17.066667-5.36381 6.339048 0.975238 11.702857 5.36381 14.140953 11.215238L558.32381 341.333333l179.443809 100.449524c5.851429 3.413333 9.264762 9.264762 9.752381 15.60381l6.826667 100.937143c0.487619 5.851429-1.462857 11.215238-5.851429 15.11619l-282.331428 282.331429-63.390477 88.259047c-3.413333 5.851429-9.264762 8.777143-15.11619 8.777143z" fill="#51c4d3" p-id="26864"></path><path d="M732.891429 540.281905c-4.87619 0-9.752381-1.950476-13.653334-5.851429-7.801905-7.801905-7.801905-19.992381 0-27.794286l175.542857-175.542857c7.314286-7.314286 11.215238-17.066667 11.215238-27.794285s-3.900952-20.48-11.215238-27.794286l-155.550476-155.550476c-7.314286-7.314286-17.066667-11.215238-27.794286-11.215238s-20.48 3.900952-27.794285 11.215238l-164.815238 164.815238c-7.801905 7.801905-19.992381 7.801905-27.794286 0-7.801905-7.801905-7.801905-19.992381 0-27.794286l164.815238-164.815238c14.628571-14.628571 34.133333-22.918095 55.100952-22.918095s40.472381 8.289524 55.100953 22.918095L921.6 248.685714c30.232381 30.232381 30.232381 79.969524 0 110.201905l-175.542857 175.542857c-3.413333 3.900952-8.289524 5.851429-13.165714 5.851429zM390.095238 947.931429c-4.87619 0-9.752381-1.950476-13.653333-5.851429-17.066667-17.066667-20.48-33.158095-22.430476-44.860952-1.950476-9.752381-2.925714-15.60381-11.702858-24.380953-8.777143-8.777143-14.628571-9.752381-24.380952-11.702857-11.702857-1.950476-27.794286-5.36381-44.860952-22.430476-17.066667-17.066667-20.48-33.158095-22.430477-44.860952-1.950476-9.752381-2.925714-15.60381-11.702857-24.380953-8.777143-8.777143-14.628571-9.752381-24.380952-11.702857-11.702857-1.950476-27.794286-5.36381-44.860952-22.430476-17.066667-17.066667-20.48-33.158095-22.430477-44.860953-1.950476-9.752381-2.925714-15.60381-11.702857-24.380952s-14.628571-9.752381-24.380952-11.702857c-11.702857-1.950476-27.794286-5.36381-44.860953-22.430476-7.801905-7.801905-7.801905-19.992381 0-27.794286 7.801905-7.801905 19.992381-7.801905 27.794286 0 8.777143 8.777143 14.628571 9.752381 24.380953 11.702857 11.702857 1.950476 27.794286 5.36381 44.860952 22.430476 17.066667 17.066667 20.48 33.158095 22.430476 44.860953 1.950476 9.752381 2.925714 15.60381 11.702857 24.380952 8.777143 8.777143 14.628571 9.752381 24.380953 11.702857 11.702857 1.950476 27.794286 5.36381 44.860952 22.430476 17.066667 17.066667 20.48 33.158095 22.430476 44.860953 1.950476 9.752381 2.925714 15.60381 11.702857 24.380952 8.777143 8.777143 14.628571 9.752381 24.380953 11.702857 11.702857 1.950476 27.794286 5.36381 44.860952 22.430477 17.066667 17.066667 20.48 33.158095 22.430476 44.860952 1.950476 9.752381 2.925714 15.60381 11.702857 24.380952 7.801905 7.801905 7.801905 19.992381 0 27.794286-4.388571 3.900952-9.264762 5.851429-14.140952 5.851429z" fill="#51c4d3" p-id="26865"></path><path d="M696.807619 229.668571c-6.826667 0-13.165714-3.413333-17.066667-9.752381-8.289524-14.628571-3.413333-33.158095 10.727619-41.447619 14.628571-8.289524 33.158095-3.413333 41.447619 10.727619 5.36381 9.264762 2.438095 21.455238-6.826666 26.819048-3.413333 1.950476-7.314286 2.925714-11.215238 2.438095-1.462857 3.413333-4.388571 6.339048-7.801905 8.289524-2.438095 2.438095-5.851429 2.925714-9.264762 2.925714zM808.472381 438.369524c-5.851429 0-11.215238-2.438095-15.116191-7.314286-17.066667-21.455238-13.653333-52.662857 7.801905-69.729524s52.662857-13.653333 69.729524 7.801905c6.826667 8.289524 5.36381 20.48-2.925714 27.306667-8.289524 6.826667-20.48 5.36381-27.306667-2.925715-3.413333-4.388571-10.24-5.36381-14.628571-1.462857-4.388571 3.413333-5.36381 10.24-1.462857 14.628572 6.826667 8.289524 5.36381 20.48-2.925715 27.306666-4.87619 2.925714-8.777143 4.388571-13.165714 4.388572z" fill="#51c4d3" p-id="26866"></path></svg>