<?xml version="1.0" standalone="no"?><!DOCTYPE svg PUBLIC "-//W3C//DTD SVG 1.1//EN" "http://www.w3.org/Graphics/SVG/1.1/DTD/svg11.dtd"><svg t="1622733609812" class="icon" viewBox="0 0 1024 1024" version="1.1" xmlns="http://www.w3.org/2000/svg" p-id="19696" width="64" height="64" xmlns:xlink="http://www.w3.org/1999/xlink"><defs><style type="text/css"></style></defs><path d="M444.245333 925.525333a21.333333 21.333333 0 1 1 0-42.666666 64.085333 64.085333 0 0 0 64-64 21.333333 21.333333 0 0 1 42.666667 0 106.752 106.752 0 0 1-106.666667 106.666666z" fill="#51c4d3" p-id="19697"></path><path d="M444.245333 925.525333a106.752 106.752 0 0 1-106.666666-106.666666 21.333333 21.333333 0 0 1 42.666666 0 64.085333 64.085333 0 0 0 64 64 21.333333 21.333333 0 0 1 0 42.666666zM529.578667 840.192a21.333333 21.333333 0 0 1-21.333334-21.333333v-259.84a21.333333 21.333333 0 0 1 42.666667 0v259.84a21.333333 21.333333 0 0 1-21.333333 21.333333z" fill="#51c4d3" p-id="19698"></path><path d="M913.578667 567.765333a21.333333 21.333333 0 0 1-21.333334-21.333333 362.666667 362.666667 0 1 0-725.333333 0 21.333333 21.333333 0 0 1-42.666667 0 405.333333 405.333333 0 1 1 810.666667 0 21.333333 21.333333 0 0 1-21.333333 21.333333z" fill="#51c4d3" p-id="19699"></path><path d="M401.578667 567.765333a21.248 21.248 0 0 1-15.061334-6.229333 155.605333 155.605333 0 0 0-225.877333 0 21.333333 21.333333 0 0 1-30.122667-30.165333 195.157333 195.157333 0 0 1 286.165334 0 21.333333 21.333333 0 0 1-15.104 36.394666z" fill="#51c4d3" p-id="19700"></path><path d="M657.578667 567.765333a21.248 21.248 0 0 1-15.061334-6.229333 155.605333 155.605333 0 0 0-225.877333 0 21.333333 21.333333 0 0 1-30.122667-30.165333 195.157333 195.157333 0 0 1 286.165334 0 21.333333 21.333333 0 0 1-15.104 36.394666z" fill="#51c4d3" p-id="19701"></path><path d="M913.578667 567.765333a21.248 21.248 0 0 1-15.061334-6.229333 155.605333 155.605333 0 0 0-225.877333 0 21.333333 21.333333 0 0 1-30.122667-30.165333 195.157333 195.157333 0 0 1 286.165334 0 21.333333 21.333333 0 0 1-15.104 36.394666z" fill="#51c4d3" p-id="19702"></path></svg>