<?xml version="1.0" standalone="no"?><!DOCTYPE svg PUBLIC "-//W3C//DTD SVG 1.1//EN" "http://www.w3.org/Graphics/SVG/1.1/DTD/svg11.dtd"><svg t="1622733588852" class="icon" viewBox="0 0 1094 1024" version="1.1" xmlns="http://www.w3.org/2000/svg" p-id="18429" width="68.375" height="64" xmlns:xlink="http://www.w3.org/1999/xlink"><defs><style type="text/css"></style></defs><path d="M0 1024V943.784855h1094.110986v78.740602zM244.184339 914.293993v-88.472587l45.121019-38.33812h204.371674l33.619583 26.541775h199.948046l29.490862 21.233421h161.904833l48.659923-29.490862V914.293993zM58.981724 842.041381A73.432247 73.432247 0 1 1 131.824154 914.293993 73.727155 73.727155 0 0 1 58.981724 842.041381z m801.266725-63.995171v-139.786687L723.410849 766.839682a38.927938 38.927938 0 0 1-54.853004-1.474543 39.812664 39.812664 0 0 1 1.474543-57.507181l181.368802-166.623371a63.405354 63.405354 0 0 1 12.091254-10.321802 88.472586 88.472586 0 0 1 82.869322-58.981724 98.794388 98.794388 0 0 1 98.794389 98.794388v206.436035z m-459.762541-31.260314v-55.147912l-88.472586-61.340994v-91.126764L265.417759 615.256651l95.255485 74.906789a29.490862 29.490862 0 0 1 5.013447 41.582116 29.490862 29.490862 0 0 1-23.002873 11.206528A29.490862 29.490862 0 0 1 324.399484 737.34882l-112.950002-88.472587a29.490862 29.490862 0 0 1-9.437076-40.697389l77.560967-125.336165a29.490862 29.490862 0 0 1 14.450523-11.796344 43.941385 43.941385 0 0 1 34.2094-16.514883h194.63969a44.236293 44.236293 0 0 1 42.466841 30.965405l76.086425 122.387078a29.490862 29.490862 0 0 1-10.026893 40.992298l-112.655094 88.472587a29.490862 29.490862 0 0 1-41.287207-5.013447 29.490862 29.490862 0 0 1 5.013447-41.582115l95.255485-74.90679L530.835519 541.234587h-3.243995v88.472586L442.362932 691.932892v55.147912z m391.048832-396.947005a92.896216 92.896216 0 1 1 185.792432 0A93.191124 93.191124 0 0 1 884.725865 442.440198a93.191124 93.191124 0 0 1-92.896216-93.191124z m-440.298572 44.826111a98.49948 98.49948 0 0 1-29.490862-69.598435v-9.731985h64.584988a38.927938 38.927938 0 0 0 67.828983 0h63.405354a92.306399 92.306399 0 0 1 0 9.731985 99.089297 99.089297 0 0 1-29.490862 69.598435 97.614754 97.614754 0 0 1-138.312144 0zM391.048832 294.985888a29.490862 29.490862 0 1 1 29.490862 29.490862 29.490862 29.490862 0 0 1-29.490862-29.490862z m63.110445-19.758878a38.927938 38.927938 0 0 0-67.828983 0h-50.724283a97.024936 97.024936 0 0 1 134.183423-35.683943 99.679114 99.679114 0 0 1 35.094126 35.683943zM353.890346 143.107947c-45.121019-15.925066-70.188252-36.863578-70.188252-58.981724s25.067233-43.351567 70.188252-58.981724A530.835519 530.835519 0 0 1 522.578077 0.077266a530.835519 530.835519 0 0 1 169.572458 24.772324c45.121019 15.630157 69.893343 36.863578 69.893343 58.981725s-24.772324 43.351567-69.893343 58.981724a535.848965 535.848965 0 0 1-169.572458 24.477415A534.964239 534.964239 0 0 1 353.890346 143.107947z m193.754964-5.013446c0 5.308355 17.694517 9.731985 38.927938 9.731984s38.927938-4.423629 38.927938-9.731984-17.694517-9.731985-38.927938-9.731985-39.222847 4.423629-39.222846 9.731985z m-147.454311 0c0 5.308355 17.694517 9.731985 38.927938 9.731984s39.222847-4.423629 39.222847-9.731984-17.694517-9.731985-39.222847-9.731985-38.927938 4.423629-38.927938 9.731985z m214.988386-34.504309c0 8.257441 17.694517 15.04034 38.927938 15.04034s39.222847-6.782898 39.222846-15.04034-17.694517-14.745431-39.222846-14.745431-38.927938 6.782898-38.927938 14.745431z m-136.837601 0c0 8.257441 17.694517 15.04034 38.927938 15.04034s38.927938-6.782898 38.927938-15.04034-17.694517-14.745431-38.927938-14.745431-39.222847 6.782898-39.222847 14.745431z m-147.454311 0c0 8.257441 17.694517 15.04034 38.927938 15.04034s38.927938-6.782898 38.927938-15.04034-17.694517-14.745431-38.927938-14.745431-38.927938 6.782898-38.927938 14.745431z m214.988385-34.504309c0 10.911619 17.694517 19.758878 38.927938 19.758878s38.927938-8.847259 38.927939-19.758878-17.694517-19.758878-38.927939-19.758877-39.222847 8.847259-39.222846 19.758877z m-147.45431 0c0 10.911619 17.694517 19.758878 38.927938 19.758878s39.222847-8.847259 39.222846-19.758878-17.694517-19.758878-39.222846-19.758877-38.927938 8.847259-38.927938 19.758877z" p-id="18430" fill="#51c4d3"></path></svg>