<?xml version="1.0" standalone="no"?><!DOCTYPE svg PUBLIC "-//W3C//DTD SVG 1.1//EN" "http://www.w3.org/Graphics/SVG/1.1/DTD/svg11.dtd"><svg t="1622733574425" class="icon" viewBox="0 0 1024 1024" version="1.1" xmlns="http://www.w3.org/2000/svg" p-id="17293" width="64" height="64" xmlns:xlink="http://www.w3.org/1999/xlink"><defs><style type="text/css"></style></defs><path d="M305.066667 665.6l2.133333-32v-2.133333c0-42.666667-14.933333-85.333333-42.666667-123.733334-10.666667-12.8-8.533333-29.866667 2.133334-40.533333 59.733333-66.133333 149.333333-104.533333 247.466666-104.533333s187.733333 38.4 247.466667 104.533333c10.666667 10.666667 10.666667 29.866667 2.133333 42.666667-27.733333 36.266667-44.8 78.933333-44.8 123.733333v34.133333l-25.6-6.4c-115.2-21.333333-245.333333-21.333333-360.533333 0l-27.733333 4.266667z m-4.266667-174.933333c27.733333 38.4 42.666667 81.066667 46.933333 123.733333 104.533333-17.066667 221.866667-17.066667 326.4 0 4.266667-44.8 19.2-87.466667 46.933334-125.866667-51.2-53.333333-128-83.2-209.066667-83.2-83.2 0-157.866667 29.866667-211.2 85.333334z" fill="#51c4d3" p-id="17294"></path><path d="M563.2 533.333333h-102.4c-12.8 0-21.333333-8.533333-21.333333-21.333333s8.533333-21.333333 21.333333-21.333333h102.4c12.8 0 21.333333 8.533333 21.333333 21.333333s-8.533333 21.333333-21.333333 21.333333z" fill="#51c4d3" p-id="17295"></path><path d="M512 586.666667c-12.8 0-21.333333-8.533333-21.333333-21.333334v-104.533333c0-12.8 8.533333-21.333333 21.333333-21.333333s21.333333 8.533333 21.333333 21.333333v104.533333c0 10.666667-8.533333 21.333333-21.333333 21.333334z" fill="#51c4d3" p-id="17296"></path></svg>