<?xml version="1.0" standalone="no"?><!DOCTYPE svg PUBLIC "-//W3C//DTD SVG 1.1//EN" "http://www.w3.org/Graphics/SVG/1.1/DTD/svg11.dtd"><svg t="1622733564683" class="icon" viewBox="0 0 1024 1024" version="1.1" xmlns="http://www.w3.org/2000/svg" p-id="16186" width="64" height="64" xmlns:xlink="http://www.w3.org/1999/xlink"><defs><style type="text/css"></style></defs><path d="M544 288a32 32 0 0 1 32 32v96h64v-96a96 96 0 0 0-96-96v64z" fill="#51c4d3" p-id="16187"></path><path d="M288 326.08C288 200 387.36 96 512 96s224 103.968 224 230.08v371.84C736 824 636.64 928 512 928s-224-103.968-224-230.08V326.08zM512 160c-87.424 0-160 73.408-160 166.08V480h320v-153.92C672 233.44 599.424 160 512 160z m-160 537.92c0 92.672 72.576 166.08 160 166.08s160-73.408 160-166.08V544H352v153.92z" fill="#51c4d3" p-id="16188"></path></svg>