<?xml version="1.0" standalone="no"?><!DOCTYPE svg PUBLIC "-//W3C//DTD SVG 1.1//EN" "http://www.w3.org/Graphics/SVG/1.1/DTD/svg11.dtd"><svg t="1622733622038" class="icon" viewBox="0 0 1024 1024" version="1.1" xmlns="http://www.w3.org/2000/svg" p-id="20079" width="64" height="64" xmlns:xlink="http://www.w3.org/1999/xlink"><defs><style type="text/css"></style></defs><path d="M918.2 210.3c-22.9-53-59.5-86.3-108.8-99-56.5-14.5-126.9-0.8-209.3 40.7-37 18.6-67.8 38.7-86.2 51.4C472.5 169.2 363.5 90 258 105.1c-57.8 8.2-104.9 42.6-140 102.2-36.6 62.2-45.8 131.1-26.5 199.4 16.3 57.5 52 111.6 100.7 152.3 1.9 1.6 3.8 3.1 5.7 4.7 2.3 23.9 7.3 49.9 15.2 78 15.1 53.7 35.1 95.1 35.9 96.9 1.3 2.7 3 5 5 7.1-17 19.6-27.3 45.1-27.3 73.1 0 61.6 50 111.6 111.6 111.6s111.6-50 111.6-111.6S399.8 707 338.2 707c-14.1 0-27.7 2.7-40.1 7.5-1.2-2.6-19.3-40.8-32.6-88.5-2.4-8.5-4.4-16.7-6.2-24.7 58.1 25.5 115.2 22.6 154.3-11 20.8-17.9 34.2-43 37.7-70.7 3.3-25.6-1.9-52.3-14.5-75.2-13.1-23.7-32.8-41.4-57-51.3-26.5-10.8-57.2-11.4-88.8-1.7-38.3 11.8-65.4 35.5-80.7 70.6-4 9.3-7.2 19.2-9.4 29.9-26.8-29.3-46.5-63.9-56.7-99.9-15.2-53.6-7.9-107.8 21-156.8 26.6-45.1 59.4-69.9 100.5-75.8 105-15.1 226.8 97.9 228 99 9.8 9.2 24.8 9.9 35.4 1.7 0.4-0.3 41.1-31.6 95.6-59.1 69.3-34.9 128.4-47.6 171.1-36.6 32.5 8.4 56.1 30.5 72.2 67.8 26.4 60.9 28.7 122.6 6.8 183.4-18 50.2-52.4 100.3-102.1 149.1-86.9 85.3-191.2 136.4-192.2 136.9-13.6 6.6-19.2 22.9-12.7 36.5 6.6 13.6 22.9 19.3 36.5 12.7 4.5-2.2 112.4-55 205.7-146.2 128.2-125.4 165.6-261.7 108.2-394.3zM260.4 483.6c8.7-20 24-33.1 46.6-40.1 51.6-15.9 74.5 13.7 81.9 27.2 12.8 23.1 13.1 57.4-11 78.1-19.8 17-45.7 16.3-64.1 12.8-20.2-3.9-41.7-13.2-62.6-26.8 0.1-20.2 3.1-37.4 9.2-51.2z" p-id="20080" fill="#51c4d3"></path></svg>