<?xml version="1.0" standalone="no"?><!DOCTYPE svg PUBLIC "-//W3C//DTD SVG 1.1//EN" "http://www.w3.org/Graphics/SVG/1.1/DTD/svg11.dtd"><svg t="1622732833442" class="icon" viewBox="0 0 1024 1024" version="1.1" xmlns="http://www.w3.org/2000/svg" p-id="97160" width="64" height="64" xmlns:xlink="http://www.w3.org/1999/xlink"><defs><style type="text/css"></style></defs><path d="M746.666667 170.666667a64 64 0 0 1 64 64v597.333333a64 64 0 0 1-64 64H277.333333a64 64 0 0 1-64-64V234.666667a64 64 0 0 1 64-64h469.333334z m0 618.666666H277.333333v42.666667h469.333334v-42.666667zM341.333333 234.666667h-64v490.666666h469.333334V234.666667h-192v256l-106.666667-47.061334L341.333333 490.666667V234.666667z m149.333334 0h-85.333334v157.802666l42.666667-18.816 42.666667 18.816V234.666667z" p-id="97161" fill="#51c4d3"></path></svg>