<?xml version="1.0" standalone="no"?><!DOCTYPE svg PUBLIC "-//W3C//DTD SVG 1.1//EN" "http://www.w3.org/Graphics/SVG/1.1/DTD/svg11.dtd"><svg t="1622733089055" class="icon" viewBox="0 0 1024 1024" version="1.1" xmlns="http://www.w3.org/2000/svg" p-id="6558" width="64" height="64" xmlns:xlink="http://www.w3.org/1999/xlink"><defs><style type="text/css"></style></defs><path d="M420.8 204a91.2 91.2 0 0 1 182.4 0v48a91.2 91.2 0 1 1-182.4 0v-48z m91.2-52.8a52.8 52.8 0 0 0-52.8 52.8v48a52.8 52.8 0 0 0 105.6 0v-48a52.8 52.8 0 0 0-52.8-52.8zM120.8 368a79.2 79.2 0 1 1 158.4 0v52a79.2 79.2 0 1 1-158.4 0V368z m79.2-40.8A40.8 40.8 0 0 0 159.2 368v52a40.8 40.8 0 1 0 81.6 0V368a40.8 40.8 0 0 0-40.8-40.8zM222.624 579.2a63.424 63.424 0 0 0-63.424 63.424v87.84c0 28.896 5.632 57.52 16.576 84.272l-35.552 14.528a260.96 260.96 0 0 1-19.424-98.8v-87.84a101.824 101.824 0 0 1 101.824-101.824h12.688c18.512 0 35.568 10.032 44.544 26.224l31.776 57.2a12.8 12.8 0 0 0 11.2 6.576h58.48c26.56 0 43.712 28.064 31.616 51.712l-2.912 5.696a123.04 123.04 0 0 1-109.52 66.992 93.36 93.36 0 0 1-80.544-46.144l-12.512-21.344a19.2 19.2 0 0 1 33.12-19.424l12.512 21.344a54.96 54.96 0 0 0 47.424 27.168 84.64 84.64 0 0 0 75.344-46.08l0.768-1.52h-53.776a51.2 51.2 0 0 1-44.752-26.336l-31.792-57.2a12.56 12.56 0 0 0-10.976-6.464h-12.688zM903.2 368a79.2 79.2 0 0 0-158.4 0v52a79.2 79.2 0 0 0 158.4 0V368z m-79.2-40.8A40.8 40.8 0 0 1 864.8 368v52a40.8 40.8 0 0 1-81.6 0V368a40.8 40.8 0 0 1 40.8-40.8zM801.376 579.2a63.424 63.424 0 0 1 63.424 63.424v87.84a222.56 222.56 0 0 1-16.576 84.272l35.552 14.528a260.96 260.96 0 0 0 19.424-98.8v-87.84a101.824 101.824 0 0 0-101.824-101.824h-12.688a50.976 50.976 0 0 0-44.544 26.224l-31.776 57.2a12.8 12.8 0 0 1-11.2 6.576H642.72c-26.56 0-43.728 28.064-31.632 51.712l2.912 5.696a123.04 123.04 0 0 0 109.52 66.992 93.36 93.36 0 0 0 80.544-46.144l12.512-21.344a19.2 19.2 0 1 0-33.12-19.424l-12.512 21.344a54.96 54.96 0 0 1-47.424 27.168 84.64 84.64 0 0 1-75.344-46.08l-0.768-1.52h53.776a51.2 51.2 0 0 0 44.768-26.336l31.776-57.2a12.56 12.56 0 0 1 10.976-6.464h12.688z" p-id="6559" fill="#51c4d3"></path><path d="M380.8 436a131.2 131.2 0 0 1 262.4 0v56a19.2 19.2 0 0 1-19.2 19.2H400a19.2 19.2 0 0 1-19.2-19.2v-56z m131.2-92.8a92.8 92.8 0 0 0-92.8 92.8v36.8h185.6v-36.8a92.8 92.8 0 0 0-92.8-92.8z" p-id="6560" fill="#51c4d3"></path><path d="M295.552 512.448a51.2 51.2 0 0 1 49.888-39.648h329.12a51.2 51.2 0 0 1 49.888 39.648 19.2 19.2 0 1 1-37.408 8.656 12.8 12.8 0 0 0-12.48-9.904H345.44a12.8 12.8 0 0 0-12.48 9.92 19.2 19.2 0 1 1-37.408-8.672z m-41.216 279.12a19.2 19.2 0 0 1 14.368 23.04l-8.912 38.512a12.8 12.8 0 0 0 12.48 15.68h475.472a12.8 12.8 0 0 0 12.48-15.68l-8.928-38.512a19.2 19.2 0 0 1 37.408-8.672l8.912 38.512a51.2 51.2 0 0 1-49.872 62.752H272.256a51.2 51.2 0 0 1-49.872-62.752l8.912-38.512a19.2 19.2 0 0 1 23.04-14.368z" p-id="6561" fill="#51c4d3"></path></svg>