<?xml version="1.0" standalone="no"?><!DOCTYPE svg PUBLIC "-//W3C//DTD SVG 1.1//EN" "http://www.w3.org/Graphics/SVG/1.1/DTD/svg11.dtd"><svg t="1622734126302" class="icon" viewBox="0 0 1024 1024" version="1.1" xmlns="http://www.w3.org/2000/svg" p-id="38555" width="64" height="64" xmlns:xlink="http://www.w3.org/1999/xlink"><defs><style type="text/css"></style></defs><path d="M527.51895 47.307446c-247.270686 0-447.724091 200.454428-447.724091 447.724091 0 247.273756 200.453405 447.724091 447.724091 447.724091 247.27171 0 447.724091-200.452381 447.724091-447.724091C975.244065 247.76085 774.79066 47.307446 527.51895 47.307446zM414.611437 632.240525c0 0-1.705851 75.724659-15.349593 129.619126 0 0-43.319621-72.313979-127.913275-91.756797 0 0 35.815717-115.292839 109.493763-107.447151C418.704662 575.617923 414.611437 632.240525 414.611437 632.240525zM606.308411 735.237317c0 16.019859-12.985756 29.007661-29.007661 29.007661l-105.032148 0c-16.020882 0-29.008684-12.985756-29.008684-29.007661l0-5.77247c0-16.018835 12.986779-29.007661 29.008684-29.007661l105.032148 0c16.019859 0 29.007661 12.986779 29.007661 29.007661L606.308411 735.237317zM467.971739 547.168987c0 0 20.303418 26.252921 46.556339 43.754526 0 0 14.219863 9.572006 5.469572 21.603017-8.751315 12.033058-47.421033 16.253172-69.734224-27.542286C428.112939 541.509081 459.975625 534.043039 467.971739 547.168987zM599.307973 584.984245c-22.313192 43.795459-60.98291 39.575344-69.734224 27.542286-8.751315-12.032034 5.469572-21.603017 5.469572-21.603017 26.251897-17.501606 46.555315-43.754526 46.555315-43.754526C589.594751 534.043039 621.458459 541.509081 599.307973 584.984245zM589.915046 509.550205c-0.39295 0.192382-0.780783 0.393973-1.174756 0.582261-20.269649 9.727549-41.808198 14.657838-64.022129 14.657838s-43.754526-4.931313-64.023152-14.657838c-0.36225-0.173962-0.722454-0.360204-1.084705-0.536212-13.228279 13.129019-60.283991 51.315736-106.85568-14.563694 0 0-29.509081-59.267848 21.656229-121.006981 0.007163 0.040932 0.01535 0.080841 0.021489 0.12075-1.843998-10.776438-2.822278-21.903869-2.822278-33.292244 0-95.934956 68.549236-173.706227 153.107073-173.706227 84.558861 0 153.107073 77.771271 153.107073 173.706227 0 9.698896-1.318018 23.906479-2.664689 33.172517 51.16531 61.739133 21.657252 121.006981 21.657252 121.006981C650.189827 560.989761 603.080903 522.637268 589.915046 509.550205zM654.194024 761.859651c-13.643742-53.894468-15.349593-129.619126-15.349593-129.619126s-4.092201-56.622602 33.770128-69.584821c73.678046-7.845689 109.49274 107.447151 109.49274 107.447151C697.514669 689.545672 654.194024 761.859651 654.194024 761.859651z" p-id="38556" fill="#51c4d3"></path><path d="M574.981938 286.360983c0 0-62.140269 113.707738-200.273303 89.311095 14.21577 79.243809 75.963089 138.886187 150.008502 138.886187 74.55809 0 136.65845-60.468187 150.307308-140.53371l0.104377 0.534166c0.022513-0.349971 0.031722-0.534166 0.031722-0.534166C660.783093 371.918591 612.159676 355.097484 574.981938 286.360983z" p-id="38557" fill="#51c4d3"></path></svg>