<?xml version="1.0" standalone="no"?><!DOCTYPE svg PUBLIC "-//W3C//DTD SVG 1.1//EN" "http://www.w3.org/Graphics/SVG/1.1/DTD/svg11.dtd"><svg t="1623146947452" class="icon" viewBox="0 0 1024 1024" version="1.1" xmlns="http://www.w3.org/2000/svg" p-id="2595" xmlns:xlink="http://www.w3.org/1999/xlink" width="64" height="64"><defs><style type="text/css"></style></defs><path d="M341.5 447.8c-75 0-136-61-136-136s61-136 136-136 136 61 136 136-61 136-136 136z m0-208c-39.7 0-72 32.3-72 72s32.3 72 72 72 72-32.3 72-72-32.3-72-72-72zM685.3 452.8c-75 0-136-61-136-136s61-136 136-136 136 61 136 136-61 136-136 136z m0-208c-39.7 0-72 32.3-72 72s32.3 72 72 72 72-32.3 72-72-32.3-72-72-72zM96.1 756.2c-17.7 0-32-14.3-32-32 0-73.7 28.7-143 80.8-195.1C197 477 266.3 448.3 340 448.3c42.9 0 84 9.6 122.2 28.5 15.8 7.8 22.3 27 14.5 42.9s-27 22.3-42.9 14.5c-29.3-14.5-60.9-21.9-93.8-21.9-116.8 0-211.9 95.1-211.9 211.9 0 17.7-14.3 32-32 32zM927.7 761.2c-17.7 0-32-14.3-32-32 0-116.8-95.1-211.9-211.9-211.9-32.9 0-64.3 7.3-93.5 21.7-15.9 7.8-35 1.3-42.9-14.5-7.8-15.9-1.3-35 14.5-42.9 38.1-18.8 79.1-28.3 121.8-28.3 73.7 0 143 28.7 195.1 80.8 52.1 52.1 80.8 121.4 80.8 195.1 0.1 17.7-14.2 32-31.9 32z" fill="#51C4D3" p-id="2596"></path><path d="M511 629.4c-54.5 0-98.9-44.4-98.9-98.9s44.4-98.9 98.9-98.9 98.9 44.4 98.9 98.9-44.4 98.9-98.9 98.9z m0-133.8c-19.2 0-34.9 15.7-34.9 34.9s15.7 34.9 34.9 34.9 34.9-15.7 34.9-34.9-15.7-34.9-34.9-34.9zM666.1 849.2c-17.7 0-32-14.3-32-32 0-67.9-55.2-123.1-123.1-123.1-67.9 0-123.1 55.2-123.1 123.1 0 17.7-14.3 32-32 32s-32-14.3-32-32c0-103.2 83.9-187.1 187.1-187.1 103.2 0 187.1 83.9 187.1 187.1 0 17.7-14.3 32-32 32z" fill="#51C4D3" p-id="2597"></path></svg>