<?xml version="1.0" standalone="no"?><!DOCTYPE svg PUBLIC "-//W3C//DTD SVG 1.1//EN" "http://www.w3.org/Graphics/SVG/1.1/DTD/svg11.dtd"><svg t="1622734048696" class="icon" viewBox="0 0 1024 1024" version="1.1" xmlns="http://www.w3.org/2000/svg" p-id="34532" width="64" height="64" xmlns:xlink="http://www.w3.org/1999/xlink"><defs><style type="text/css"></style></defs><path d="M127.98 577.87c0-106.022 42.974-202.007 112.453-271.487l203.615-203.615c37.485-37.484 98.26-37.484 135.744 0l203.615 203.615c69.48 69.48 112.453 165.465 112.453 271.487 0 212.044-171.896 383.94-383.94 383.94S127.98 789.914 127.98 577.87z m361.316-429.854L285.681 351.631c-59.656 59.657-93.711 140.17-93.711 226.239 0 176.703 143.246 319.95 319.95 319.95 176.704 0 319.95-143.247 319.95-319.95 0-86.068-34.055-166.582-93.711-226.239L534.544 148.016c-12.495-12.495-32.753-12.495-45.248 0zM725.211 575.91c0.006 0.653 0.009 1.306 0.009 1.96 0 117.802-95.498 213.3-213.3 213.3v-63.99c82.462 0 149.31-66.848 149.31-149.31 0-0.654-0.004-1.308-0.013-1.96h63.994z" p-id="34533" fill="#51c4d3"></path></svg>