<?xml version="1.0" standalone="no"?><!DOCTYPE svg PUBLIC "-//W3C//DTD SVG 1.1//EN" "http://www.w3.org/Graphics/SVG/1.1/DTD/svg11.dtd"><svg t="1622733848723" class="icon" viewBox="0 0 1024 1024" version="1.1" xmlns="http://www.w3.org/2000/svg" p-id="30427" width="64" height="64" xmlns:xlink="http://www.w3.org/1999/xlink"><defs><style type="text/css"></style></defs><path d="M923.304512 287.576565H673.280971V63.152704A62.292555 62.292555 0 0 0 610.988416 0.006827H110.088011A66.559168 66.559168 0 0 0 42.67552 63.152704v897.695445a62.292555 62.292555 0 0 0 62.292555 63.145878h813.216501a61.439232 61.439232 0 0 0 62.292555-63.145878V350.722443a58.025941 58.025941 0 0 0-57.172619-63.145878z m-630.605451 546.126507H168.113952V707.411317h124.585109v126.291755z m0-255.9968H168.113952V448.854549h124.585109v126.291755z m0-255.9968H168.113952V190.297781h124.585109v131.411691z m224.423862 511.9936H391.684491V707.411317h125.438432v126.291755z m0-255.9968H391.684491V448.854549h125.438432v126.291755z m0-255.9968H391.684491V190.297781h125.438432z m341.329066 511.9936H735.573525V707.411317h125.438432v126.291755z m0-255.9968H735.573525V448.854549h125.438432v126.291755z" fill="#51c4d3" p-id="30428"></path></svg>