<?xml version="1.0" standalone="no"?><!DOCTYPE svg PUBLIC "-//W3C//DTD SVG 1.1//EN" "http://www.w3.org/Graphics/SVG/1.1/DTD/svg11.dtd"><svg t="1622733877555" class="icon" viewBox="0 0 1025 1024" version="1.1" xmlns="http://www.w3.org/2000/svg" p-id="31514" width="64.0625" height="64" xmlns:xlink="http://www.w3.org/1999/xlink"><defs><style type="text/css"></style></defs><path d="M1021.6 467.2l-68.5-273.7c-4.1-17.5-21.6-35-39.2-39.2l-75.8-19.1c13.9 7.2 25.8 21.1 29.4 35.6L936 444.5c8.8 35-5.2 84-29.9 109.3l-368 368c-13.9 13.9-30.9 22.7-48.4 26.3 38.1 34.5 97.4 33.5 134.5-3.6l368-368c24.8-25.3 38.2-74.3 29.4-109.3z m0 0" fill="#51c4d3" p-id="31515"></path><path d="M398 85.8c25.3-25.3 74.2-38.7 109.3-29.9L781 124.5c17.5 4.1 35 21.6 39.2 39.2l68.5 273.7c8.8 35-5.1 84-29.9 109.3l-368 368c-38.1 38.1-100 38.1-138.1 0.5L29.5 591.9c-38.1-38.1-38.1-100 0.5-138.1l368-368z m229.9 229.9c25.3 25.3 66.5 25.3 92.3 0 25.3-25.3 25.3-66.5 0-92.2-25.3-25.8-66.5-25.3-92.3 0-25.3 25.7-25.3 66.9 0 92.2z m0 0" fill="#51c4d3" p-id="31516"></path></svg>