<?xml version="1.0" standalone="no"?><!DOCTYPE svg PUBLIC "-//W3C//DTD SVG 1.1//EN" "http://www.w3.org/Graphics/SVG/1.1/DTD/svg11.dtd"><svg t="1622733731460" class="icon" viewBox="0 0 1024 1024" version="1.1" xmlns="http://www.w3.org/2000/svg" p-id="22490" width="64" height="64" xmlns:xlink="http://www.w3.org/1999/xlink"><defs><style type="text/css"></style></defs><path d="M981.333333 234.666667a192 192 0 1 0-318.72 144l42.666667 474.666666h53.12a96 96 0 0 0 11.306667 52.266667c13.44 27.093333 3.84 39.253333 3.84 39.253333l30.293333 30.293334c11.946667-11.946667 26.24-44.16 3.84-88.746667A49.066667 49.066667 0 0 1 802.133333 853.333333h70.613334l42.666666-474.666666A192 192 0 0 0 981.333333 234.666667z m-192 149.333333a149.333333 149.333333 0 0 1-134.613333-85.333333h269.226667A149.333333 149.333333 0 0 1 789.333333 384z m0-298.666667a149.333333 149.333333 0 0 1 149.333334 149.333334 141.44 141.44 0 0 1-1.706667 21.333333H641.706667a141.44 141.44 0 0 1-1.706667-21.333333 149.333333 149.333333 0 0 1 149.333333-149.333334z m44.586667 725.333334h-89.173333L708.266667 408.533333a190.293333 190.293333 0 0 0 162.133333 0z" p-id="22491" fill="#51c4d3"></path><path d="M768 469.333333h42.666667v85.333334h-42.666667zM385.493333 324.266667l21.333334-260.266667h-174.08l21.333333 264.32C122.24 357.973333 42.666667 467.413333 42.666667 629.333333 42.666667 820.053333 152.96 938.666667 330.666667 938.666667S618.666667 820.053333 618.666667 629.333333c0-170.24-88.106667-282.666667-233.173334-305.066666z m-88.533333-4.266667l-17.706667-213.333333h81.493334l-17.706667 213.333333z m33.706667 42.666667c104.32 0 180.053333 46.08 218.026666 128H112.64c37.973333-81.92 113.706667-128 218.026667-128z m0 533.333333C177.066667 896 85.333333 796.373333 85.333333 629.333333a362.666667 362.666667 0 0 1 12.16-96h466.346667a362.666667 362.666667 0 0 1 12.16 96C576 796.373333 484.266667 896 330.666667 896z" p-id="22492" fill="#51c4d3"></path></svg>