<?xml version="1.0" standalone="no"?><!DOCTYPE svg PUBLIC "-//W3C//DTD SVG 1.1//EN" "http://www.w3.org/Graphics/SVG/1.1/DTD/svg11.dtd"><svg t="1623147521690" class="icon" viewBox="0 0 1024 1024" version="1.1" xmlns="http://www.w3.org/2000/svg" p-id="4736" xmlns:xlink="http://www.w3.org/1999/xlink" width="64" height="64"><defs><style type="text/css"></style></defs><path d="M958.44124445 452.47146667c0-42.33671111-30.32177778-77.40302222-70.03022223-84.49137778-9.68248889-42.98524445-26.86293333-84.34346667-50.50595555-121.6512 23.30168889-33.10933333 20.03626667-79.51928889-9.97831112-109.54524444-30.01457778-30.01457778-76.47004445-33.28-109.57937777-9.95555556-37.64906667-23.89333333-78.44977778-40.83484445-121.78773333-50.44906667-6.87217778-39.94737778-42.02951111-70.5536-84.5368889-70.5536-42.57564445 0-77.76711111 30.69724445-84.55964444 70.74702223-42.99662222 9.63697778-83.49013333 26.44195555-120.82062222 50.10773333-14.39288889-10.17173333-31.55057778-15.57617778-49.70951111-15.79235556-22.66453333 0.26168889-44.05475555 9.3184-60.19982223 25.47484445-30.11697778 30.11697778-33.29137778 76.72035555-9.75075555 109.85244444a385.31413333 385.31413333 0 0 0-50.40355555 121.10506667c-40.07253333 6.76977778-70.79253333 41.96124445-70.79253334 84.54826667 0 42.47324445 30.52657778 77.60782222 70.41706667 84.53688888 9.56871111 42.93973333 26.61262222 84.29795555 50.08497777 121.57155556-10.12622222 14.31324445-15.65582222 31.3344-15.45102222 49.36817778 0.26168889 22.66453333 9.29564445 44.05475555 25.45208889 60.19982222 16.93013333 16.93013333 39.1168 25.42933333 61.20106667 25.42933333 16.93013333 0 33.71235555-5.17688889 48.08248889-15.18933333 13.19822222 8.3968 26.88568889 15.96302222 40.99413333 22.68728889L282.40782222 963.92533333h-42.63253333c-15.06417778 0-27.26115555 12.20835555-27.26115556 27.26115556s12.19697778 27.26115555 27.26115556 27.26115556h128.45511111c15.06417778 0 27.26115555-12.20835555 27.26115555-27.26115556s-12.19697778-27.26115555-27.26115555-27.26115556H340.992l56.32-143.49653333c9.97831111 3.12888889 20.04764445 5.95057778 30.24213333 8.24888889 7.168 39.60604445 42.21155555 69.82542222 84.45724445 69.82542222 42.22293333 0 77.25511111-30.18524445 84.45724444-69.74577778 10.21724445-2.28693333 20.36622222-4.89244445 30.37866667-8.02133333l56.20622222 143.18933333H655.81511111c-15.06417778 0-27.26115555 12.20835555-27.26115556 27.26115556s12.19697778 27.26115555 27.26115556 27.26115556h128.45511111c15.06417778 0 27.26115555-12.20835555 27.26115556-27.26115556s-12.19697778-27.26115555-27.26115556-27.26115556h-42.62115555l-64.03413334-163.13457778c14.04017778-6.66737778 27.68213333-14.1312 40.80071112-22.4256 14.32462222 9.92142222 31.0272 15.04142222 47.88906666 15.04142223 22.08426667 0 44.27093333-8.4992 61.21244444-25.42933333 16.15644445-16.15644445 25.20177778-37.53528889 25.46346667-60.19982223 0.2048-17.80622222-5.15413333-34.65671111-15.03004444-48.85617777 23.98435555-37.71733333 40.98275555-78.58631111 50.61973333-121.96977778 39.61742222-7.13386667 69.87093333-42.1888 69.87093334-84.48zM768 622.80817778c-13.44853333 0.15928889-26.29404445 3.75466667-38.01315555 9.75075555L611.13457778 513.70666667c6.89493333-10.02382222 12.31075555-21.11715555 15.91751111-33.00693334h167.13955556c7.0656 20.50275555 21.45848889 37.28497778 40.10666666 47.37706667-8.14648889 35.04355555-21.90222222 68.13013333-41.02826666 98.85013333-8.07822222-2.40071111-16.46364445-4.02773333-25.27004445-4.11875555z m-474.68088889 9.12497777c-19.52426667-9.77351111-41.6768-11.68497778-62.1568-5.74577777-19.06915555-30.76551111-32.768-63.86346667-40.81208889-98.95253333 18.83022222-10.33102222 33.22311111-27.53422222 40.07253333-48.45795556h166.07004445c3.51573333 12.288 8.84053333 23.80231111 15.83786667 34.14471111l-119.01155556 119.01155555z m-38.08142222-350.43555555c13.52817778 0 26.95395555-3.584 39.34435556-9.94417778l113.69813333 113.69813333c-6.95182222 11.86702222-11.93528889 24.99697778-14.47253333 39.00302223h-163.61244445c-6.92906667-20.57102222-21.20817778-37.4784-39.78808889-47.69564445a331.14453333 331.14453333 0 0 1 41.15342222-98.80462222c7.73688889 2.24142222 15.65582222 3.74328889 23.67715556 3.74328889z m229.52391111-111.12675555v158.37866666c-14.1312 3.28817778-27.32942222 9.0112-39.07128889 16.80497778l-112.87893333-112.87893334c5.59786667-11.40053333 8.93155555-23.82506667 9.07946667-36.81848888 0.1024-8.36266667-1.38808889-16.39537778-3.60675556-24.17777778 30.59484445-19.03502222 63.60177778-32.72248889 98.59982222-40.8576 10.30826667 18.52302222 27.26115555 32.71111111 47.87768889 39.54915556z m102.47964445-39.71982223c35.21422222 8.11235555 68.42595555 21.86808889 99.23697777 41.02826667-2.29831111 7.90755555-3.83431111 16.08817778-3.73191111 24.59875556 0.15928889 13.75573333 3.90257778 26.86293333 10.14897778 38.78684444l-112.16213334 112.15075556a119.78069333 119.78069333 0 0 0-41.46062222-18.47751112v-158.37866666c20.6848-6.84942222 37.67182222-21.10577778 47.96871112-39.70844445z m206.21084444 147.41048889c18.89848889 30.43555555 32.90453333 63.88622222 41.09653333 98.66808889-19.34222222 10.38791111-34.0992 27.98933333-40.93724444 49.43644445H630.53368889c-2.26417778-13.71022222-6.73564445-26.65813333-13.23235556-38.4l114.75626667-114.75626667c11.83288889 5.71164445 24.55324445 8.9088 37.36462222 8.9088 8.14648889 0 16.19057778-1.536 24.02986667-3.85706667z m-281.42933334 101.97902222c36.23822222 0 65.72942222 29.47982222 65.72942223 65.72942222 0 36.22684445-29.47982222 65.70666667-65.72942223 65.70666667s-65.72942222-29.47982222-65.72942222-65.70666667c0-36.2496 29.47982222-65.72942222 65.72942222-65.72942222z m391.89617778 72.43093334c0 17.36248889-13.5168 31.47093333-30.12835555 31.47093333s-30.12835555-14.10844445-30.12835556-31.47093333 13.5168-31.47093333 30.12835556-31.47093334 30.12835555 14.10844445 30.12835555 31.47093334z m-158.09422222-278.07288889c5.5296-5.51822222 12.93653333-8.55608889 20.91235556-8.55608889h0.36408888c8.33991111 0.1024 16.25884445 3.4816 22.28906667 9.50044444 6.03022222 6.03022222 9.39804445 13.93777778 9.48906667 22.28906667 0.1024 8.0896-2.93546667 15.65582222-8.54471111 21.26506667-11.75324445 11.75324445-31.27751111 11.32088889-43.55413333-0.95573334-6.03022222-6.03022222-9.38666667-13.93777778-9.48906667-22.27768888-0.11377778-8.11235555 2.92408889-15.65582222 8.53333333-21.26506667zM512.02275555 60.35911111c17.35111111 0 31.45955555 13.52817778 31.45955556 30.13973334 0 16.61155555-14.10844445 30.11697778-31.45955556 30.11697777-17.35111111 0-31.45955555-13.50542222-31.45955555-30.11697777s14.10844445-30.13973333 31.45955555-30.13973334zM235.26968889 174.91057778c6.03022222-6.01884445 13.93777778-9.38666667 22.28906666-9.50044445h0.3640889c7.96444445 0 15.37137778 3.03786667 20.8896 8.55608889l0.02275555 0.02275556c5.59786667 5.58648889 8.63573333 13.12995555 8.53333333 21.24231111-0.09102222 8.33991111-3.47022222 16.25884445-9.48906666 22.28906666-12.288 12.24248889-31.81226667 12.65208889-43.54275556 0.94435556-11.75324445-11.74186667-11.32088889-31.28888889 0.93297778-43.55413333zM120.30862222 451.86844445c0-17.33973333 13.5168-31.44817778 30.12835556-31.44817778 16.60017778 0 30.11697778 14.10844445 30.11697777 31.44817778 0 17.36248889-13.5168 31.47093333-30.11697777 31.47093333-16.61155555 0-30.12835555-14.10844445-30.12835556-31.47093333z m114.54008889 277.1399111c-6.03022222-6.03022222-9.39804445-13.93777778-9.50044444-22.28906666-0.09102222-8.0896 2.94684445-15.63306667 8.54471111-21.24231111 5.5296-5.51822222 12.93653333-8.55608889 20.91235555-8.55608889h0.36408889c8.33991111 0.1024 16.25884445 3.4816 22.28906667 9.50044444 12.26524445 12.26524445 12.68622222 31.80088889 0.95573333 43.54275556-11.76462222 11.73048889-31.30026667 11.32088889-43.56551111-0.95573334z m102.62755556 4.43733334c6.21226667-20.69617778 4.34631111-43.20142222-5.58648889-62.976l108.16853333-108.17991111-73.54595556 187.38062222c-9.95555555-4.89244445-19.61528889-10.36515555-29.03608888-16.22471111z m147.28533333-135.7824v136.30577778c-21.04888889 6.98595555-38.2976 21.64053333-48.52622222 40.74382222-6.37155555-1.50186667-12.6976-3.20853333-18.96675556-5.09724444l67.49297778-171.95235556z m27.26115555 246.31751111c-17.35111111 0-31.45955555-13.52817778-31.45955555-30.13973333 0-16.61155555 14.10844445-30.11697778 31.45955555-30.11697778 17.35111111 0 31.45955555 13.50542222 31.45955556 30.11697778s-14.10844445 30.13973333-31.45955556 30.13973333z m75.66222223-69.48408889c-10.24-19.00088889-27.43182222-33.56444445-48.41244445-40.52764444v-136.30577778l67.57262222 172.14577778c-6.26915555 1.85457778-12.74311111 3.19715555-19.16017777 4.68764444z m-2.83306667-209.97688889l106.81457778 106.82595556c-9.71662222 19.63804445-11.49155555 41.91573333-5.35893334 62.44124444-9.35253333 5.81404445-18.95537778 11.07057778-28.7744 15.88337778l-72.68124444-185.15057778zM788.94648889 729.42933333c-12.25386667 12.26524445-31.78951111 12.70897778-43.55413334 0.95573334-11.74186667-11.75324445-11.30951111-31.28888889 0.94435556-43.55413334 6.03022222-6.01884445 13.93777778-9.38666667 22.28906667-9.50044444 8.14648889-0.35271111 15.64444445 2.94684445 21.27644444 8.56746666 5.59786667 5.58648889 8.63573333 13.12995555 8.53333333 21.24231112-0.09102222 8.35128889-3.45884445 16.25884445-9.48906666 22.28906666z" fill="#51C4D3" p-id="4737"></path></svg>