<?xml version="1.0" standalone="no"?><!DOCTYPE svg PUBLIC "-//W3C//DTD SVG 1.1//EN" "http://www.w3.org/Graphics/SVG/1.1/DTD/svg11.dtd"><svg t="1622733888539" class="icon" viewBox="0 0 1024 1024" version="1.1" xmlns="http://www.w3.org/2000/svg" p-id="31923" width="64" height="64" xmlns:xlink="http://www.w3.org/1999/xlink"><defs><style type="text/css"></style></defs><path d="M213.588822 929.775649C213.588822 946.256443 223.609065 959.616766 235.969661 959.616766 248.330256 959.616766 258.350499 946.256443 258.350499 929.775649L258.350499 94.224351C258.350499 77.743557 248.330256 64.383234 235.969661 64.383234 223.609065 64.383234 213.588822 77.743557 213.588822 94.224351L213.588822 929.775649Z" p-id="31924" fill="#51c4d3"></path><path d="M258.350499 467.238323 789.13101 467.238323C788.37001 468.164802 787.005321 468.645968 785.500277 469.325327 779.145766 472.193677 773.248048 477.540347 769.492759 485.078987 765.703819 492.685179 764.987823 500.748004 766.585738 507.679329 766.971501 509.352666 767.435803 510.784722 767.93771 512L657.46341 368.914686C635.228902 339.913508 635.158911 296.243252 657.46341 267.150783L767.163493 124.065469C767.417025 125.290417 766.947105 126.731084 766.5583 128.411468 764.972184 135.266519 765.652846 143.240963 769.36047 150.797784 773.0711 158.360731 778.961862 163.768392 785.346002 166.682598 786.907203 167.395249 788.32267 167.895881 789.586426 168.233132L258.350499 168.827146 258.350499 168.827146M805.362615 147.655745 692.824758 294.442458C682.836081 307.471008 682.945782 328.737548 692.824758 341.623011L805.362615 488.409724C815.351293 501.438274 810.037287 512 793.664185 512L258.350499 512 258.350499 124.065469 793.664185 124.065469C810.113727 124.065469 815.241592 134.770282 805.362615 147.655745Z" p-id="31925" fill="#51c4d3"></path></svg>