<?xml version="1.0" standalone="no"?><!DOCTYPE svg PUBLIC "-//W3C//DTD SVG 1.1//EN" "http://www.w3.org/Graphics/SVG/1.1/DTD/svg11.dtd"><svg t="1622733806972" class="icon" viewBox="0 0 1024 1024" version="1.1" xmlns="http://www.w3.org/2000/svg" p-id="28154" width="64" height="64" xmlns:xlink="http://www.w3.org/1999/xlink"><defs><style type="text/css"></style></defs><path d="M748.4928 587.6224v176.7936l179.8656 56.1152c20.3264 6.3488 40.96-8.8576 40.96-30.1568V560.128c0-21.4016-20.8384-36.608-41.216-30.0544l-179.6096 57.5488z" fill="#51c4d3" p-id="28155"></path><path d="M261.3248 266.9568m-134.5024 0a134.5024 134.5024 0 1 0 269.0048 0 134.5024 134.5024 0 1 0-269.0048 0Z" fill="#51c4d3" p-id="28156"></path><path d="M547.0208 244.736m-144.8448 0a144.8448 144.8448 0 1 0 289.6896 0 144.8448 144.8448 0 1 0-289.6896 0Z" fill="#51c4d3" p-id="28157"></path><path d="M690.7904 919.7056H145.8688c-45.2608 0-81.92-36.6592-81.92-81.92v-325.0176c0-45.2608 36.6592-81.92 81.92-81.92h544.9216c45.2608 0 81.92 36.6592 81.92 81.92v325.0176c0 45.2096-36.7104 81.92-81.92 81.92z" fill="#51c4d3" p-id="28158"></path></svg>