<?xml version="1.0" standalone="no"?><!DOCTYPE svg PUBLIC "-//W3C//DTD SVG 1.1//EN" "http://www.w3.org/Graphics/SVG/1.1/DTD/svg11.dtd"><svg t="1622733787862" class="icon" viewBox="0 0 1070 1024" version="1.1" xmlns="http://www.w3.org/2000/svg" p-id="26725" width="66.875" height="64" xmlns:xlink="http://www.w3.org/1999/xlink"><defs><style type="text/css"></style></defs><path d="M718.127767 1024H352.829855a352.991777 352.991777 0 0 1 0-705.821632h365.297912a352.991777 352.991777 0 0 1 0 705.821632zM352.829855 415.332068a255.838077 255.838077 0 0 0 0 511.514232h365.297912a255.838077 255.838077 0 0 0 0-511.514232z" p-id="26726" fill="#51c4d3"></path><path d="M362.707147 822.891841a151.883618 151.883618 0 1 1 151.883618-151.721696 151.883618 151.883618 0 0 1-151.883618 151.721696z m0-206.451613a54.729918 54.729918 0 1 0 54.729918 54.729917 54.729918 54.729918 0 0 0-54.729918-54.729917zM727.681214 822.891841a48.57685 48.57685 0 0 1-48.57685-48.57685V567.863378a48.57685 48.57685 0 1 1 97.153701 0v206.451613a48.57685 48.57685 0 0 1-48.576851 48.57685z" p-id="26727" fill="#51c4d3"></path><path d="M830.826059 719.746996H624.374447a48.57685 48.57685 0 0 1 0-97.153701h206.451612a48.57685 48.57685 0 0 1 0 97.153701zM535.478811 415.332068a48.57685 48.57685 0 0 1-48.57685-48.57685v-64.769133c-57.15876-16.192283-123.385199-61.530677-123.385199-157.71284C363.516762 45.176471 453.383934 0 535.478811 0a48.57685 48.57685 0 0 1 0 97.1537c-71.246047 0-74.808349 39.185326-74.808349 46.957622 0 62.987982 69.302973 68.493359 77.237191 68.817204l46.148008 2.428843v151.397849a48.57685 48.57685 0 0 1-48.57685 48.57685z" p-id="26728" fill="#51c4d3"></path></svg>