<?xml version="1.0" standalone="no"?><!DOCTYPE svg PUBLIC "-//W3C//DTD SVG 1.1//EN" "http://www.w3.org/Graphics/SVG/1.1/DTD/svg11.dtd"><svg t="1622733744747" class="icon" viewBox="0 0 1223 1024" version="1.1" xmlns="http://www.w3.org/2000/svg" p-id="23542" width="76.4375" height="64" xmlns:xlink="http://www.w3.org/1999/xlink"><defs><style type="text/css"></style></defs><path d="M516.410115 133.021996h-3.945562a153.501154 153.501154 0 0 0 0 306.814425h3.945562a153.501154 153.501154 0 0 0 0-307.002309z m0 269.425527h-3.945562a115.736488 115.736488 0 0 1 0-231.472977h3.945562a115.924372 115.924372 0 0 1 0 231.848744zM516.410115 583.755496h-3.945562a153.31327 153.31327 0 0 0 0 306.62654h3.945562a153.501154 153.501154 0 0 0 0-306.814424z m0 269.237642h-3.945562a115.736488 115.736488 0 0 1 0-231.285093h3.945562a115.924372 115.924372 0 0 1 0 231.660861z" p-id="23543" fill="#51c4d3"></path><path d="M274.791407 358.482688a153.501154 153.501154 0 1 0 153.501154 153.31327 153.501154 153.501154 0 0 0-153.501154-153.31327z m0 269.237642a115.924372 115.924372 0 1 1 115.924372-115.924372 115.924372 115.924372 0 0 1-115.924372 115.924372zM757.840939 358.482688a153.501154 153.501154 0 1 0 153.31327 153.31327 153.501154 153.501154 0 0 0-153.31327-153.31327z m0 269.237642a115.924372 115.924372 0 1 1 115.736488-115.924372 116.112256 116.112256 0 0 1-115.736488 115.924372zM987.998728 701.558707l-4.509214 10.709383q-3.38191 8.266892-7.327472 16.3459h43.964835l-40.582925 65.007833H939.900447l-1.127303 1.690955c-4.32133 6.388053-8.64266 12.588222-13.151874 18.788391s-5.448633 7.327472-8.266892 10.897267H1146.572748l18.788391-31.376613h-12.588222l40.582925-65.007833h12.588222l16.909551-27.055283z m124.9428 92.063116h-95.820794l40.582925-65.007833h95.820794z" p-id="23544" fill="#51c4d3"></path><path d="M512.464553 0.000188a511.983654 511.983654 0 1 0 398.501772 832.889372l6.200169-7.891124c2.818259-3.569794 5.636517-7.139589 8.266892-10.897267s8.830544-12.400338 13.151874-18.788391l1.127303-1.690955c7.327472-11.085151 14.279177-22.546069 20.66723-34.194872 1.878839-3.194026 3.757678-6.575937 5.448634-9.957847 3.569794-6.763821 7.139589-13.715525 10.333615-20.855114s5.072866-10.897267 7.327472-16.3459l4.509214-10.709383c0-2.630375 2.066723-5.260749 3.006143-8.079008 2.442491-6.200169 4.697098-12.400338 6.763821-18.788391A511.607886 511.607886 0 0 0 512.464553 0.000188zM958.688838 674.691308c-2.442491 6.388053-4.884982 12.588222-7.515356 18.788391-1.127303 2.818259-2.254607 5.448633-3.569794 8.079008s-3.006143 7.139589-4.697098 10.709383-5.260749 11.085151-8.079008 16.3459l-3.006143 5.824401a464.824793 464.824793 0 0 1-38.891969 60.874387c-4.697098 6.388053-9.582079 12.588222-14.654945 18.788391s-6.200169 7.327472-9.394196 10.897267l-7.139588 7.891124A469.709774 469.709774 0 1 1 958.688838 674.691308z" p-id="23545" fill="#51c4d3"></path></svg>