<?xml version="1.0" standalone="no"?><!DOCTYPE svg PUBLIC "-//W3C//DTD SVG 1.1//EN" "http://www.w3.org/Graphics/SVG/1.1/DTD/svg11.dtd"><svg t="1622733908330" class="icon" viewBox="0 0 1024 1024" version="1.1" xmlns="http://www.w3.org/2000/svg" p-id="32516" width="64" height="64" xmlns:xlink="http://www.w3.org/1999/xlink"><defs><style type="text/css"></style></defs><path d="M260.53259 1019.521485c-43.466543 0-84.818561-7.020696-106.819118-21.667935-26.407796-17.628956-43.027007-45.90181-48.040093-81.824965-7.246404-51.995916 11.475452-112.568724 27.548213-131.445012a25.338654 25.338654 0 0 1 38.572251 32.870162c-5.143759 6.890023-22.570766 53.148213-15.443156 94.856613 3.445012 20.052343 11.760557 34.236288 25.445569 43.359629 32.145522 21.382831 154.431555 16.262831 186.87406-7.935406a25.350534 25.350534 0 0 1 30.256705 40.674895c-27.25123 20.313689-84.438422 31.112019-138.394431 31.112019z" fill="#51c4d3" p-id="32517"></path><path d="M495.850641 1023.988121c-54.229234 0-87.182552-32.941439-119.066729-64.825615-28.237216-28.260974-57.448538-57.472297-104.609559-66.892622-115.075267-22.974664-145.094385-69.30413-148.135499-74.471647a25.303016 25.303016 0 0 1-1.187935-23.390441l114.350627-249.109977a25.342218 25.342218 0 0 1 46.056241 21.157123L176.011012 800.169281c13.007889 10.691415 43.609095 29.900325 106.106357 42.397401 62.212158 12.43768 100.071647 50.320928 130.506543 80.779583 30.993225 30.981346 51.592019 49.976427 83.226729 49.976426 33.09587 0 57.187193-15.443155 87.669605-34.889652 38.548492-24.649652 82.252622-52.589884 152.922878-52.589884 60.263944 0 93.466729 13.399907 115.431647 22.273782 6.03471 2.435267 14.587842 4.953689 16.785522 5.66645a7.745336 7.745336 0 0 0 1.366125-0.795916c4.39536-29.6271-40.508585-164.279536-111.060046-272.27471a851.880093 851.880093 0 0 0-66.524362-87.824037 25.350534 25.350534 0 1 1 38.489095-32.988956 899.516288 899.516288 0 0 1 70.539582 93.062831c50.534756 77.489002 156.023387 291.186636 104.752112 335.924269-27.97587 24.471462-52.055313 14.777912-73.319351 6.177262-19.422738-7.86413-46.044362-18.591183-96.460324-18.591183-55.832947 0-89.736613 21.656056-125.600372 44.60696-32.965197 21.109606-67.070812 42.908213-114.992111 42.908214z" fill="#51c4d3" p-id="32518"></path><path d="M231.760803 585.640093a25.350534 25.350534 0 0 1-24.697169-31.052622l15.193689-65.716566-65.728445-15.158051a25.350534 25.350534 0 0 1-7.721578-46.198794l148.646311-92.849002a25.356473 25.356473 0 0 1 26.859211 43.015128l-96.757309 60.394617 30.791276 7.12761a25.338654 25.338654 0 0 1 19.006961 30.399258l-7.12761 30.791276 152.162598-95.034803a25.350534 25.350534 0 0 1 26.847332 43.003248L245.184469 581.814942a25.493086 25.493086 0 0 1-13.423666 3.825151z" fill="#51c4d3" p-id="32519"></path><path d="M704.547068 635.759072a25.362413 25.362413 0 0 1-14.967982-4.894292L437.962567 446.627935a25.350534 25.350534 0 1 1 29.947842-40.912483l203.481392 149.014571-4.454756-32.870162a25.338654 25.338654 0 0 1 21.703573-28.510441l21.133364-2.862923-142.766032-86.86181a25.350534 25.350534 0 1 1 26.336519-43.323991l203.837773 123.996659a25.350534 25.350534 0 0 1-9.764826 46.769002l-66.833225 9.087703 9.075823 66.845105a25.326775 25.326775 0 0 1-25.112946 28.759907z" fill="#51c4d3" p-id="32520"></path><path d="M457.599133 433.441856c-119.506265 0-216.738747-97.208724-216.738747-216.714988S338.092868 0 457.599133 0s216.762506 97.220603 216.762506 216.726868S577.105397 433.441856 457.599133 433.441856z m0-382.752668c-91.542274 0-166.03768 74.495406-166.03768 166.03768S366.056859 382.752668 457.599133 382.752668s166.013921-74.483527 166.013921-166.0258S549.141407 50.689188 457.599133 50.689188z" fill="#51c4d3" p-id="32521"></path><path d="M452.134632 892.768817a25.362413 25.362413 0 0 1-23.331044-15.37188c-2.815406-6.569281-68.686404-162.034339-45.022738-256.712761a25.350534 25.350534 0 1 1 49.18051 12.283249c-16.239072 64.991926 25.124826 184.058654 42.456798 224.448445a25.350534 25.350534 0 0 1-23.283526 35.329188z" fill="#51c4d3" p-id="32522"></path></svg>