<?xml version="1.0" standalone="no"?><!DOCTYPE svg PUBLIC "-//W3C//DTD SVG 1.1//EN" "http://www.w3.org/Graphics/SVG/1.1/DTD/svg11.dtd"><svg t="1622733758007" class="icon" viewBox="0 0 1024 1024" version="1.1" xmlns="http://www.w3.org/2000/svg" p-id="24500" width="64" height="64" xmlns:xlink="http://www.w3.org/1999/xlink"><defs><style type="text/css"></style></defs><path d="M507.748674 918.202419c-173.71339 0-323.497788-208.638831-341.364715-395.183458-1.342578-14.002922 8.925277-26.447349 22.923082-27.783787 14.010085-1.286296 26.447349 8.919137 27.78481 22.921036 15.46625 161.439856 145.798621 349.101933 290.656823 349.101933 154.611334 0 292.180526-212.574467 292.180526-380.13881 0-14.066367 11.405771-25.471115 25.472138-25.471115 14.068414 0 25.472138 11.404748 25.472138 25.471115C850.872452 681.169911 692.543448 918.202419 507.748674 918.202419z" p-id="24501" fill="#51c4d3"></path><path d="M528.903483 729.216183l-42.311665 0c-14.06739 0-25.471115-11.405771-25.471115-25.472138 0-14.068414 11.404748-25.473161 25.471115-25.473161l42.311665 0c14.06739 0 25.472138 11.404748 25.472138 25.473161C554.375621 717.810413 542.970874 729.216183 528.903483 729.216183z" p-id="24502" fill="#51c4d3"></path><path d="M260.131087 569.232492c-36.161594 0-58.959833-3.563152-62.187341-4.104481-20.814048-3.476171-34.868135-23.165606-31.392988-43.97863 3.464915-20.777209 23.053042-34.837436 43.868113-31.411407l0 0c10.460236 1.680269 258.648828 38.630832 465.086527-188.837856 14.190187-15.615653 38.33305-16.802688 53.978379-2.617617 15.623839 14.184047 16.790408 38.344307 2.611477 53.972239C559.561737 542.362518 359.443977 569.232492 260.131087 569.232492z" p-id="24503" fill="#51c4d3"></path><path d="M381.408221 959.264627c-2.723018 0-5.483898-0.292666-8.245801-0.901533-119.27657-26.243711-222.319411-55.17974-275.471982-143.80829-51.117215-85.226057-48.617277-213.302037 8.097422-415.261749 40.987506-145.95314 116.601648-246.150166 224.739531-297.80257 181.01468-86.459141 385.859092-3.419889 401.791969 3.296069 19.490913 7.661494 257.233596 109.071138 225.12941 478.30048-0.89437 12.140505-25.866111 308.946374-277.314956 373.105626-20.473287 5.242398-41.256636-7.139607-46.480614-27.574009-5.211698-20.446681 7.138584-41.249473 27.574009-46.467311 198.826348-50.730405 219.868593-302.676577 220.068138-305.214377 27.572986-317.279157-168.662351-397.799028-177.035042-401.076678-0.396019-0.149403-1.017166-0.398066-1.406023-0.565888-1.789763-0.75827-186.871061-77.989235-339.815429-4.650927-87.162152 41.808198-148.962683 125.6927-183.682439 249.309112-49.868781 177.594791-54.999638 290.49514-16.132422 355.300099 34.264385 57.139372 103.113449 81.367169 226.355331 108.487853 20.609387 4.533246 33.644261 24.911366 29.103852 45.51973C414.764933 947.107749 398.957923 959.264627 381.408221 959.264627z" p-id="24504" fill="#51c4d3"></path><path d="M652.520919 958.921819c-14.068414 0-25.473161-11.405771-25.473161-25.472138l0-90.669022c0-14.06739 11.404748-25.473161 25.473161-25.473161 14.065344 0 25.473161 11.405771 25.473161 25.473161l0 90.669022C677.99408 947.517071 666.586263 958.921819 652.520919 958.921819z" p-id="24505" fill="#51c4d3"></path><path d="M399.243425 958.921819c-14.066367 0-25.471115-11.405771-25.471115-25.472138l0-62.386886c0-14.065344 11.404748-25.472138 25.471115-25.472138 14.068414 0 25.472138 11.405771 25.472138 25.472138l0 62.386886C424.71454 947.517071 413.310815 958.921819 399.243425 958.921819z" p-id="24506" fill="#51c4d3"></path><path d="M157.45459 523.33107c-11.573593 0-22.046109-7.940856-24.781406-19.694551-3.197832-13.700023 5.323239-27.393907 19.016099-30.589692 1.958608-0.460488 197.095937-46.939055 309.468261-151.893432 10.285251-9.582239 26.39209-9.04091 36.006052 1.232061 9.601682 10.286274 9.042957 26.40437-1.231037 36.006052C373.474528 472.755184 171.768597 520.676613 163.243433 522.659781 161.303244 523.114129 159.363056 523.33107 157.45459 523.33107z" p-id="24507" fill="#51c4d3"></path><path d="M813.810349 527.85306c-4.627391 0-9.340739-0.852414-13.917988-2.6432-112.11138-43.880393-133.107577-187.327456-133.939525-193.415105-2.8847-20.901029 11.729136-40.185234 32.624025-43.064818 20.956288-2.90312 40.120766 11.673877 43.057655 32.523741 0.224104 1.512447 16.095583 105.395422 86.117356 132.801609 19.650549 7.686053 29.339212 29.857005 21.654182 49.501414C843.498508 518.636141 829.08217 527.85306 813.810349 527.85306z" p-id="24508" fill="#51c4d3"></path></svg>