<?xml version="1.0" standalone="no"?><!DOCTYPE svg PUBLIC "-//W3C//DTD SVG 1.1//EN" "http://www.w3.org/Graphics/SVG/1.1/DTD/svg11.dtd"><svg t="1622733820910" class="icon" viewBox="0 0 1024 1024" version="1.1" xmlns="http://www.w3.org/2000/svg" p-id="28459" width="64" height="64" xmlns:xlink="http://www.w3.org/1999/xlink"><defs><style type="text/css"></style></defs><path d="M418.060596 0C356.482291 0 306.137041 50.34525 306.137041 111.923555c0 48.81902 31.888038 90.352833 75.680673 105.574437L351.92395 223.84711c-0.508743 0.081399-0.77329 0.529093-1.282033 0.630842a55.839679 55.839679 0 0 0-41.309967 34.350356 20.349737 20.349737 0 0 0 0 0.630842l-56.612969 143.730194-100.487003-26.088363a20.349737 20.349737 0 0 0-0.610492 0c-30.606005-6.104921-62.371945 12.922083-68.700713 44.525225-6.104921 30.585655 10.82606 60.41837 39.437791 69.942047a20.349737 20.349737 0 0 0 1.892526 0l150.079312 38.806949a20.349737 20.349737 0 0 0 4.476942 0.610492c1.343083 0.651192 2.034974 1.933225 8.892835 1.933225 14.550062 0 26.739555-6.654364 36.873724-15.913494v78.22439l-57.223461 158.992497c-0.101749 0.183148 0.081399 0.427344 0 0.610492l-0.630842 1.282034c-6.16597 13.776772-5.555478 29.364671 0 43.243191l75.660323 186.973386a20.349737 20.349737 0 0 0 0 0.630842c9.238781 21.570721 29.507119 36.894074 53.418061 36.894074 3.86645 0 11.843547 0.223847 22.262612-4.476942 0.284896-0.122098 0.997137 0.142448 1.282034 0v-0.610492c26.495358-12.820334 40.231431-43.446689 29.242572-71.875272l1.282034-0.630842-54.700094-171.711083 44.525225-99.18462 12.718586 96.010061c0 0.813989 1.220984 1.689028 1.261683 2.543717 0.406995 10.03242 3.988549 21.530022 12.087744 31.175797l-0.651191 0.610492 1.912875 2.564067L577.053093 956.437651a20.349737 20.349737 0 0 0 0 0.630842c11.64005 14.570412 29.690267 21.631771 46.397401 21.631771 10.724312 0 23.809193-3.601903 34.350357-12.718586l0.651192 0.630842c0.406995-0.305246 0.223847-0.956438 0.610492-1.282034 0.406995-0.366295 0.895388-0.244197 1.282033-0.610492l-0.630842-0.651191c23.402198-19.495048 29.568168-53.845405 10.805711-78.855232l-97.922936-134.817009V342.770974l52.766869 54.048903a56.714718 56.714718 0 0 0 72.506114 6.369467h0.630841l111.292714-75.049831a20.349737 20.349737 0 0 0 1.282033-0.630842c23.870242-17.907769 32.803776-52.848268 14.611111-80.137265-17.80602-26.698855-54.98499-33.495668-81.398949-15.893145l-73.767797 49.61266L591.033363 201.564148c-14.143067-14.122718-33.068323-19.067704-52.156377-15.893145a20.349737 20.349737 0 0 0-0.610492 0l-45.786909 9.544027A111.679358 111.679358 0 0 0 529.984151 111.923555C529.984151 50.34525 479.638901 0 418.060596 0z m0 40.699475C457.640835 40.699475 489.284677 72.343316 489.284677 111.923555S457.640835 183.147635 418.060596 183.147635A70.918834 70.918834 0 0 1 346.836516 111.923555C346.836516 72.343316 378.480357 40.699475 418.060596 40.699475z m127.185858 185.06051c0.366295-0.061049 0.875039 0.02035 1.282034 0 5.43338-0.325596 13.898871 2.441968 15.872795 4.456593l91.573817 91.573817a20.349737 20.349737 0 0 0 25.437172 2.523368l87.768417-59.136337c10.215568-6.796812 18.192665-5.474079 24.806329 4.456593 6.22702 9.360879 2.950712 18.925256-5.718276 25.437171l-110.661871 74.39864a20.349737 20.349737 0 0 0-0.630842 0.651191c-5.575828 3.968199-15.221603 2.706515-20.349737-1.912875l-87.768417-89.681292a20.349737 20.349737 0 0 0-34.960848 14.651811v463.567015a20.349737 20.349737 0 0 0 3.8054 12.087743l101.748687 140.555636a20.349737 20.349737 0 0 0 0.651191 0c5.046735 6.715413 2.706515 19.413649-4.476942 24.78598A20.349737 20.349737 0 0 0 631.732838 936.087914c-1.302383 1.302383-3.520505 1.912875-8.261994 1.912875-7.285206 0-9.828923-0.732591-14.000619-5.738626l-0.630842-0.610492-111.292713-150.099662a20.349737 20.349737 0 0 0-1.892526-2.543717c-1.322733-1.302383-2.543717-2.869313-2.543717-7.631151a20.349737 20.349737 0 0 0 0-2.543718l-22.262612-169.147016a20.349737 20.349737 0 0 0-38.806949-5.738626l-77.573199 171.080242a20.349737 20.349737 0 0 0-0.630842 14.611111l57.223462 178.711393a20.349737 20.349737 0 0 0 0.651191 2.543717c3.07281 6.918911-1.973925 17.968818-10.174868 21.611421-0.813989 0.081399-3.194909 0.651192-5.738626 0.651191-4.558341 0-12.922083-5.148484-15.893145-12.087744l-75.049831-186.973386c-2.31987-5.820025-1.668678-10.012071-0.610492-12.067394a20.349737 20.349737 0 0 0 0.610492-1.912875l59.156686-164.710773a20.349737 20.349737 0 0 0 1.261684-7.00031v-164.690424a20.349737 20.349737 0 0 0-39.417441-7.631151l-22.262613 54.048902c-2.848963 6.613665-10.602213 11.009208-15.262303 11.436552-0.569793-0.284896-2.706515-0.325596-3.82575-0.630842L135.707992 452.781654c-0.162798-0.061049 0.162798-0.569793 0-0.630842-7.814299-2.950712-15.343702-12.983132-13.349428-22.893454 1.729728-8.689338 10.174869-14.000619 19.698546-12.718586H143.339143l117.010989 30.524606a20.349737 20.349737 0 0 0 24.175488-12.087744l62.941738-160.885023c1.465181-3.662953 7.651501-9.014934 10.82606-9.544027a20.349737 20.349737 0 0 0 0.610492-0.630841l186.342544-38.155758zM874.016809 406.994745c-16.27979 0-20.349737 10.174869-20.349737 20.349737v142.448161c0 22.384711 0 40.699475-40.699474 40.699475-59.014238 0-81.398949 24.419685-81.398949 61.049212 0 16.27979 12.209842 61.049212 81.398949 61.049211 77.329002 0 81.398949-52.909317 81.398949-81.398949v-142.44816c0-14.244816 2.034974-20.349737 10.174868-20.349738 38.664501 0 52.787218 20.349737 93.486693 20.349738 0 0 20.471836-0.122098 18.436862-18.436862V447.69422c0-16.27979-8.139895-20.349737-20.349737-20.349738-73.259054 0-52.909317-20.349737-122.098424-20.349737z" fill="#51c4d3" p-id="28460"></path></svg>