<?xml version="1.0" standalone="no"?><!DOCTYPE svg PUBLIC "-//W3C//DTD SVG 1.1//EN" "http://www.w3.org/Graphics/SVG/1.1/DTD/svg11.dtd"><svg t="1622733864367" class="icon" viewBox="0 0 1024 1024" version="1.1" xmlns="http://www.w3.org/2000/svg" p-id="31186" width="64" height="64" xmlns:xlink="http://www.w3.org/1999/xlink"><defs><style type="text/css"></style></defs><path d="M995.685685 830.49348 995.685685 830.525726 995.685685 830.525726 995.685685 927.262863 995.685685 927.262863 995.685685 959.47633C995.685685 995.107842 966.793527 1023.967754 931.19426 1023.967754L92.80574 1023.967754C57.206473 1023.967754 28.314315 995.140087 28.314315 959.508575L28.314315 959.508575 28.314315 959.508575C28.314315 959.47633 28.314315 959.47633 28.314315 959.47633L28.314315 894.984905 28.314315 894.984905 28.314315 894.984905C28.314315 894.984905 28.314315 894.984905 28.314315 894.984905L28.314315 830.49348C99.545094 830.49348 157.297164 772.773655 157.297164 701.542877 157.297164 630.37659 99.674076 572.68901 28.572281 572.560027L28.314315 572.560027 28.314315 572.527782C28.314315 572.527782 28.314315 572.527782 28.314315 572.527782L28.314315 508.036357C28.314315 508.036357 28.314315 508.036357 28.314315 508.036357L28.314315 508.036357 28.314315 508.036357 28.314315 443.544932C28.314315 431.646265 31.764606 420.650477 37.37536 411.105746 38.826417 393.62857 47.468268 377.022028 63.720107 367.60628L684.546807 7.421673C710.923799-7.89504 744.652814 1.198251 759.872791 27.704226L787.442875 75.685846 764.741893 88.874342 769.224047 88.874342C775.125013 84.295451 780.832504 79.555332 787.442875 75.685846L815.012959 123.667466C762.291219 154.300893 744.201374 222.049134 774.641327 275.061085 805.113525 328.073037 872.571555 346.227373 925.325541 315.626192L952.895625 363.607812C945.833814 367.703017 938.546283 370.863097 931.19426 373.636228L931.19426 376.183639 952.895625 363.607812 968.857252 391.403616C985.0446 403.108809 995.685685 422.037042 995.685685 443.544932L995.685685 475.82289 995.685685 475.82289 995.685685 572.560027 995.427719 572.560027C924.325924 572.68901 866.702836 630.37659 866.702836 701.542877 866.702836 772.773655 924.454906 830.49348 995.685685 830.49348ZM726.885427 302.760152C692.801709 243.395796 699.347589 171.745823 737.719986 120.120438L737.719986 99.966868 712.116891 55.403293 154.233822 379.053508 824.299724 379.053508C784.669743 367.541788 749.167214 341.487253 726.885427 302.760152ZM931.19426 519.902779 931.19426 508.036357 931.19426 508.036357 931.19426 443.544932 92.80574 443.544932 92.80574 443.577178 92.80574 443.577178 92.80574 519.902779C167.777021 546.537738 221.788589 617.413813 221.788589 701.542877 221.788589 785.639694 167.777021 856.51577 92.80574 883.150729L92.80574 959.47633 931.19426 959.47633 931.19426 894.984905 931.19426 894.984905 931.19426 883.150729C856.222979 856.51577 802.211411 785.639694 802.211411 701.542877 802.211411 617.413813 856.222979 546.537738 931.19426 519.902779ZM528.122856 862.771438 495.877144 862.771438C486.977327 862.771438 479.754288 855.516153 479.754288 846.616336L479.754288 814.370624C479.754288 805.470808 486.977327 798.247768 495.877144 798.247768L528.122856 798.247768C537.022673 798.247768 544.245712 805.470808 544.245712 814.370624L544.245712 846.616336C544.245712 855.516153 537.022673 862.771438 528.122856 862.771438ZM528.122856 733.756343 495.877144 733.756343C486.977327 733.756343 479.754288 726.533304 479.754288 717.633487L479.754288 685.387775C479.754288 676.487958 486.977327 669.264919 495.877144 669.264919L528.122856 669.264919C537.022673 669.264919 544.245712 676.487958 544.245712 685.387775L544.245712 717.633487C544.245712 726.533304 537.022673 733.756343 528.122856 733.756343ZM528.122856 604.773494 495.877144 604.773494C486.977327 604.773494 479.754288 597.550454 479.754288 588.650638L479.754288 556.404926C479.754288 547.505109 486.977327 540.282069 495.877144 540.282069L528.122856 540.282069C537.022673 540.282069 544.245712 547.505109 544.245712 556.404926L544.245712 588.650638C544.245712 597.550454 537.022673 604.773494 528.122856 604.773494ZM431.127753 314.400855 455.021826 300.535198C461.599952 296.730204 470.016083 298.987404 473.853322 305.630021L487.622241 329.588585C491.427236 336.231202 489.170036 344.711824 482.59191 348.549064L458.697838 362.382474C452.119712 366.219714 443.671336 363.930269 439.866342 357.319898L426.097422 333.329088C422.260183 326.686471 424.549628 318.238094 431.127753 314.400855Z" p-id="31187" fill="#51c4d3"></path></svg>