<?xml version="1.0" standalone="no"?><!DOCTYPE svg PUBLIC "-//W3C//DTD SVG 1.1//EN" "http://www.w3.org/Graphics/SVG/1.1/DTD/svg11.dtd"><svg t="1622732374154" class="icon" viewBox="0 0 1024 1024" version="1.1" xmlns="http://www.w3.org/2000/svg" p-id="88106" width="64" height="64" xmlns:xlink="http://www.w3.org/1999/xlink"><defs><style type="text/css"></style></defs><path d="M661.313 160.64c0.784 0 1.566 0.071 2.391 0.216 6.917 1.22 14.217 4.109 20.748 16.878 5.072 9.917 12.948 32.966 8.708 75.906-3.723 37.687-12.633 53.951-17.613 60.291-2.778 3.537-6.976 8.882-23.025 8.882-5.089 0-10.841-0.56-17.13-1.671-21.755-3.83-27.469-12.746-29.347-15.676-8.659-13.51-9.36-38.605-1.88-67.114 6.384-24.31 17.868-46.809 31.507-61.728 9.15-10.009 18.734-15.985 25.638-15.985l0.003 0.001m-309.774 5.158c8.479 0 17.175 7.834 22.976 14.407 12.871 14.582 23.965 37.112 31.231 63.413 6.673 24.193 6.025 45.689-1.734 57.503-5.611 8.543-16.982 14.071-33.838 16.436-4.214 0.594-8.247 0.895-11.986 0.895-17.63 0-24.975-6.433-29.404-12.038-8.332-10.544-13.111-28.574-13.111-49.467 0-28.954 5.284-55.633 14.497-73.199 8.561-16.323 15.957-17.365 18.736-17.757a18.964 18.964 0 0 1 2.626-0.193h0.007m512.158 233.431c3.253 0 5.992 0.592 8.642 1.874 2.571 1.242 5.266 5.387 7.036 10.817 4.056 12.447 2.643 28.558-3.528 40.113-8.642 16.197-20.425 27.079-29.319 27.079-4.059 0-9.305-1.78-15.221-5.159l-0.98-0.582c-8.087-4.798-18.152-12.657-20.172-22.849-1.372-6.923 0.973-14.865 6.588-22.345 12.806-17.044 32.114-28.948 46.954-28.948m-706.483 16.688c11.872 0 24.313 5.421 35.042 15.275 10.937 10.039 17.305 20.253 17.471 28.022 0.176 8.239-7.496 17.168-12.086 21.757-7.181 7.181-14.796 10.822-22.633 10.822-8.889 0-17.728-4.687-24.255-12.862-8.51-10.658-14.215-25.056-15.26-38.512-0.892-11.49 1.94-17.229 2.679-18.023 4.139-4.056 11.257-6.478 19.039-6.478l0.003-0.001M661.309 96.64c-53.76 0.002-100.887 56.322-119.044 125.456-19.639 74.848-1.441 147.381 82.03 162.077 10.029 1.772 19.43 2.641 28.227 2.641 64.441 0 96.401-46.643 104.328-126.882 9.008-91.218-22.779-151.653-82.03-162.103a77.666 77.666 0 0 0-13.511-1.189z m-309.776 5.158c-3.791 0-7.647 0.269-11.549 0.818-59.56 8.391-88.31 77.242-88.31 154.33 0 70.388 36.221 125.505 106.515 125.505 6.665 0 13.642-0.496 20.918-1.522 84.037-11.788 109.081-79.121 88.336-154.33-19.411-70.258-61.811-124.805-115.91-124.801z m512.16 233.431c-36.635 0.001-74.021 22.433-98.118 54.504-32.25 42.958-27.515 103.316 32.096 138.681l0.026 0.026c17.242 10.225 33.626 14.672 48.83 14.672 37.383 0 67.615-26.9 85.784-60.951 25.584-47.9 14.156-116.314-32.122-138.681-11.714-5.668-24.06-8.252-36.496-8.251zM157.21 351.917c-24.705 0.001-47.647 8.908-63.83 24.766-33.306 32.637-27.309 98.76 7.361 142.181 18.872 23.639 46.144 36.929 74.268 36.929 23.504 0 47.604-9.284 67.887-29.568 44.58-44.58 39.689-98.992-7.361-142.181-24.158-22.187-52.225-32.128-78.325-32.127zM523.937 476.947c28.001 0 59.605 14.423 93.932 42.87 41.015 33.988 84.81 87.148 130.17 158.006a91.696 91.696 0 0 1 13.525 62.53 91.691 91.691 0 0 1-30.667 56.147l-24.099 20.861-0.019 0.017-0.02 0.017a60.481 60.481 0 0 1-39.619 14.777c-12.396 0-24.333-3.748-34.51-10.834l-5.762-4.013c-32.471-22.616-70.553-34.572-110.13-34.574-39.719-0.002-77.918 12.034-110.467 34.805l-0.027 0.019-0.026 0.019-8.925 6.258c-10.349 7.247-22.487 11.077-35.102 11.077-15.442 0-30.193-5.758-41.517-16.195l-16.961-15.646c-31.981-29.471-38.131-77.418-14.621-114.009 47.76-74.339 93.647-130.248 136.386-166.173 35.902-30.178 68.698-45.639 97.488-45.954l0.219-0.002c0.245-0.002 0.496-0.003 0.744-0.003h0.008m-0.009-64c-0.432 0-0.874 0.002-1.306 0.006h-0.026c-88.619 0.772-184.393 81.283-287.348 241.533-40.262 62.662-29.677 145.193 25.095 195.667l16.936 15.623c23.823 21.959 54.289 33.154 84.912 33.154 25.013 0 50.134-7.473 71.812-22.652l8.957-6.28a128.519 128.519 0 0 1 73.775-23.245c25.722 0.001 51.452 7.697 73.554 23.091l5.765 4.015c21.458 14.939 46.31 22.315 71.086 22.315 29.19 0 58.272-10.243 81.546-30.423l24.143-20.9c58.387-50.637 70.782-136.445 29.11-201.535-98.322-153.593-190.978-230.374-278.011-230.369z" fill="#51c4d3" p-id="88107"></path><path d="M576.053 600.94a23.933 23.933 0 0 1-17.14-7.197l-29.2-29.783c-9.28-9.465-9.13-24.66 0.334-33.94 9.466-9.279 24.66-9.129 33.94 0.335l29.2 29.783c9.28 9.465 9.13 24.66-0.334 33.94a23.924 23.924 0 0 1-16.8 6.862zM703.334 728.223a23.92 23.92 0 0 1-17.03-7.089l-83.391-83.975c-9.34-9.405-9.287-24.601 0.118-33.94 9.406-9.341 24.601-9.287 33.94 0.118l83.391 83.975c9.34 9.405 9.287 24.601-0.118 33.94a23.927 23.927 0 0 1-16.91 6.971z" fill="#51c4d3" p-id="88108"></path></svg>