<?xml version="1.0" standalone="no"?><!DOCTYPE svg PUBLIC "-//W3C//DTD SVG 1.1//EN" "http://www.w3.org/Graphics/SVG/1.1/DTD/svg11.dtd"><svg t="1622732361650" class="icon" viewBox="0 0 1024 1024" version="1.1" xmlns="http://www.w3.org/2000/svg" p-id="87048" width="64" height="64" xmlns:xlink="http://www.w3.org/1999/xlink"><defs><style type="text/css"></style></defs><path d="M173.412 186.461l319.95-96.954a63.99 63.99 0 0 1 37.116 0l319.95 96.954c26.98 8.176 45.432 33.048 45.432 61.24V597.24c0 159.811-128.579 272.805-375.522 340.153l-8.418 2.296-8.418-2.296C256.559 870.045 127.98 757.05 127.98 597.24V247.701c0-28.192 18.451-53.064 45.432-61.24zM191.97 597.24c0 123.006 103.373 215.412 319.95 276.09 216.577-60.678 319.95-153.084 319.95-276.09V247.701l-319.95-96.954L191.97 247.7V597.24z m319.95 63.99c-23.56 0-42.66-19.1-42.66-42.66 0-23.56 19.1-42.66 42.66-42.66 23.56 0 42.66 19.1 42.66 42.66 0 23.56-19.1 42.66-42.66 42.66z m-31.995-319.95h63.99v191.97h-63.99V341.28z" p-id="87049" fill="#51c4d3"></path></svg>