<?xml version="1.0" standalone="no"?><!DOCTYPE svg PUBLIC "-//W3C//DTD SVG 1.1//EN" "http://www.w3.org/Graphics/SVG/1.1/DTD/svg11.dtd"><svg t="1622732246166" class="icon" viewBox="0 0 1024 1024" version="1.1" xmlns="http://www.w3.org/2000/svg" p-id="83876" width="64" height="64" xmlns:xlink="http://www.w3.org/1999/xlink"><defs><style type="text/css"></style></defs><path d="M510.192941 1004.242824C238.411294 1003.941647 18.221176 783.721412 17.889882 512 18.221176 240.278588 238.441412 20.058353 510.192941 19.757176 781.884235 20.058353 1002.104471 240.278588 1002.405647 512c-0.301176 271.721412-220.521412 491.941647-492.242823 492.242824z m0-921.268706C273.257412 83.184941 81.317647 275.124706 81.046588 512c0.240941 236.845176 192.150588 428.815059 429.025883 429.086118 236.875294-0.271059 428.815059-192.210824 429.086117-429.086118-0.240941-236.845176-192.150588-428.784941-429.025882-429.025882z" fill="#51c4d3" p-id="83877"></path><path d="M248.922353 602.112c32.858353-46.110118 60.114824-104.749176 81.859765-175.706353H251.512471V389.12h85.534117V306.296471c-22.016 1.746824-46.170353 3.523765-72.372706 5.210353a391.649882 391.649882 0 0 0-7.860706-38.309648c73.065412-4.216471 135.860706-9.999059 188.29553-17.317647l9.456941 39.845647c-20.992 2.108235-47.254588 4.577882-78.727529 7.318589v86.046117h82.944v37.225412h-82.944v70.896941l23.100235-20.419764a1181.515294 1181.515294 0 0 1 67.162353 71.318588l-29.906824 25.690353a877.206588 877.206588 0 0 0-60.355764-70.324706v241.904941h-38.79153v-234.496a570.036706 570.036706 0 0 1-69.812706 136.432941 1108.871529 1108.871529 0 0 0-18.311529-45.206588z m173.116235 83.998118h63.006118V262.234353h240.278588V686.08h45.116235v37.225412H422.038588v-37.225412zM525.854118 299.369412v103.905882h158.448941V299.369412h-158.448941z m0 244.495059h158.448941V440.018824h-158.448941v103.845647z m0 142.215529h158.448941v-105.472h-158.448941v105.472z" fill="#51c4d3" p-id="83878"></path></svg>