<?xml version="1.0" standalone="no"?><!DOCTYPE svg PUBLIC "-//W3C//DTD SVG 1.1//EN" "http://www.w3.org/Graphics/SVG/1.1/DTD/svg11.dtd"><svg t="1622732263823" class="icon" viewBox="0 0 1024 1024" version="1.1" xmlns="http://www.w3.org/2000/svg" p-id="84405" width="64" height="64" xmlns:xlink="http://www.w3.org/1999/xlink"><defs><style type="text/css"></style></defs><path d="M724.864 490.666667a552.746667 552.746667 0 0 0-147.989333-357.205334C751.253333 163.114667 885.546667 310.314667 895.402667 490.666667h-170.538667z m-383.146667 0a510.613333 510.613333 0 0 1 170.24-361.194667A510.528 510.528 0 0 1 682.154667 490.666667H341.717333z m170.24 402.005333A510.549333 510.549333 0 0 1 341.781333 533.333333h340.266667a510.464 510.464 0 0 1-170.133333 359.338667zM128.576 533.333333h170.517333a552.789333 552.789333 0 0 0 149.973334 357.546667C273.749333 861.973333 138.496 714.346667 128.576 533.333333zM512 85.333333C345.493333 85.333333 201.28 180.693333 130.986667 319.786667a21.333333 21.333333 0 0 0 37.482666 20.437333c53.76-107.306667 156.288-185.92 278.528-206.741333A552.810667 552.810667 0 0 0 299.050667 490.666667h-192.213334C94.933333 490.666667 85.333333 500.224 85.333333 512c0 235.648 191.061333 426.666667 426.666667 426.666667 166.528 0 310.741333-95.381333 381.056-234.453334A21.333333 21.333333 0 0 0 874.666667 672c-8.362667 0-15.573333 4.8-19.136 11.776-54.08 107.925333-157.525333 186.858667-280.725334 207.125333A552.789333 552.789333 0 0 0 724.778667 533.333333h192.384C929.066667 533.333333 938.666667 523.776 938.666667 512c0-235.648-191.04-426.666667-426.666667-426.666667z" fill="#51c4d3" p-id="84406"></path></svg>