<?xml version="1.0" standalone="no"?><!DOCTYPE svg PUBLIC "-//W3C//DTD SVG 1.1//EN" "http://www.w3.org/Graphics/SVG/1.1/DTD/svg11.dtd"><svg t="1622732299255" class="icon" viewBox="0 0 1024 1024" version="1.1" xmlns="http://www.w3.org/2000/svg" p-id="85663" width="64" height="64" xmlns:xlink="http://www.w3.org/1999/xlink"><defs><style type="text/css"></style></defs><path d="M853.125773 120.516818 170.923346 120.516818c-58.317197 0-105.753579 47.435359-105.753579 105.753579l0 570.733683c0 58.31822 47.435359 105.734136 105.753579 105.734136l682.202427 0c58.317197 0 105.753579-47.415916 105.753579-105.734136L958.879352 226.269373C958.879352 167.952176 911.443993 120.516818 853.125773 120.516818zM170.923346 172.613336l682.202427 0c29.584806 0 53.658084 24.072255 53.658084 53.656037l0 89.300862L117.267309 315.570235l0-89.300862C117.267309 196.686614 141.339564 172.613336 170.923346 172.613336zM853.125773 850.640674 170.923346 850.640674c-29.583782 0-53.657061-24.051789-53.657061-53.636594L117.266285 484.58665l789.516548 0 0 312.417429C906.783857 826.588885 882.710578 850.640674 853.125773 850.640674zM338.724073 624.098078l-66.382896 0c-24.336268 0-44.254923 19.919678-44.254923 44.254923l0 22.127973c0 24.336268 19.918655 44.234457 44.254923 44.234457l66.382896 0c24.315802 0 44.234457-19.897166 44.234457-44.234457l0-22.127973C382.95853 644.017756 363.039875 624.098078 338.724073 624.098078z" p-id="85664" fill="#51c4d3"></path></svg>