<?xml version="1.0" standalone="no"?><!DOCTYPE svg PUBLIC "-//W3C//DTD SVG 1.1//EN" "http://www.w3.org/Graphics/SVG/1.1/DTD/svg11.dtd"><svg t="1622770787060" class="icon" viewBox="0 0 1024 1024" version="1.1" xmlns="http://www.w3.org/2000/svg" p-id="21572" width="64" height="64" xmlns:xlink="http://www.w3.org/1999/xlink"><defs><style type="text/css"></style></defs><path d="M902.6 843.4H556.5c-10.4 0-20.1-4-27.4-11.4-7.3-7.3-11.3-17.1-11.3-27.4l0.5-206.4c-8.6-2.6-14.9-10.6-14.9-20.1v-21c0-5.6 2.3-11.1 6.3-15l192.8-187.4c15-14.5 38.5-14.7 53.6-0.3L953.4 542c4.1 3.9 6.5 9.5 6.5 15.2v21c0 9.6-6.4 17.6-15.2 20.1l-3.5 207c-0.3 21-17.6 38.1-38.6 38.1zM533.4 570c3.3 1 6.3 2.8 8.9 5.3 4 4 6.1 9.2 6.1 14.8l-0.5 214.6c0 2.3 0.9 4.5 2.5 6.2s3.8 2.6 6.1 2.6h346.1c4.7 0 8.6-3.8 8.7-8.5l3.6-215.2c0.2-9.3 6.5-17.2 15.1-19.7v-8.8L735.5 376.2c-3.4-3.2-8.7-3.2-12 0.1L533.4 561v9z" fill="#51c4d3" p-id="21573"></path><path d="M675.9 513.9a55.1 55.6 0 1 0 110.2 0 55.1 55.6 0 1 0-110.2 0Z" fill="#51c4d3" p-id="21574"></path><path d="M731 584.5c-38.6 0-70.1-31.7-70.1-70.6s31.4-70.6 70.1-70.6 70.1 31.7 70.1 70.6c-0.1 38.9-31.5 70.6-70.1 70.6z m0-111.2c-22.1 0-40.1 18.2-40.1 40.6 0 22.4 18 40.6 40.1 40.6s40.1-18.2 40.1-40.6c-0.1-22.4-18.1-40.6-40.1-40.6z" fill="#51c4d3" p-id="21575"></path><path d="M333.7 818.7h-93c-2.8 0-5-2.2-5-5V678c0-2.8 2.2-5 5-5h93c2.8 0 5 2.2 5 5v135.7c0 2.7-2.2 5-5 5z" fill="#51c4d3" p-id="21576"></path><path d="M333.7 833.7h-93c-11 0-20-9-20-20V678c0-11 9-20 20-20h93c11 0 20 9 20 20v135.7c0 11-8.9 20-20 20z m-83-30h73V688h-73v115.7z" fill="#51c4d3" p-id="21577"></path><path d="M470.7 185.2c12.7-12.3 33.1-12.1 45.5 0.4l190.1 191.1 12.2-29.9-181.2-182.2c-23.9-24.1-63.2-24.4-87.6-0.8L67.1 534.5c-4.1 3.9-6.4 9.4-6.4 15v14.2c0 11.5 9.4 20.9 20.9 20.9h8.7l2.6 187.6c0.3 16.5 6.9 31.9 18.6 43.5 11.8 11.6 27.3 18 43.8 18h388.9L527.4 816l5.1-12.4H155.4c-17.6 0-32.2-14.3-32.4-31.9l-2.6-187.2h394.2v-30H90.8v-1.3l379.9-368z" fill="#51c4d3" p-id="21578"></path></svg>