<?xml version="1.0" standalone="no"?><!DOCTYPE svg PUBLIC "-//W3C//DTD SVG 1.1//EN" "http://www.w3.org/Graphics/SVG/1.1/DTD/svg11.dtd"><svg t="1622770802421" class="icon" viewBox="0 0 1024 1024" version="1.1" xmlns="http://www.w3.org/2000/svg" p-id="22618" width="64" height="64" xmlns:xlink="http://www.w3.org/1999/xlink"><defs><style type="text/css"></style></defs><path d="M799.377793 286.354813H713.142426V28.38014A28.525694 28.525694 0 0 0 684.397304 0.000731a28.525694 28.525694 0 0 0-28.745123 28.379409v257.974673H368.347244V28.38014A28.525694 28.525694 0 0 0 339.602122 0.000731a28.525694 28.525694 0 0 0-28.745123 28.379409v257.974673H224.621632C161.426249 286.354813 109.714286 337.481633 109.714286 399.872446v510.683064C109.714286 972.946322 161.426249 1024 224.621632 1024H799.450936c63.195383 0 114.907346-51.053678 114.907346-113.44449V399.872446c0-62.390813-51.711963-113.517633-114.907346-113.517633z m57.417102 624.200697a57.197673 57.197673 0 0 1-57.417102 56.685673H224.548489a57.197673 57.197673 0 0 1-57.417101-56.685673V399.872446c0-31.30512 25.746267-56.758817 57.417101-56.758817H799.450936c31.670835 0 57.417102 25.453696 57.417102 56.758817v510.683064zM651.70247 631.954566H438.271765l81.188514-114.395347 52.443391-73.874233c21.723413-30.573692-21.65027-60.635385-43.373683-29.98855l-9.069708 12.726848-153.892462 216.648988c-11.99542 16.822845 0.804571 41.252542 21.65027 41.252542h213.430705l-81.188513 114.395347-52.443391 73.80109c-21.723413 30.646835 21.65027 60.708528 43.30054 30.061693l9.142851-12.799991 153.892461-216.648988c11.99542-16.822845-0.731428-41.179399-21.723413-41.179399z" p-id="22619" fill="#51c4d3"></path></svg>