<?xml version="1.0" standalone="no"?><!DOCTYPE svg PUBLIC "-//W3C//DTD SVG 1.1//EN" "http://www.w3.org/Graphics/SVG/1.1/DTD/svg11.dtd"><svg t="1622770686978" class="icon" viewBox="0 0 1024 1024" version="1.1" xmlns="http://www.w3.org/2000/svg" p-id="15132" width="64" height="64" xmlns:xlink="http://www.w3.org/1999/xlink"><defs><style type="text/css"></style></defs><path d="M896 320v543H128V320h768m64-64H64v671h896V256z" p-id="15133" fill="#51c4d3"></path><path d="M512 108.4c119.1 0 216 123.6 216 275.6h40c0-176.7-114.6-320-256-320S256 207.3 256 384h40c0-151.9 96.9-275.6 216-275.6z" p-id="15134" fill="#51c4d3"></path><path d="M276 384m-32 0a32 32 0 1 0 64 0 32 32 0 1 0-64 0Z" p-id="15135" fill="#51c4d3"></path><path d="M748 384m-32 0a32 32 0 1 0 64 0 32 32 0 1 0-64 0Z" p-id="15136" fill="#51c4d3"></path></svg>