<?xml version="1.0" standalone="no"?><!DOCTYPE svg PUBLIC "-//W3C//DTD SVG 1.1//EN" "http://www.w3.org/Graphics/SVG/1.1/DTD/svg11.dtd"><svg t="1622770730709" class="icon" viewBox="0 0 1024 1024" version="1.1" xmlns="http://www.w3.org/2000/svg" p-id="18037" width="64" height="64" xmlns:xlink="http://www.w3.org/1999/xlink"><defs><style type="text/css"></style></defs><path d="M969.534962 852.825946H62.879827c-18.653405 0-34.899027-12.841514-39.410162-31.162811-19.040865-77.104432-9.824865-143.636757 27.398919-197.82573 62.353297-90.859243 182.659459-111.80973 205.408865-114.992432 146.459676-41.707243 309.995243-192.484324 311.628108-194.006487a40.185081 40.185081 0 0 1 52.556108-2.020324c98.885189 78.681946 188.969514 95.204324 247.143784 95.204324 52.777514 0 86.237405-13.339676 86.569513-13.478054a40.406486 40.406486 0 0 1 37.998703 4.068325c11.180973 7.666162 17.989189 20.369297 17.989189 34.041081v379.046054c0 22.694054-18.182919 41.126054-40.627892 41.126054zM96.478097 770.546162h832.456649V485.431351c-17.158919 2.767568-37.777297 4.870919-61.329297 4.870919-65.480649 0-163.480216-16.660757-270.197622-92.409081-55.351351 47.270054-191.515676 154.900757-322.36627 191.045189-2.048 0.553514-4.096 0.968649-6.199352 1.190054-0.940973 0.110703-105.250595 13.173622-151.496648 80.951352-18.653405 27.343568-25.572324 60.056216-20.86746 99.438702z m-40.96-155.039135A40.821622 40.821622 0 0 1 15.194638 578.421622c-17.020541-175.159351 140.315676-241.304216 228.905513-252.457514 136.800865-39.161081 290.317838-180.445405 291.84-181.88454a40.240432 40.240432 0 0 1 52.528433-1.992649c166.912 132.815568 305.760865 78.903351 311.600432 76.550919 12.537081-5.092324 26.845405-3.597838 37.971027 4.068324 11.180973 7.666162 17.989189 20.369297 17.989189 34.041081v140.758487c0 22.694054-18.182919 41.15373-40.627891 41.153729-22.417297 0-40.600216-18.432-40.600217-41.153729v-88.230054c-65.425297 10.24-180.805189 8.690162-309.386378-82.11373-53.109622 45.166703-180.362378 145.158919-302.771892 178.978595-2.020324 0.553514-4.096 0.968649-6.199351 1.190054-17.712432 2.103351-173.830919 24.659027-160.408217 163.037405a41.015351 41.015351 0 0 1-40.461837 45.166703z" p-id="18038" fill="#51c4d3"></path></svg>