<?xml version="1.0" standalone="no"?><!DOCTYPE svg PUBLIC "-//W3C//DTD SVG 1.1//EN" "http://www.w3.org/Graphics/SVG/1.1/DTD/svg11.dtd"><svg t="1622731614951" class="icon" viewBox="0 0 1036 1024" version="1.1" xmlns="http://www.w3.org/2000/svg" p-id="66736" width="64.75" height="64" xmlns:xlink="http://www.w3.org/1999/xlink"><defs><style type="text/css"></style></defs><path d="M1014.168772 762.696311l-4.656897-3.104598c-32.080849-25.871652-193.002527-164.026276-206.973219-178.514401a72.440627 72.440627 0 0 0-43.464376-18.110157H436.196059a77.614957 77.614957 0 0 0-15.522992 0 71.923194 71.923194 0 0 0-63.126832 79.684689 91.068216 91.068216 0 0 0 73.992926 88.481051l44.499242 5.691764H314.08186c-22.249621-16.040424-90.03335-63.644265-135.050026-97.277413a145.916119 145.916119 0 0 0-113.83527-29.493684 91.068216 91.068216 0 0 0-55.365336 39.324912 66.23143 66.23143 0 0 0 3.104598 67.783729c51.743305 46.051541 227.670541 195.589692 241.1238 206.973219a60.022233 60.022233 0 0 0 51.743305 10.866094h362.203133a63.644265 63.644265 0 0 1 31.045982 12.935826l71.405761 59.5048a68.818595 68.818595 0 0 0 41.912077 14.488126 72.95806 72.95806 0 0 0 45.016675-18.62759l162.99141-169.718039a51.743305 51.743305 0 0 0 15.522991-40.359778 44.499242 44.499242 0 0 0-21.732188-30.52855z m-202.833754 199.729156a9.831228 9.831228 0 0 1-6.72663-2.587165l-71.40576-58.987367a111.765538 111.765538 0 0 0-60.539667-24.319353H298.558868L294.936837 879.63618h-3.104598c-12.418393-11.383527-177.479535-152.125316-234.397171-201.798888v-3.622032a26.906518 26.906518 0 0 1 17.075291-10.866094 93.137948 93.137948 0 0 1 67.783729 21.732188c54.847903 40.877211 141.776655 103.486609 142.811521 103.48661l7.761496 5.17433h229.740272l68.301163-45.534108a36.220313 36.220313 0 0 0 18.110156-41.912077 32.598282 32.598282 0 0 0-33.633148-23.80192c-48.121273-3.104598-111.765538-7.761496-135.050025-12.935826a29.493684 29.493684 0 0 1-25.871652-29.493684C413.946438 620.919656 413.946438 620.919656 434.643759 620.919656h315.116726a13.970692 13.970692 0 0 1 8.796362 3.104599c25.871652 25.871652 162.99141 143.846387 206.973219 178.514401z" p-id="66737" fill="#51c4d3"></path><path d="M620.402223 144.36382m51.743305 0l0 0q51.743305 0 51.743305 51.743305l0 206.973219q0 51.743305-51.743305 51.743304l0 0q-51.743305 0-51.743305-51.743304l0-206.973219q0-51.743305 51.743305-51.743305Z" p-id="66738" fill="#51c4d3"></path><path d="M724.406266 144.36382m0 51.743305l0 0q0 51.743305-51.743305 51.743305l-362.203133 0q-51.743305 0-51.743305-51.743305l0 0q0-51.743305 51.743305-51.743305l362.203133 0q51.743305 0 51.743305 51.743305Z" p-id="66739" fill="#51c4d3"></path><path d="M454.766723-21.290122m36.588042 36.588041l0 0q36.588042 36.588042 0 73.176084l-144.522765 144.522764q-36.588042 36.588042-73.176083 0l0 0q-36.588042-36.588042 0-73.176083l144.522764-144.522765q36.588042-36.588042 73.176084 0Z" p-id="66740" fill="#51c4d3"></path><path d="M237.03021 196.335512m36.588042-36.588041l0 0q36.588042-36.588042 73.176083 0l144.522765 144.522764q36.588042 36.588042 0 73.176083l0 0q-36.588042 36.588042-73.176084 0l-144.522764-144.522764q-36.588042-36.588042 0-73.176083Z" p-id="66741" fill="#51c4d3"></path></svg>