<?xml version="1.0" standalone="no"?><!DOCTYPE svg PUBLIC "-//W3C//DTD SVG 1.1//EN" "http://www.w3.org/Graphics/SVG/1.1/DTD/svg11.dtd"><svg t="1622731568096" class="icon" viewBox="0 0 1024 1024" version="1.1" xmlns="http://www.w3.org/2000/svg" p-id="64556" width="64" height="64" xmlns:xlink="http://www.w3.org/1999/xlink"><defs><style type="text/css"></style></defs><path d="M858.7 373.6H161.9c-34.7 0-59.6 28.3-59.6 63v148.3l42-1.3v313.6c0 34.7 28.3 63 63 63h609.4c34.7 0 63-28.3 63-63V583.4h-30.9l-11.1 0.1v313.7c0 11.6-9.4 21-21 21H606.3V583.4h242.4l30.9-0.2v-0.4l42 0.6V436.6c0.1-34.7-28.2-63-62.9-63z m-441 544.6H207.3c-11.6 0-21-9.4-21-21V583.8l-42-0.4h273.4v334.8z m0-378.6H144.3v-103c0-11.6 6-21 17.6-21h255.8v124z m147.1 378.6H459.3V415.6h105.4v502.6z m314.9-378.6H606.3v-124h252.4c11.6 0 21 9.4 21 21v103z m-566-208.7h396.5c33 0 62.2-13.5 84.3-39.2 25.5-29.5 38.4-72.6 32.9-109.9-11-74.5-61.9-117.9-136.9-115.4-73.4 2.4-150.8 109.5-178.3 151.3-23.4-35.2-104.4-148.8-178.8-151.3-75.3-2.5-125.9 41-136.9 115.5-5.5 37.3 7.4 80.4 32.9 109.9 22.1 25.6 51.2 39.1 84.3 39.1z m375.9-217.4l4.7-0.1c64.2 0 76 38 81.3 74.4 3.7 25.3-5.5 56-23.1 76.3-9.9 11.5-27.2 25.1-53.6 25.1H541.7l-6.3-20.3c3.9-8.5 94.7-150.6 154.2-155.4z m-441.4 74.3c5.4-36.4 21.2-71.7 85.4-71.7l4.7 0.1c61.6 2.7 140.9 145.6 150.2 152.8l-6.3 20.3H324.9c-26.4 0-43.8-13.7-53.7-25.1-17.5-20.4-26.8-51.1-23-76.4z" p-id="64557" fill="#51c4d3"></path></svg>