<?xml version="1.0" standalone="no"?><!DOCTYPE svg PUBLIC "-//W3C//DTD SVG 1.1//EN" "http://www.w3.org/Graphics/SVG/1.1/DTD/svg11.dtd"><svg t="1622731731677" class="icon" viewBox="0 0 1024 1024" version="1.1" xmlns="http://www.w3.org/2000/svg" p-id="67276" width="64" height="64" xmlns:xlink="http://www.w3.org/1999/xlink"><defs><style type="text/css"></style></defs><path d="M591.773737 350.383838L512 430.157576 432.226263 350.383838 395.636364 386.973737l79.773737 79.773738H408.565657v51.717171h77.575757v25.858586h-77.575757v51.717172h77.575757v77.575758h51.717172v-77.575758h77.575757v-51.717172h-77.575757v-25.858586h77.575757v-51.717171h-66.844444l79.773737-79.773738z" p-id="67277" fill="#51c4d3"></path><path d="M748.606061 189.931313c-66.19798-48.743434-148.040404-77.575758-236.606061-77.575757s-170.408081 28.832323-236.606061 77.575757H112.355556V405.721212c47.838384 11.636364 83.393939 54.690909 83.393939 106.149495S160.193939 606.383838 112.355556 618.020202V833.810101H275.393939c66.19798 48.743434 148.040404 77.575758 236.606061 77.575758s170.408081-28.832323 236.606061-77.575758h163.038383V618.149495c-47.838384-11.636364-83.393939-54.690909-83.393939-106.149495s35.555556-94.513131 83.393939-106.149495v-215.919192H748.606061z m-236.606061-25.858586c46.674747 0 91.151515 9.179798 131.749495 25.858586H380.250505c40.59798-16.549495 85.074747-25.858586 131.749495-25.858586z m0 695.854546c-46.674747 0-91.151515-9.179798-131.749495-25.858586H643.878788c-40.727273 16.549495-85.20404 25.858586-131.878788 25.858586z m347.927273-488.985859c-49.777778 27.410101-83.393939 80.290909-83.39394 141.058586 0 60.767677 33.745455 113.648485 83.39394 141.058586V782.222222H164.072727V653.058586c49.777778-27.410101 83.393939-80.290909 83.39394-141.058586 0-60.767677-33.745455-113.648485-83.39394-141.058586V241.777778H859.79798V370.941414z" p-id="67278" fill="#51c4d3"></path></svg>