<?xml version="1.0" standalone="no"?><!DOCTYPE svg PUBLIC "-//W3C//DTD SVG 1.1//EN" "http://www.w3.org/Graphics/SVG/1.1/DTD/svg11.dtd"><svg t="1622731552454" class="icon" viewBox="0 0 1024 1024" version="1.1" xmlns="http://www.w3.org/2000/svg" p-id="63435" width="64" height="64" xmlns:xlink="http://www.w3.org/1999/xlink"><defs><style type="text/css"></style></defs><path d="M278.64 128a32 32 0 0 1 32-32h88.784a32 32 0 0 1 32 32c0 61.232 16.752 193.472 42.128 273.808 13.536 42.864 29.088 92.944 29.088 144.224V896a32 32 0 0 1-32 32H239.424a32 32 0 0 1-32-32V546.032c0-51.28 15.552-101.36 29.088-144.224C261.888 321.472 278.64 189.232 278.64 128z m62.992 32c-4.096 72.816-20.384 186.016-44.096 261.088-13.92 44.096-26.112 85.024-26.112 124.944V864h167.216V546.032c0-39.92-12.192-80.848-26.112-124.944-23.712-75.072-40-188.272-44.096-261.088h-26.8zM599.584 310.784a32 32 0 0 1 28.048-16.592h130.448a32 32 0 0 1 28.048 16.592c10.128 18.448 21.184 51.04 29.712 87.68 8.688 37.312 15.44 81.808 15.616 125.024 0.16 42.48-5.984 87.552-26.496 123.072-21.968 38.016-59.136 62.608-112.096 62.608s-90.144-24.608-112.096-62.608c-20.528-35.52-26.672-80.592-26.512-123.072 0.176-43.2 6.944-87.712 15.616-125.04 8.528-36.64 19.584-69.216 29.728-87.664z m48.8 47.408c-5.088 13.392-10.928 32.224-16.16 54.768-7.92 33.968-13.808 73.568-13.968 110.784-0.16 37.936 5.712 69.648 17.92 90.8 10.784 18.656 27.072 30.624 56.688 30.624 29.6 0 45.904-11.968 56.672-30.624 12.224-21.152 18.08-52.864 17.92-90.8-0.16-37.216-6.048-76.8-13.952-110.784-5.248-22.544-11.088-41.376-16.16-54.768h-88.96z" p-id="63436" fill="#51c4d3"></path><path d="M273.488 260.128a32 32 0 0 1 32-32h92.896a32 32 0 0 1 0 64h-92.896a32 32 0 0 1-32-32z m-66.08 278.72a32 32 0 0 1 32-32h111.488a32 32 0 1 1 0 64h-111.472a32 32 0 0 1-32-32z m140.4 117.664a32 32 0 0 1 32-32h6.192a32 32 0 0 1 0 64h-6.192a32 32 0 0 1-32-32z m-47.488 99.104a32 32 0 0 1 32-32h6.192a32 32 0 1 1 0 64h-6.192a32 32 0 0 1-32-32zM100.064 896a32 32 0 0 1 32-32h763.872a32 32 0 0 1 0 64H132.064a32 32 0 0 1-32-32z" p-id="63437" fill="#51c4d3"></path><path d="M568.704 468.64a32 32 0 0 1 32-32h185.808a32 32 0 0 1 0 64H600.704a32 32 0 0 1-32-32z m122.848 176.528a32 32 0 0 1 32 32V893.92a32 32 0 0 1-64 0V677.168a32 32 0 0 1 32-32z" p-id="63438" fill="#51c4d3"></path></svg>