<?xml version="1.0" standalone="no"?><!DOCTYPE svg PUBLIC "-//W3C//DTD SVG 1.1//EN" "http://www.w3.org/Graphics/SVG/1.1/DTD/svg11.dtd"><svg t="1622732136164" class="icon" viewBox="0 0 1024 1024" version="1.1" xmlns="http://www.w3.org/2000/svg" p-id="81810" width="64" height="64" xmlns:xlink="http://www.w3.org/1999/xlink"><defs><style type="text/css"></style></defs><path d="M238.933333 272.9984C238.933333 235.349333 269.482667 204.8 306.9952 204.8h410.0096C754.5856 204.8 785.066667 235.076267 785.066667 272.9984V477.866667h-34.133334l-34.133333-68.266667h-68.266667l-34.133333 68.266667h-34.133333l-34.133334-68.266667h-68.266666l-34.133334 68.266667h-34.133333l-34.133333-68.266667H307.2l-34.133333 68.266667H238.933333V272.9984zM341.333333 307.2c0 18.978133 15.223467 34.133333 33.962667 34.133333h273.408c18.432 0 33.962667-15.291733 33.962667-34.133333 0-18.978133-15.223467-34.133333-33.962667-34.133333h-273.408c-18.432 0-33.962667 15.291733-33.962667 34.133333zM238.933333 751.0016V546.133333h34.133334l34.133333 68.266667h68.266667l34.133333-68.266667h34.133333l34.133334 68.266667h68.266666l34.133334-68.266667h34.133333l34.133333 68.266667h68.266667l34.133333-68.266667h34.133334v204.868267A67.959467 67.959467 0 0 1 717.0048 819.2H306.9952C269.448533 819.2 238.933333 788.650667 238.933333 751.0016zM341.333333 716.8c0 18.978133 15.223467 34.133333 33.962667 34.133333h273.408c18.432 0 33.962667-15.291733 33.962667-34.133333 0-18.978133-15.223467-34.133333-33.962667-34.133333h-273.408c-18.432 0-33.962667 15.291733-33.962667 34.133333z" fill="#51c4d3" p-id="81811"></path></svg>