<?xml version="1.0" standalone="no"?><!DOCTYPE svg PUBLIC "-//W3C//DTD SVG 1.1//EN" "http://www.w3.org/Graphics/SVG/1.1/DTD/svg11.dtd"><svg t="1622732110345" class="icon" viewBox="0 0 1024 1024" version="1.1" xmlns="http://www.w3.org/2000/svg" p-id="80383" width="64" height="64" xmlns:xlink="http://www.w3.org/1999/xlink"><defs><style type="text/css"></style></defs><path d="M510.634667 484.9664a241.664 241.664 0 0 0 240.571733-240.571733c0-131.959467-105.608533-243.438933-240.571733-243.438934a239.752533 239.752533 0 0 0-240.503467 240.571734c0 131.959467 108.544 243.438933 240.503467 243.438933z m0-425.301333a182.818133 182.818133 0 0 1 181.8624 181.8624A182.818133 182.818133 0 0 1 510.634667 423.389867a182.818133 182.818133 0 0 1-181.8624-181.8624A182.818133 182.818133 0 0 1 510.634667 59.5968zM950.6816 781.243733c-44.032-164.2496-196.608-281.6-369.595733-281.6H440.251733a380.245333 380.245333 0 0 0-366.660266 281.6 147.456 147.456 0 0 0 26.350933 129.092267c29.354667 38.161067 70.4512 58.709333 117.418667 58.709333h589.550933c46.967467 0 88.064-20.548267 117.418667-58.709333 29.2864-35.2256 38.0928-82.1248 26.350933-129.024z m-73.3184 93.866667a87.517867 87.517867 0 0 1-70.4512 35.2256H217.2928c-29.354667 0-52.770133-11.741867-70.382933-35.2256-17.6128-23.415467-23.483733-49.834667-14.677334-79.189333 35.2256-137.898667 161.314133-237.568 308.0192-237.568h140.834134c146.6368 0 272.7936 99.669333 310.954666 240.503466 8.738133 26.4192 2.8672 52.8384-14.677333 76.253867z" p-id="80384" fill="#51c4d3"></path></svg>