<?xml version="1.0" standalone="no"?><!DOCTYPE svg PUBLIC "-//W3C//DTD SVG 1.1//EN" "http://www.w3.org/Graphics/SVG/1.1/DTD/svg11.dtd"><svg t="1622731922315" class="icon" viewBox="0 0 1024 1024" version="1.1" xmlns="http://www.w3.org/2000/svg" p-id="72304" width="64" height="64" xmlns:xlink="http://www.w3.org/1999/xlink"><defs><style type="text/css"></style></defs><path d="M856 921H152c-52.9 0-96-43.1-96-96V329c0-52.9 43.1-96 96-96h704c52.9 0 96 43.1 96 96v496c0 52.9-43.1 96-96 96zM152 297c-17.6 0-32 14.4-32 32v496c0 17.6 14.4 32 32 32h704c17.6 0 32-14.4 32-32V329c0-17.6-14.4-32-32-32H152z" fill="#51c4d3" p-id="72305"></path><path d="M680 297H328c-17.7 0-32-14.3-32-32v-80c0-52.9 43.1-96 96-96h224c52.9 0 96 43.1 96 96v80c0 17.7-14.3 32-32 32z m-320-64h288v-48c0-17.6-14.4-32-32-32H392c-17.6 0-32 14.4-32 32v48zM248 809c-17.7 0-32-14.3-32-32V361c0-17.7 14.3-32 32-32s32 14.3 32 32v416c0 17.7-14.3 32-32 32zM760 809c-17.7 0-32-14.3-32-32V361c0-17.7 14.3-32 32-32s32 14.3 32 32v416c0 17.7-14.3 32-32 32z" fill="#51c4d3" p-id="72306"></path></svg>