<?xml version="1.0" standalone="no"?><!DOCTYPE svg PUBLIC "-//W3C//DTD SVG 1.1//EN" "http://www.w3.org/Graphics/SVG/1.1/DTD/svg11.dtd"><svg t="1622731905233" class="icon" viewBox="0 0 1024 1024" version="1.1" xmlns="http://www.w3.org/2000/svg" p-id="71755" width="64" height="64" xmlns:xlink="http://www.w3.org/1999/xlink"><defs><style type="text/css"></style></defs><path d="M783.424 747.392a298.432 298.432 0 0 0-66.56-95.744 307.392 307.392 0 0 0-104.896-66.816c54.592-38.4 90.496-104 90.496-178.56C702.464 288 611.84 192 499.904 192S297.344 287.936 297.344 406.336c0 74.496 35.84 140.096 90.432 178.56a307.648 307.648 0 0 0-104.896 66.816c-28.096 27.072-50.688 59.52-66.56 95.68A296.704 296.704 0 0 0 192 865.536c0 16.768 12.928 30.464 28.8 30.464h558.4c15.872 0 28.8-13.696 28.8-30.464 0-41.024-8.32-80.832-24.576-118.144z m-282.816 138.944l-36.48-33.024 11.52-176.768c0-14.016 11.2-25.408 25.088-25.408 13.888 0 25.088 11.264 25.088 25.408l11.52 176.704-36.736 33.088z" p-id="71756" fill="#51c4d3"></path></svg>