<?xml version="1.0" standalone="no"?><!DOCTYPE svg PUBLIC "-//W3C//DTD SVG 1.1//EN" "http://www.w3.org/Graphics/SVG/1.1/DTD/svg11.dtd"><svg t="1622731878953" class="icon" viewBox="0 0 1037 1024" version="1.1" xmlns="http://www.w3.org/2000/svg" p-id="70467" width="64.8125" height="64" xmlns:xlink="http://www.w3.org/1999/xlink"><defs><style type="text/css"></style></defs><path d="M594.340478 888.29637L488.187823 950.534378V496.544962l380.695973-215.990456v84.297697c0 14.638216 11.004253 29.276431 25.591286 29.276431s25.591286-14.638216 25.591286-29.276431v-127.956431c0-7.319108 0-14.638216-3.633962-18.323361-3.685145-7.319108-11.004253-10.95307-21.957324-14.638215L466.230499 2.479591a35.41834 35.41834 0 0 0-32.910394 3.633963L16.028593 225.737971a3.633963 3.633963 0 0 0-3.685145 3.685146l-3.633963 3.633962v3.685145A18.988734 18.988734 0 0 0 1.390377 251.38044v475.997923a29.532344 29.532344 0 0 0 10.953071 32.961576l420.976657 259.85392a21.906141 21.906141 0 0 0 14.638216 3.685145H455.533342a13.358651 13.358651 0 0 0 10.95307-3.685145h3.685145l146.43334-84.144149c10.95307-7.319108 18.272178-25.591286 10.95307-36.646722-3.633963-14.638216-18.272178-18.272178-32.961576-10.95307zM433.320105 950.534378L56.309278 719.905707V298.980232l373.325682 204.986203v446.567943z m18.272179-497.852881L85.585709 251.38044 455.533342 57.398491l377.010828 179.139003-380.951886 216.144003zM788.220062 573.31882a91.514439 91.514439 0 1 0 91.514439 91.463257A92.947551 92.947551 0 0 0 788.220062 573.31882z m0 127.956431c-18.323361 0-32.961577-18.323361-32.961577-36.646722s14.638216-36.595539 32.961577-36.595539c21.957324 0 32.910394 18.323361 32.910394 36.595539 0.153548 22.366784-14.484668 37.005-32.910394 37.005z m230.577488-80.561369q-5.476535-32.910394-32.910394-32.910394a42.327987 42.327987 0 0 1-43.965829-43.96583c0-7.319108 0-14.638216 3.685145-18.272178a39.308216 39.308216 0 0 0-11.004253-51.182572l-54.867718-32.961577a21.957324 21.957324 0 0 0-14.638215-3.685145 54.50944 54.50944 0 0 0-32.961577 14.638216c-7.319108 11.004253-25.591286 22.008506-32.961577 22.008506s-25.591286-11.004253-32.910394-22.008506c-7.319108-7.319108-18.323361-14.638216-29.276431-14.638216-3.685145 0-11.004253 3.685145-14.638216 3.685145h-3.685145l-54.9189 32.961577v3.633962c-18.272178 11.004253-21.957324 32.961577-14.638216 51.182573 0 3.685145 3.685145 11.004253 3.685146 18.323361 0 25.591286-18.323361 43.914647-40.280685 43.914647-14.638216 0-29.276431 14.638216-32.961576 32.961576a399.73589 399.73589 0 0 0-3.633963 47.54861 399.94062 399.94062 0 0 0 3.633963 47.599792c3.685145 21.957324 18.323361 32.961577 32.961576 32.961577 25.591286 0 40.280684 18.272178 40.280685 43.914647 0 7.319108 0 14.638216-3.685146 18.323361a39.461763 39.461763 0 0 0 11.004253 51.182572h3.633963l54.9189 32.910394a27.536224 27.536224 0 0 0 14.638216 3.685145c11.004253 0 25.591286-3.685145 32.961576-14.638215s25.591286-21.957324 32.910394-21.957324 25.591286 14.638216 36.646722 21.957324c7.319108 7.319108 18.272178 14.638216 29.276432 14.638215 7.319108 0 10.95307-3.685145 18.272178-3.685145l54.9189-32.910394 3.633963-3.685145a45.194211 45.194211 0 0 0 14.689398-51.182572c0-3.633963-3.685145-10.95307-3.685145-18.323361a42.327987 42.327987 0 0 1 43.914647-43.914647c18.323361 0 29.276431-14.638216 32.961576-32.910394a206.009854 206.009854 0 0 0 7.319108-47.599793 317.639044 317.639044 0 0 1-18.169813-47.241514z m-51.182572 69.557116a98.168174 98.168174 0 0 0-80.510186 95.148402c0 11.004253 0 18.323361 3.633962 25.591286l-32.910394 18.323361a50.875477 50.875477 0 0 0-14.638215-11.004253q-27.485041-21.957324-54.9189-21.957324c-18.323361 0-32.961577 7.319108-54.918901 18.323361a50.875477 50.875477 0 0 0-14.638215 10.953071l-29.276432-18.272179c0-7.319108 3.633963-18.323361 3.633963-25.591286a94.738941 94.738941 0 0 0-80.510186-95.148402v-51.182572c43.914647-10.95307 80.510186-51.182572 80.510186-98.833547 0-10.95307 0-18.272178-3.633963-25.591286l36.59554-18.323361a50.875477 50.875477 0 0 0 14.638215 11.004253q27.485041 21.957324 54.9189 21.957323a79.077074 79.077074 0 0 0 51.182573-21.957323c3.685145-3.685145 11.004253-7.319108 14.638215-11.004253l32.961577 18.323361c0 7.319108-3.685145 18.272178-3.685145 25.591286 0 51.182572 32.961577 91.514439 80.561369 98.833547v25.591286c0.153548 7.626203-3.531597 22.264419-3.531598 29.583527zM136.819464 489.328219l204.986202 120.790871a22.110871 22.110871 0 0 0 14.638216 3.633962 31.733195 31.733195 0 0 0 25.591286-14.638215c7.319108-14.638216 3.633963-32.961577-11.004253-40.280685l-204.730289-120.790871c-14.638216-10.95307-29.276431-3.633963-36.59554 11.004254-11.208983 14.638216-7.523838 32.961577 7.114378 40.280684z" p-id="70468" fill="#51c4d3"></path></svg>