<?xml version="1.0" standalone="no"?><!DOCTYPE svg PUBLIC "-//W3C//DTD SVG 1.1//EN" "http://www.w3.org/Graphics/SVG/1.1/DTD/svg11.dtd"><svg t="1622732125990" class="icon" viewBox="0 0 1024 1024" version="1.1" xmlns="http://www.w3.org/2000/svg" p-id="81486" width="64" height="64" xmlns:xlink="http://www.w3.org/1999/xlink"><defs><style type="text/css"></style></defs><path d="M822 64H202c-26.4 0-48 21.6-48 48v800c0 26.4 21.6 48 48 48h620c26.4 0 48-21.6 48-48V112c0-26.4-21.6-48-48-48z m0 824c0 13.2-10.8 24-24 24H226c-13.2 0-24-10.8-24-24V136c0-13.2 10.8-24 24-24h572c13.2 0 24 10.8 24 24v752z" p-id="81487" fill="#51c4d3"></path><path d="M705 284.9H393c-13.2 0-24 10.8-24 24s10.8 24 24 24h312c13.2 0 24-10.8 24-24s-10.8-24-24-24z" p-id="81488" fill="#51c4d3"></path><path d="M319 512m-24 0a24 24 0 1 0 48 0 24 24 0 1 0-48 0Z" p-id="81489" fill="#51c4d3"></path><path d="M393 536h192c13.2 0 24-10.8 24-24s-10.8-24-24-24H393c-13.2 0-24 10.8-24 24s10.8 24 24 24z" p-id="81490" fill="#51c4d3"></path><path d="M319 308.9m-24 0a24 24 0 1 0 48 0 24 24 0 1 0-48 0Z" p-id="81491" fill="#51c4d3"></path><path d="M319 715.1m-24 0a24 24 0 1 0 48 0 24 24 0 1 0-48 0Z" p-id="81492" fill="#51c4d3"></path><path d="M719.5 477.3c-10.5-7.9-25.7-5.8-33.6 4.7L528.3 691.1H393c-13.2 0-24 10.8-24 24s10.8 24 24 24h159.2l36.2-48 135.8-180.2c8-10.5 5.9-25.7-4.7-33.6z" p-id="81493" fill="#51c4d3"></path></svg>