<?xml version="1.0" standalone="no"?><!DOCTYPE svg PUBLIC "-//W3C//DTD SVG 1.1//EN" "http://www.w3.org/Graphics/SVG/1.1/DTD/svg11.dtd"><svg t="1622731818557" class="icon" viewBox="0 0 1024 1024" version="1.1" xmlns="http://www.w3.org/2000/svg" p-id="68277" width="64" height="64" xmlns:xlink="http://www.w3.org/1999/xlink"><defs><style type="text/css"></style></defs><path d="M843.472593 437.191111l0.474074-0.18963L755.01037 243.674074l-0.379259 0.18963c-8.438519-15.834074-24.936296-26.074074-43.045926-26.074074L536.557037 217.78963l-48.924444 0L312.604444 217.78963c-18.10963 0-34.607407 10.145185-43.045926 26.074074l-89.315556 193.042963 0.284444 0.094815c-11.093333 26.737778-10.808889 49.208889 0.758519 66.844444 14.791111 22.471111 44.373333 31.668148 73.955556 35.271111l0 214.755556c0 28.728889 23.419259 52.148148 52.148148 52.148148l422.115556 0c28.728889 0 52.148148-23.419259 52.148148-52.148148L781.653333 539.306667c29.677037-3.697778 46.08-12.8 60.871111-35.365926C854.281481 486.305185 854.565926 463.834074 843.472593 437.191111L843.472593 437.191111zM808.865185 476.539259c-11.093333 16.877037-30.056296 25.6-80.402963 26.074074-26.548148-0.284444-87.608889-13.842963-88.462222-71.964444 0-0.284444 0-0.853333 0-0.853333l-19.531852 0-19.531852 0c0 0.284444 0 0.568889 0 0.853333-0.758519 58.216296-62.103704 71.68-88.557037 71.964444-26.642963-0.284444-88.557037-13.842963-88.651852-72.817778l-39.727407 0c-0.094815 58.88-61.819259 72.533333-88.462222 72.817778-50.441481-0.474074-68.361481-9.197037-79.454815-26.074074-6.731852-10.145185-6.162963-11.377778 1.611852-29.866667l-0.284444-0.094815 74.145185-176.165926c3.792593-8.248889 12.041481-13.558519 21.143704-13.558519l175.028148 0 48.924444 0 162.702222 0c9.102222 0 17.351111 5.30963 21.143704 13.558519l0.18963-0.094815 87.134815 162.891852-0.379259 0.18963C815.028148 451.887407 815.597037 466.394074 808.865185 476.539259L808.865185 476.539259zM742.779259 740.693333c0 14.601481-11.851852 26.453333-26.453333 26.453333L320.758519 767.146667c-14.601481 0-26.453333-11.851852-26.453333-26.453333L294.305185 541.297778c4.93037 0.18963-3.413333 0.284444 1.137778 0.379259l0 0 0.094815 0c0 0 0.094815 0 0.18963 0l0 0c36.219259-0.379259 85.522963-15.265185 108.278519-52.527407 22.755556 37.262222 72.248889 52.148148 108.468148 52.527407l0-19.152593 0 19.152593c36.02963-0.284444 85.048889-15.075556 107.994074-51.863704 22.945185 36.693333 71.774815 51.484444 107.804444 51.863704l0 0c0.094815 0 0.094815 0 0.18963 0 0 0 0 0 0.094815 0l0 0c4.551111 0 9.386667-0.094815 14.222222-0.284444L742.779259 740.693333 742.779259 740.693333 742.779259 740.693333z" p-id="68278" fill="#51c4d3"></path></svg>