<?xml version="1.0" standalone="no"?><!DOCTYPE svg PUBLIC "-//W3C//DTD SVG 1.1//EN" "http://www.w3.org/Graphics/SVG/1.1/DTD/svg11.dtd"><svg t="1622732092471" class="icon" viewBox="0 0 1024 1024" version="1.1" xmlns="http://www.w3.org/2000/svg" p-id="79441" width="64" height="64" xmlns:xlink="http://www.w3.org/1999/xlink"><defs><style type="text/css"></style></defs><path d="M249.508859 1024H94.442596a20.861467 20.861467 0 0 1-20.861467-20.861467V540.908033a20.861467 20.861467 0 0 1 20.861467-20.861467h155.066263a20.861467 20.861467 0 0 1 20.861467 20.861467V1003.138533a20.861467 20.861467 0 0 1-20.861467 20.861467zM115.304063 982.277066h113.343329V561.769499H115.304063zM600.982852 1024h-185.965075a20.861467 20.861467 0 0 1-20.861467-20.861467V457.736345a20.861467 20.861467 0 0 1 20.861467-20.861467h185.965075a20.861467 20.861467 0 0 1 20.861467 20.861467V1003.138533a20.861467 20.861467 0 0 1-20.861467 20.861467z m-165.12745-41.722934h144.242142V478.597811h-144.242142zM941.501595 1023.976158H746.524366a20.861467 20.861467 0 0 1-20.861467-20.861466V367.066449a20.861467 20.861467 0 0 1 20.861467-20.861466h194.977229a20.861467 20.861467 0 0 1 20.861467 20.861466v636.048243a20.861467 20.861467 0 0 1-20.861467 20.861466z m-174.127683-41.722933h153.266216V387.915995H767.385832zM661.755285 329.742305a20.801863 20.801863 0 0 1-13.51823-4.98291L355.258615 75.23241 65.379593 298.831572a20.861467 20.861467 0 0 1-29.265658-3.778906 20.861467 20.861467 0 0 1 3.826589-29.313341l303.266123-233.922608a20.861467 20.861467 0 0 1 26.225844 0.631805l291.714832 248.501792L914.40553 45.37071l-141.428824 8.940629A20.861467 20.861467 0 0 1 750.839709 34.808847a20.861467 20.861467 0 0 1 19.502491-22.136996L970.052002 0.059604a20.873388 20.873388 0 0 1 20.48 12.576484 20.861467 20.861467 0 0 1-4.959068 23.519814L675.976845 324.151432a20.825704 20.825704 0 0 1-14.22156 5.590873z" p-id="79442" fill="#51c4d3"></path></svg>