<?xml version="1.0" standalone="no"?><!DOCTYPE svg PUBLIC "-//W3C//DTD SVG 1.1//EN" "http://www.w3.org/Graphics/SVG/1.1/DTD/svg11.dtd"><svg t="1622731864651" class="icon" viewBox="0 0 1024 1024" version="1.1" xmlns="http://www.w3.org/2000/svg" p-id="70184" width="64" height="64" xmlns:xlink="http://www.w3.org/1999/xlink"><defs><style type="text/css"></style></defs><path d="M1020.221442 259.023358l0.057305-0.01535L512.668731 6.224772 5.978666 258.526031l-0.948605 0 0 505.962493 507.639692 252.7904 507.610016-252.7904L1020.27977 259.023358 1020.221442 259.023358zM512.668731 67.442018l381.63693 190.562127L749.096465 330.981227l-383.65796-190.004425L512.668731 67.442018zM298.950208 176.850847l388.576993 186.487322-174.857447 84.181261-381.642047-188.511421L298.950208 176.850847zM68.45458 322.952366l20.269649-0.025583-20.269649-0.696872 0-31.654954L480.873584 495.91772l0 442.368106L68.45458 732.932832 68.45458 322.952366zM956.881858 353.789699l0 379.144156L544.462854 938.285826 544.462854 495.91772l412.417981-205.343785L956.880835 353.789699z" p-id="70185" fill="#51c4d3"></path></svg>