<?xml version="1.0" standalone="no"?><!DOCTYPE svg PUBLIC "-//W3C//DTD SVG 1.1//EN" "http://www.w3.org/Graphics/SVG/1.1/DTD/svg11.dtd"><svg t="1622731937868" class="icon" viewBox="0 0 1024 1024" version="1.1" xmlns="http://www.w3.org/2000/svg" p-id="73309" width="64" height="64" xmlns:xlink="http://www.w3.org/1999/xlink"><defs><style type="text/css"></style></defs><path d="M783 288H658.6v136.4h158.5L783 288z m-105 19.4h89.8l24.3 97.4H678v-97.4zM298.1 697.1c-37.6 0-68.1 30.6-68.1 68.1 0 37.6 30.6 68.1 68.1 68.1s68.1-30.6 68.1-68.1c0-37.6-30.5-68.1-68.1-68.1z m0 116.8c-26.8 0-48.7-21.8-48.7-48.7s21.8-48.7 48.7-48.7 48.7 21.8 48.7 48.7-21.9 48.7-48.7 48.7z" p-id="73310" fill="#51c4d3"></path><path d="M901.7 457.4c-0.1-0.8-0.3-1.6-0.6-2.5l-51.7-169.5-0.1-0.2c-12.4-39.1-45.3-65.4-82-65.4H630.9v-0.4c0-42.8-38.1-77.6-85-77.6H149.3c-46.9 0-85 34.8-85 77.6v468.3c0 42.8 38.1 77.6 85 77.6h31.9c0 64.4 52.5 116.8 116.9 116.8S414.9 829.7 415 765.3h194.8c0 64.4 52.5 116.8 116.9 116.8s116.8-52.3 116.9-116.7h32c46.9 0 85-34.8 85-77.6V531.2c0-34.5-24.8-63.7-58.9-73.8zM630.9 258.8h136.5c19.5 0 37.5 15.3 44.8 38.1L860 453.6H676.9c-25.4 0-46-17.3-46-38.6V258.8zM298.1 843.1c-43 0-77.9-35-77.9-77.9 0-5 0.5-10 1.4-14.8 0.1-0.5 0.2-1 0.3-1.6 7.5-35.2 38.8-61.6 76.2-61.6 43 0 77.9 35 77.9 77.9s-34.9 78-77.9 78z m428.6 0c-43 0-77.9-35-77.9-77.9 0-5 0.5-10 1.4-14.8 0.1-0.5 0.2-1 0.3-1.6 7.5-35.2 38.8-61.6 76.2-61.6 43 0 77.9 35 77.9 77.9s-34.9 78-77.9 78z m194.9-155.3c0 21.3-20.6 38.6-46 38.6H837c-16-45.4-59.4-78.1-110.3-78.1-50.8 0-94.2 32.6-110.2 78H408.3c-16.1-45.4-59.4-78-110.2-78s-94.2 32.6-110.2 78h-38.6c-25.4 0-46-17.3-46-38.6V219.4c0-21.3 20.6-38.6 46-38.6h396.6c25.4 0 46 17.3 46 38.6V415c0 42.8 38.1 77.6 85 77.6h198.7c25.4 0 46 17.3 46 38.6v156.6z" p-id="73311" fill="#51c4d3"></path><path d="M726.7 697.1c-37.6 0-68.1 30.6-68.1 68.1 0 37.6 30.6 68.1 68.1 68.1 37.6 0 68.1-30.6 68.1-68.1 0-37.6-30.5-68.1-68.1-68.1z m0 116.8c-26.8 0-48.7-21.8-48.7-48.7s21.8-48.7 48.7-48.7 48.7 21.8 48.7 48.7-21.9 48.7-48.7 48.7z" p-id="73312" fill="#51c4d3"></path></svg>