<?xml version="1.0" standalone="no"?><!DOCTYPE svg PUBLIC "-//W3C//DTD SVG 1.1//EN" "http://www.w3.org/Graphics/SVG/1.1/DTD/svg11.dtd"><svg t="1623324109158" class="icon" viewBox="0 0 1024 1024" version="1.1" xmlns="http://www.w3.org/2000/svg" p-id="5696" xmlns:xlink="http://www.w3.org/1999/xlink" width="64" height="64"><defs><style type="text/css"></style></defs><path d="M564.715 525.056c0.045-0.891 0.068-1.788 0.068-2.689 0-18.273-9.349-34.349-23.508-43.738l-7.36-166.781c-0.389-7.662-6.65-21.451-21.711-21.451-15.093 0-21.252 13.789-21.711 21.451l-8.585 167.809c-13.325 9.508-22.027 25.085-22.027 42.71 0 28.947 23.503 52.45 52.45 52.45 2.192 0 4.351-0.15 6.474-0.413l100.97 89.473c5.769 5.117 20.535 9.777 32.726-2.38 12.195-12.195 7.435-26.928 2.413-32.73l-90.199-103.714z" p-id="5697" fill="#51C4D3"></path><path d="M829.446 509.015h-16.691c-7.372 0-13.349 5.975-13.349 13.349s5.977 13.35 13.349 13.35h16.691c7.372 0 13.349-5.977 13.349-13.35 0-7.372-5.977-13.349-13.349-13.349z" p-id="5698" fill="#51C4D3"></path><path d="M211.906 509.015h-16.69c-7.373 0-13.349 5.975-13.349 13.349s5.975 13.35 13.349 13.35h16.69c7.373 0 13.349-5.977 13.349-13.35 0-7.372-5.975-13.349-13.349-13.349z" p-id="5699" fill="#51C4D3"></path><path d="M512.331 809.441c-7.372 0-13.349 5.977-13.349 13.349v16.691c0 7.372 5.977 13.349 13.349 13.349s13.349-5.977 13.349-13.349v-16.691c0-7.373-5.977-13.349-13.349-13.349z" p-id="5700" fill="#51C4D3"></path><path d="M512.331 235.29c7.372 0 13.349-5.975 13.349-13.349v-16.69c0-7.373-5.977-13.349-13.349-13.349s-13.349 5.975-13.349 13.349v16.69c0 7.373 5.977 13.349 13.349 13.349z" p-id="5701" fill="#51C4D3"></path><path d="M512.331 94.678c-236.207 0-427.689 191.481-427.689 427.689s191.481 427.689 427.689 427.689c236.207 0 427.689-191.481 427.689-427.689s-191.481-427.689-427.689-427.689zM512.331 866.603c-189.818 0-344.236-154.418-344.236-344.236s154.418-344.236 344.236-344.236c189.818 0 344.236 154.418 344.236 344.236s-154.418 344.236-344.236 344.236z" p-id="5702" fill="#51C4D3"></path></svg>