<?xml version="1.0" standalone="no"?><!DOCTYPE svg PUBLIC "-//W3C//DTD SVG 1.1//EN" "http://www.w3.org/Graphics/SVG/1.1/DTD/svg11.dtd"><svg t="1626348980368" class="icon" viewBox="0 0 1024 1024" version="1.1" xmlns="http://www.w3.org/2000/svg" p-id="2657" xmlns:xlink="http://www.w3.org/1999/xlink" width="64" height="64"><defs><style type="text/css"></style></defs><path d="M810.656 853.344H640V682.688c0-25.6-17.056-42.656-42.656-42.656H426.688c-25.6 0-42.656 17.056-42.656 42.656v170.656H213.376V640h-85.344v256c0 25.6 17.056 42.656 42.656 42.656h682.656C878.944 938.656 896 921.6 896 896V640h-85.344v213.344z m-341.312 0v-128h85.344v128h-85.344zM977.056 499.2l-85.344-256c-4.256-17.056-21.344-29.856-38.4-29.856H170.656c-17.056 0-34.144 12.8-38.4 29.856l-85.344 256c-8.544 12.8-4.256 25.6 4.256 38.4s21.344 17.056 34.144 17.056h853.344c12.8 0 25.6-8.544 34.144-17.056 8.544-12.8 12.8-25.6 4.256-38.4z m-422.4-200.544h93.856l29.856 170.656H554.624V298.656z m-85.312 170.688H349.888l29.856-170.656h89.6v170.656z m-268.8-170.688h89.6l-29.856 170.656h-115.2l55.456-170.656z m558.912 170.688L729.6 298.688h89.6l55.456 170.656h-115.2z m-546.112-384h597.344v85.344H213.344V85.344z" p-id="2658" fill="#51C4D3"></path></svg>