<?xml version="1.0" standalone="no"?><!DOCTYPE svg PUBLIC "-//W3C//DTD SVG 1.1//EN" "http://www.w3.org/Graphics/SVG/1.1/DTD/svg11.dtd"><svg t="1629559425452" class="icon" viewBox="0 0 1024 1024" version="1.1" xmlns="http://www.w3.org/2000/svg" p-id="3482" data-spm-anchor-id="a313x.7781069.0.i5" xmlns:xlink="http://www.w3.org/1999/xlink" width="32" height="32"><defs><style type="text/css"></style></defs><path d="M623.8 397.5L504.6 167.6 394.6 402c-2.1 4.4-6.2 7.6-11 8.3l-255.5 42.3 189 177.1c3.6 3.3 5.3 8.2 4.5 13.1l-38.7 256.1 226.8-125c4.3-2.4 9.5-2.5 13.8-0.3l231.6 116-48.8-254.3c-0.9-4.8 0.6-9.8 4-13.2l181.8-184.4-257-32.2c-4.8-0.7-9-3.6-11.3-8z m23.7 261.7c-0.7 7.7-7.2 13.5-14.8 13.5-0.5 0-0.9 0-1.4-0.1L413 652c-8.2-0.8-14.2-8-13.4-16.2 0.2-2.4 1-4.5 2.2-6.4 0.8-3.3 2.5-6.4 5.4-8.6l156.5-116.5-154.1-14.6c-8.2-0.8-14.2-8-13.4-16.2 0.8-8.2 8-14.2 16.2-13.4l193.9 18.3c8.2 0.8 14.2 8 13.4 16.2-0.6 6.2-4.9 10.9-10.5 12.7-0.2 0.2-0.3 0.4-0.5 0.6L450.5 625.6 634.1 643c8.2 0.8 14.2 8 13.4 16.2z" fill="#F8F4ED" p-id="3483" data-spm-anchor-id="a313x.7781069.0.i3" class="selected"></path><path d="M937.9 421.7c-1.9-5.3-6.6-9.2-12.2-9.9l-279.1-34.9-129.4-249.7c-2.6-5-7.8-8.1-13.5-8-5.7 0.1-10.8 3.4-13.2 8.5L371 382.3l-277.5 46c-5.6 0.9-10.2 4.9-11.8 10.3-1.6 5.4-0.1 11.3 4.1 15.2l205.3 192.3L249 924.2c-0.8 5.6 1.6 11.2 6.2 14.4 2.5 1.8 5.5 2.7 8.5 2.7 2.5 0 4.9-0.6 7.2-1.8l246.3-135.8 251.5 125.9c5.1 2.5 11.1 2 15.6-1.4s6.7-9.1 5.6-14.7l-53-276.2L934.4 437c4-4 5.4-9.9 3.5-15.3zM710.3 622c-3.4 3.5-4.9 8.4-4 13.2l48.8 254.3-231.6-116c-4.4-2.2-9.5-2.1-13.8 0.3l-226.8 125 38.7-256.1c0.7-4.8-1-9.7-4.5-13.1l-189-177.1 255.5-42.3c4.8-0.8 9-3.9 11-8.3l110-234.4 119.2 229.9c2.3 4.3 6.5 7.3 11.4 7.9l257 32.2L710.3 622z" fill="#51c4d3" p-id="3484" data-spm-anchor-id="a313x.7781069.0.i4" class=""></path><path d="M450.5 625.6l158.3-117.8c0.2-0.2 0.3-0.4 0.5-0.6 5.6-1.7 9.9-6.5 10.5-12.7 0.8-8.2-5.2-15.4-13.4-16.2L412.5 460c-8.2-0.8-15.4 5.2-16.2 13.4-0.8 8.2 5.2 15.4 13.4 16.2l154.1 14.6-156.4 116.5c-2.9 2.2-4.7 5.3-5.4 8.6-1.2 1.9-2 4-2.2 6.4-0.8 8.2 5.2 15.4 13.4 16.2l218.3 20.6c0.5 0 0.9 0.1 1.4 0.1 7.6 0 14-5.8 14.8-13.5 0.8-8.2-5.2-15.4-13.4-16.2l-183.8-17.3z" fill="#51c4d3" p-id="3485" data-spm-anchor-id="a313x.7781069.0.i6" class=""></path></svg>