<?xml version="1.0" standalone="no"?><!DOCTYPE svg PUBLIC "-//W3C//DTD SVG 1.1//EN" "http://www.w3.org/Graphics/SVG/1.1/DTD/svg11.dtd"><svg t="1623324321701" class="icon" viewBox="0 0 1024 1024" version="1.1" xmlns="http://www.w3.org/2000/svg" p-id="8797" xmlns:xlink="http://www.w3.org/1999/xlink" width="64" height="64"><defs><style type="text/css"></style></defs><path d="M892.6 957.7H134.1c-19.3 0-35-15.7-35-35V97.9c0-19.3 15.7-35 35-35h758.4c19.3 0 35 15.7 35 35v824.7c0.1 19.4-15.6 35.1-34.9 35.1z m-747.5-46h736.4V108.9H145.1v802.8z" fill="#51C4D3" p-id="8798"></path><path d="M889.2 375.5H137.5c-12.7 0-23-10.3-23-23s10.3-23 23-23h751.8c12.7 0 23 10.3 23 23s-10.4 23-23.1 23zM889.2 691.1H137.5c-12.7 0-23-10.3-23-23s10.3-23 23-23h751.8c12.7 0 23 10.3 23 23s-10.4 23-23.1 23z" fill="#51C4D3" p-id="8799"></path><path d="M513.3 941.6c-12.7 0-23-10.3-23-23V89.7c0-12.7 10.3-23 23-23s23 10.3 23 23v828.9c0 12.7-10.3 23-23 23zM270.7 660.5c-10.3 0-19.7-7-22.3-17.4l-27.1-108.4c-3.1-12.3 4.4-24.8 16.7-27.9 12.3-3.1 24.8 4.4 27.9 16.7L293 631.9c3.1 12.3-4.4 24.8-16.7 27.9-1.9 0.5-3.8 0.7-5.6 0.7zM201.4 661.5c-10.3 0-19.7-7-22.3-17.4L152 535.6c-3.1-12.3 4.4-24.8 16.7-27.9 12.3-3.1 24.8 4.4 27.9 16.7l27.1 108.4c3.1 12.3-4.4 24.8-16.7 27.9-1.8 0.6-3.7 0.8-5.6 0.8zM666.4 368.7c-10.3 0-19.7-7-22.3-17.4L617 242.8c-3.1-12.3 4.4-24.8 16.7-27.9 12.3-3.1 24.8 4.4 27.9 16.7L688.7 340c3.1 12.3-4.4 24.8-16.7 27.9-1.9 0.6-3.8 0.8-5.6 0.8zM597.1 369.7c-10.3 0-19.7-7-22.3-17.4l-27.1-108.4c-3.1-12.3 4.4-24.8 16.7-27.9 12.3-3.1 24.8 4.4 27.9 16.7l27.1 108.4c3.1 12.3-4.4 24.8-16.7 27.9-1.9 0.4-3.7 0.7-5.6 0.7zM677.2 940.4c-10.3 0-19.7-7-22.3-17.4l-27.1-108.4c-3.1-12.3 4.4-24.8 16.7-27.9 12.3-3.1 24.8 4.4 27.9 16.7l27.1 108.4c3.1 12.3-4.4 24.8-16.7 27.9-1.8 0.5-3.7 0.7-5.6 0.7zM608 941.4c-10.3 0-19.7-7-22.3-17.4l-27.1-108.4c-3.1-12.3 4.4-24.8 16.7-27.9 12.3-3.1 24.8 4.4 27.9 16.7l27.1 108.4c3.1 12.3-4.4 24.8-16.7 27.9-1.9 0.5-3.8 0.7-5.6 0.7z" fill="#51C4D3" p-id="8800"></path><path d="M683.4 445.8c-8.2 0-14.9-6.6-15-14.9-0.1-8.3 6.6-15.1 14.9-15.1l19.8-0.2c8.3-0.1 15.1 6.6 15.1 14.9 0.1 8.3-6.6 15.1-14.9 15.1l-19.8 0.2h-0.1z" fill="#51C4D3" p-id="8801"></path><path d="M836.6 622.6c-8.3 0-15-6.7-15-15V480.3c-1-14.9-6.3-24.7-16.3-29.9-7.3-3.8-14.7-3.8-14.7-3.8h-37.1c-8.3 0-15-6.7-15-15s6.7-15 15-15H790c2.6 0 15.6 0.1 29.2 7.2 13.7 7.1 30.4 22.5 32.4 55.2v128.6c0 8.3-6.7 15-15 15z" fill="#51C4D3" p-id="8802"></path></svg>