<?xml version="1.0" standalone="no"?><!DOCTYPE svg PUBLIC "-//W3C//DTD SVG 1.1//EN" "http://www.w3.org/Graphics/SVG/1.1/DTD/svg11.dtd"><svg t="1622768781342" class="icon" viewBox="0 0 1194 1024" version="1.1" xmlns="http://www.w3.org/2000/svg" p-id="3208" xmlns:xlink="http://www.w3.org/1999/xlink" width="55.96875" height="48"><defs><style type="text/css"></style></defs><path d="M897.28 942.08h-614.4C133.547 948.821 7.083 836.267 0.341 691.115c-6.826-145.323 108.715-268.459 258.048-275.03-0.426-176.64 140.118-323.157 321.024-334.933 180.992-11.69 340.31 115.285 364.032 290.39 152.576 22.869 261.206 156.415 249.088 306.175-12.117 149.76-140.885 265.046-295.253 264.448h-0.085z m-578.56-95.573h578.56c70.23 0 135.168-36.523 170.24-95.659a186.88 186.88 0 0 0 0-191.317 197.547 197.547 0 0 0-170.24-95.659c-13.056 0-25.6-5.12-34.73-14.08A47.19 47.19 0 0 1 848.042 416c0-132.096-109.91-239.19-245.675-239.19-135.68 0-245.76 107.094-245.76 239.19v10.07c116.224 32.17 196.437 135.423 196.608 253.013 0 17.066-9.387 32.853-24.576 41.472a50.347 50.347 0 0 1-49.152 0 47.616 47.616 0 0 1-24.49-41.472c0-92.246-76.8-167.168-171.606-167.424-94.976 0-172.032 74.922-172.032 167.424 0 92.416 77.056 167.424 172.032 167.424h19.2a49.493 49.493 0 0 1 16.213 0z" p-id="3209" fill="#F8F4ED" data-spm-anchor-id="a313x.7781069.0.i2" class="selected"></path></svg>