<?xml version="1.0" standalone="no"?><!DOCTYPE svg PUBLIC "-//W3C//DTD SVG 1.1//EN" "http://www.w3.org/Graphics/SVG/1.1/DTD/svg11.dtd"><svg t="1629735686019" class="icon" viewBox="0 0 1024 1024" version="1.1" xmlns="http://www.w3.org/2000/svg" p-id="6624" xmlns:xlink="http://www.w3.org/1999/xlink" width="32" height="32"><defs><style type="text/css"></style></defs><path d="M627.2 320c-10.24-10.24-25.6-10.24-35.84 0l-197.12 197.12c-5.12 5.12-7.68 15.36-7.68 23.04-2.56 7.68 0 15.36 7.68 23.04l197.12 197.12c10.24 10.24 25.6 10.24 35.84 0 10.24-10.24 10.24-25.6 0-35.84L445.44 537.6l181.76-181.76c10.24-10.24 10.24-25.6 0-35.84zM512 128C286.72 128 102.4 312.32 102.4 537.6s184.32 409.6 409.6 409.6 409.6-184.32 409.6-409.6S737.28 128 512 128z m0 768c-197.12 0-358.4-161.28-358.4-358.4S314.88 179.2 512 179.2s358.4 161.28 358.4 358.4-161.28 358.4-358.4 358.4z" p-id="6625" fill="#51c4d3"></path></svg>