<?xml version="1.0" standalone="no"?><!DOCTYPE svg PUBLIC "-//W3C//DTD SVG 1.1//EN" "http://www.w3.org/Graphics/SVG/1.1/DTD/svg11.dtd"><svg t="1624004644575" class="icon" viewBox="0 0 1024 1024" version="1.1" xmlns="http://www.w3.org/2000/svg" p-id="3914" xmlns:xlink="http://www.w3.org/1999/xlink" width="64" height="64"><defs><style type="text/css"></style></defs><path d="M588.8 836.266667c8.533333 8.533333 21.333333 12.8 29.866667 12.8 12.8 0 21.333333-4.266667 29.866666-12.8 17.066667-17.066667 17.066667-42.666667 0-59.733334L554.666667 678.4v-128c0-25.6-17.066667-42.666667-42.666667-42.666667s-42.666667 17.066667-42.666667 42.666667v149.333333c0 12.8 4.266667 21.333333 12.8 29.866667l106.666667 106.666667z" p-id="3915" fill="#51C4D3"></path><path d="M874.666667 85.333333h-128V42.666667c0-25.6-17.066667-42.666667-42.666667-42.666667s-42.666667 17.066667-42.666667 42.666667v42.666666h-298.666666V42.666667c0-25.6-17.066667-42.666667-42.666667-42.666667s-42.666667 17.066667-42.666667 42.666667v42.666666h-128C89.6 85.333333 42.666667 132.266667 42.666667 192v725.333333C42.666667 977.066667 89.6 1024 149.333333 1024h725.333334c59.733333 0 106.666667-46.933333 106.666666-106.666667v-725.333333C981.333333 132.266667 934.4 85.333333 874.666667 85.333333zM128 192c0-12.8 8.533333-21.333333 21.333333-21.333333h128v42.666666c0 25.6 17.066667 42.666667 42.666667 42.666667s42.666667-17.066667 42.666667-42.666667V170.666667h298.666666v42.666666c0 25.6 17.066667 42.666667 42.666667 42.666667s42.666667-17.066667 42.666667-42.666667V170.666667h128c12.8 0 21.333333 8.533333 21.333333 21.333333V341.333333H128V192z m768 725.333333c0 12.8-8.533333 21.333333-21.333333 21.333334h-725.333334c-12.8 0-21.333333-8.533333-21.333333-21.333334V426.666667h768v490.666666z" p-id="3916" fill="#51C4D3"></path></svg>