<?xml version="1.0" standalone="no"?><!DOCTYPE svg PUBLIC "-//W3C//DTD SVG 1.1//EN" "http://www.w3.org/Graphics/SVG/1.1/DTD/svg11.dtd"><svg t="1629735674367" class="icon" viewBox="0 0 1024 1024" version="1.1" xmlns="http://www.w3.org/2000/svg" p-id="5777" xmlns:xlink="http://www.w3.org/1999/xlink" width="32" height="32"><defs><style type="text/css"></style></defs><path d="M627.2 488.96l-197.12-197.12c-10.24-10.24-25.6-10.24-35.84 0-10.24 10.24-10.24 25.6 0 35.84l181.76 181.76-181.76 181.76c-10.24 10.24-10.24 25.6 0 35.84 10.24 10.24 25.6 10.24 35.84 0l197.12-197.12c5.12-5.12 7.68-15.36 7.68-23.04 2.56-2.56 0-10.24-7.68-17.92zM512 102.4C286.72 102.4 102.4 286.72 102.4 512s184.32 409.6 409.6 409.6 409.6-184.32 409.6-409.6S737.28 102.4 512 102.4z m0 768c-197.12 0-358.4-161.28-358.4-358.4S314.88 153.6 512 153.6s358.4 161.28 358.4 358.4-161.28 358.4-358.4 358.4z" p-id="5778" fill="#51c4d3"></path></svg>