<?xml version="1.0" standalone="no"?><!DOCTYPE svg PUBLIC "-//W3C//DTD SVG 1.1//EN" "http://www.w3.org/Graphics/SVG/1.1/DTD/svg11.dtd"><svg t="1623065491907" class="icon" viewBox="0 0 1024 1024" version="1.1" xmlns="http://www.w3.org/2000/svg" p-id="8420" xmlns:xlink="http://www.w3.org/1999/xlink" width="64" height="64"><defs><style type="text/css"></style></defs><path d="M335.786667 752.64c134.826667-4.266667 142.933333-12.373333 151.893333-21.333333l341.333333-341.333334a74.666667 74.666667 0 0 0 0-105.813333l-97.28-101.546667a75.093333 75.093333 0 0 0-106.24 0l-358.4 358.4-5.546666 136.96a75.093333 75.093333 0 0 0 74.24 74.666667z m0-64a11.093333 11.093333 0 0 1-10.24-9.386667l3.84-91.306666L426.666667 682.666667c-25.6 2.986667-60.16 5.12-90.88 5.973333z m29.44-155.306667L597.333333 301.226667l115.626667 115.626666-232.106667 232.106667z m321.28-305.493333l99.84 99.84a10.666667 10.666667 0 0 1 0 15.36l-28.16 28.586667L642.56 256l28.16-28.16a11.52 11.52 0 0 1 15.786667 0zM810.666667 821.333333H213.333333a32 32 0 0 0 0 64h597.333334a32 32 0 0 0 0-64z" p-id="8421" fill="#51C4D3"></path></svg>