<?xml version="1.0" standalone="no"?><!DOCTYPE svg PUBLIC "-//W3C//DTD SVG 1.1//EN" "http://www.w3.org/Graphics/SVG/1.1/DTD/svg11.dtd"><svg t="1622733192209" class="icon" viewBox="0 0 1024 1024" version="1.1" xmlns="http://www.w3.org/2000/svg" p-id="7752" width="64" height="64" xmlns:xlink="http://www.w3.org/1999/xlink"><defs><style type="text/css"></style></defs><path d="M510.639003 130.983193c-121.685433 0-220.673935 98.992595-220.673935 220.678028 0 88.12406 52.040237 164.125011 126.894062 199.468984C278.472316 591.770811 177.053462 719.715809 177.053462 871.073028c0 9.633405 7.806803 17.432021 17.432021 17.432021 9.625218 0 17.432021-7.798617 17.432021-17.432021 0-164.720575 134.021389-298.733778 298.721499-298.733778 121.685433 0 220.683145-98.992595 220.683145-220.678028S632.324436 130.983193 510.639003 130.983193L510.639003 130.983193zM510.639003 537.475208c-102.462626 0-185.809893-83.359546-185.809893-185.813986 0-102.458533 83.347267-185.813986 185.809893-185.813986 102.46672 0 185.818079 83.355453 185.818079 185.813986C696.457082 454.119755 613.109816 537.475208 510.639003 537.475208L510.639003 537.475208zM510.639003 537.475208" p-id="7753" fill="#51c4d3"></path><path d="M712.986547 605.824899c-7.66354-5.840008-18.591427-4.393054-24.428366 3.269463-5.855358 7.659447-4.393054 18.587334 3.266393 24.443715 74.701352 57.081043 117.531833 143.66298 117.531833 237.530858 0 9.637498 7.810896 17.436114 17.433044 17.436114 9.633405 0 17.432021-7.798617 17.432021-17.436114C844.221474 766.240425 796.386002 669.561525 712.986547 605.824899L712.986547 605.824899zM712.986547 605.824899" p-id="7754" fill="#51c4d3"></path></svg>