<?xml version="1.0" standalone="no"?><!DOCTYPE svg PUBLIC "-//W3C//DTD SVG 1.1//EN" "http://www.w3.org/Graphics/SVG/1.1/DTD/svg11.dtd"><svg t="1622733301851" class="icon" viewBox="0 0 1024 1024" version="1.1" xmlns="http://www.w3.org/2000/svg" p-id="11141" width="64" height="64" xmlns:xlink="http://www.w3.org/1999/xlink"><defs><style type="text/css"></style></defs><path d="M197.51 445.91m-80.51 0a80.51 80.51 0 1 0 161.02 0 80.51 80.51 0 1 0-161.02 0Z" fill="#51c4d3" p-id="11142"></path><path d="M798.58 481.69l-437.76 41.87c-34.23 3.27-64.64-21.82-67.91-56.06l-5.18-54.14c-3.27-34.23 21.82-64.64 56.06-67.91l437.76-41.87c34.23-3.27 64.64 21.82 67.91 56.06l5.18 54.14c3.27 34.23-21.83 64.64-56.06 67.91z" fill="#51c4d3" p-id="11143"></path><path d="M515.92 567.55l234.13-211.6c18.85-17.03 47.94-15.56 64.97 3.28l23.21 25.68c17.03 18.85 15.56 47.94-3.28 64.97l-234.13 211.6c-18.85 17.03-47.94 15.56-64.97-3.28l-23.21-25.68c-17.03-18.84-15.56-47.93 3.28-64.97z" fill="#51c4d3" p-id="11144"></path><path d="M546.12 557.94H856c25.41 0 46 20.59 46 46v34.62c0 25.41-20.59 46-46 46H546.12c-25.41 0-46-20.59-46-46v-34.62c0-25.4 20.59-46 46-46z" fill="#51c4d3" p-id="11145"></path><path d="M852.24 390.62C864 466 825 480 775.09 484.09l-391.11 37.4C336.87 526 296 536 290.52 444.35c0 0 100.77 57.67 280.67 39.42 189.92-19.28 281.05-93.15 281.05-93.15z" fill="#51c4d3" p-id="11146"></path><path d="M230.9 566.74l109.92-124.76c16.79-19.06 45.86-20.9 64.92-4.11l25.98 22.89c19.06 16.79 20.9 45.86 4.11 64.92L325.91 650.45c-16.79 19.06-45.86 20.9-64.92 4.11l-25.98-22.89c-19.07-16.8-20.9-45.87-4.11-64.93z" fill="#51c4d3" p-id="11147"></path><path d="M418.41 449.35c47.59 41.65 28.58 63.33 5.46 89.57 0 0-62.87 73.08-87.03 98.78-18.94 20.15-17.71 26.64-41.84 28.3-29 2-47.52-22.65-47.52-22.65s76.25-18.94 125.51-72.88c28.91-31.66 45.42-121.12 45.42-121.12zM902 621.25c0 37.75-5 69.75-63.31 63.31H563.43c-34.97 0-67.43-0.56-63.31-63.31 0 0 37.16 31.66 200.94 31.66 152.77 0 200.94-31.66 200.94-31.66zM278.03 445.91c0 44.47-36.05 80.51-80.51 80.51S117 490.38 117 445.91c0 0 19.25 51.61 81.2 51.61 60.56 0.01 79.83-51.61 79.83-51.61z" fill="#51c4d3" p-id="11148"></path><path d="M465.15 371.67l-1.4-6.8c14.2-1.2 26.8-3.5 37.8-7.1l2.5 6.6c-4.9 1.4-10.2 2.7-15.8 3.9v17.7h13.8v7h-13.8v6.8c-0.1 3.3-0.3 6.5-0.5 9.6h14.9v6.9h-15.9c-2.5 13.8-8 24.4-16.6 31.9l-5.5-4.8c7.6-6.4 12.5-15.5 14.8-27.1h-14.9v-6.9h15.9c0.3-3.2 0.5-6.4 0.6-9.6v-6.8h-14v-7h14v-16.4c-5.1 0.8-10.4 1.5-15.9 2.1z m41.9-4.2v-7h45.1v7h-18.3v12.5h16.3v6.5h-16.3v11.8h16.3v6.6h-16.3v12.2h19.5v6.9h-19.5v24.1h-7.2v-24.1h-21.5v-6.9h21.5v-12.2h-17.4v-6.6h17.4v-11.8h-17.4v-6.5h17.4v-12.5h-19.6zM615.25 427.87c9.2-6.5 15.7-14.9 19.5-25.1h-35.9c-6.6 7.2-15.2 13.5-25.6 19.1l-4.5-6c16.6-8.2 27.8-18.3 33.7-30.2l7.2 0.9c-1.6 3.4-3.4 6.6-5.5 9.7h38.2v5.7c-7.9 26.8-30.5 42.4-67.8 46.8l-3.6-6.6c15.5-1.6 28.3-5.2 38.4-10.6-4.8-4.6-10.6-9.5-17.5-14.6l4.9-4.8c7.2 5.2 13.4 10.5 18.5 15.7z m23.4-66.6h7.1v21.4h-73.41v-21.4h7.1v14.7h26v-20h7v20h26.2v-14.7z" fill="#51c4d3" p-id="11149"></path></svg>