<?xml version="1.0" standalone="no"?><!DOCTYPE svg PUBLIC "-//W3C//DTD SVG 1.1//EN" "http://www.w3.org/Graphics/SVG/1.1/DTD/svg11.dtd"><svg t="1622733214122" class="icon" viewBox="0 0 1024 1024" version="1.1" xmlns="http://www.w3.org/2000/svg" p-id="8040" width="64" height="64" xmlns:xlink="http://www.w3.org/1999/xlink"><defs><style type="text/css"></style></defs><path d="M847.049697 395.170909L576.232727 207.375515c-48.64-38.570667-99.219394-16.151273-120.288969 1.861818L168.029091 406.55903c-12.598303 8.378182-32.923152 25.522424-27.461818 46.390303 3.739152 14.320485 17.035636 22.372848 39.517091 23.955394 0.465455 0.046545 0.930909 0.046545 1.396363 0.046546l67.165091 0.093091v298.496c0 42.263273 32.659394 76.629333 72.812606 76.629333h198.811152c5.864727 0 11.015758-2.59103 14.723879-6.593939a20.169697 20.169697 0 0 0 6.71806-14.925576V653.249939h97.745455c11.155394 0 20.216242-9.107394 20.216242-20.324848a20.324848 20.324848 0 0 0-20.231757-20.355879h-97.72994V567.699394h97.745455c11.170909 0 20.231758-9.107394 20.231757-20.324849 0-11.248485-9.076364-20.355879-20.247272-20.355878h-69.740607l72.331637-77.482667a20.44897 20.44897 0 0 0-0.930909-28.749576 20.169697 20.169697 0 0 0-28.578909 0.930909l-91.430788 97.931637-88.529455-98.583273a20.200727 20.200727 0 0 0-28.578909-1.489455 20.417939 20.417939 0 0 0-1.473939 28.734061l70.671515 78.708364h-69.632a20.324848 20.324848 0 0 0-20.247273 20.355878c0 11.217455 9.060848 20.324848 20.247273 20.324849h97.714424v44.885333h-97.714424a20.324848 20.324848 0 0 0-20.247273 20.340364c0 11.23297 9.060848 20.324848 20.247273 20.324848h97.714424v158.223516h-179.820606c-17.842424 0-32.349091-16.135758-32.349091-35.948607v-315.578181c0-0.930909-0.418909-1.706667-0.512-2.575515 0.015515-0.201697 0.124121-0.387879 0.124121-0.605091a20.293818 20.293818 0 0 0-20.216242-20.371394L196.421818 436.286061 479.728485 242.191515c0.620606-0.449939 1.334303-1.008485 1.908363-1.50497 3.537455-3.025455 35.328-28.858182 69.911273-1.070545l1.163637 0.853333 270.894545 187.857455c4.561455 3.351273 9.448727 7.726545 13.28097 11.682909a121.095758 121.095758 0 0 1-9.402182 0.124121l-64.418909 0.263758c-0.186182 0-0.325818 0.108606-0.512 0.108606-0.201697 0-0.341333-0.108606-0.558546-0.108606-11.170909 0-20.247273 9.107394-20.247272 20.355879l0.124121 314.755878c0 19.828364-14.522182 35.948606-32.349091 35.948606H606.642424c-11.155394 0-20.216242 9.107394-20.216242 20.340364s9.060848 20.324848 20.231757 20.324849h102.84994c40.153212 0 72.812606-34.350545 72.812606-76.613819l-0.062061-294.524121 44.885334-0.186182c12.722424 0.217212 46.700606 1.008485 55.233939-24.234666 8.316121-24.700121-18.276848-48.872727-35.328-61.393455" fill="#51c4d3" p-id="8041"></path><path d="M641.086061 420.770909c-6.842182-7.524848-20.96097-7.245576-28.578909 0.930909l-91.430788 97.947152-88.529455-98.583273a20.200727 20.200727 0 0 0-28.578909-1.489455 20.417939 20.417939 0 0 0-1.473939 28.734061l70.671515 78.708364h-69.632a20.324848 20.324848 0 0 0-20.247273 20.355878c0 11.217455 9.060848 20.324848 20.247273 20.324849h97.714424v44.885333h-97.714424a20.324848 20.324848 0 0 0-20.247273 20.340364c0 11.23297 9.060848 20.324848 20.247273 20.324848h97.714424v158.223516h-179.820606c-17.842424 0-32.349091-16.135758-32.349091-35.948607v-315.578181c0-0.930909-0.418909-1.706667-0.512-2.575515 0.015515-0.201697 0.124121-0.387879 0.124121-0.605091a20.293818 20.293818 0 0 0-20.216242-20.371394L196.421818 436.286061 479.728485 242.191515c0.620606-0.449939 1.334303-1.008485 1.908363-1.50497 3.537455-3.025455 35.328-28.858182 69.911273-1.070545l1.163637 0.853333c63.503515 125.222788 92.966788 185.328485 88.389818 180.317091z" fill="#51c4d3" p-id="8042"></path></svg>