<?xml version="1.0" standalone="no"?><!DOCTYPE svg PUBLIC "-//W3C//DTD SVG 1.1//EN" "http://www.w3.org/Graphics/SVG/1.1/DTD/svg11.dtd"><svg t="1622733261624" class="icon" viewBox="0 0 1024 1024" version="1.1" xmlns="http://www.w3.org/2000/svg" p-id="10155" width="64" height="64" xmlns:xlink="http://www.w3.org/1999/xlink"><defs><style type="text/css"></style></defs><path d="M782.222222 896H241.777778c-23.514074 0-42.666667-19.152593-42.666667-42.666667V170.666667c0-23.514074 19.152593-42.666667 42.666667-42.666667h540.444444c23.514074 0 42.666667 19.152593 42.666667 42.666667v682.666666c0 23.514074-19.152593 42.666667-42.666667 42.666667zM241.777778 170.666667v682.666666h540.444444V170.666667H241.777778z" p-id="10156" fill="#51c4d3"></path><path d="M511.525926 363.614815c-2.844444 0-5.594074-0.568889-8.248889-1.706667l-290.607407-122.311111 16.592592-39.348148 282.358519 118.802963 283.306666-118.802963 16.497778 39.348148-291.555555 122.311111c-2.74963 1.137778-5.594074 1.706667-8.343704 1.706667zM616.011852 586.334815H407.988148c-11.757037 0-21.333333-9.576296-21.333333-21.333334s9.576296-21.333333 21.333333-21.333333h207.928889c11.757037 0 21.333333 9.576296 21.333333 21.333333s-9.481481 21.333333-21.238518 21.333334zM616.011852 690.631111H407.988148c-11.757037 0-21.333333-9.576296-21.333333-21.333333s9.576296-21.333333 21.333333-21.333334h207.928889c11.757037 0 21.333333 9.576296 21.333333 21.333334s-9.481481 21.333333-21.238518 21.333333z" p-id="10157" fill="#51c4d3"></path><path d="M512 738.038519c-11.757037 0-21.333333-9.576296-21.333333-21.333334v-151.703704c0-11.757037 9.576296-21.333333 21.333333-21.333333s21.333333 9.576296 21.333333 21.333333v151.703704c0 11.757037-9.576296 21.333333-21.333333 21.333334z" p-id="10158" fill="#51c4d3"></path><path d="M512 586.334815c-5.499259 0-10.903704-2.085926-15.075556-6.257778-8.343704-8.343704-8.343704-21.807407 0-30.151111l84.85926-84.859259c8.343704-8.343704 21.807407-8.343704 30.151111 0s8.343704 21.807407 0 30.151111l-84.859259 84.859259c-4.171852 4.171852-9.576296 6.257778-15.075556 6.257778z" p-id="10159" fill="#51c4d3"></path><path d="M512 586.334815c-5.499259 0-10.903704-2.085926-15.075556-6.257778l-84.859259-84.859259c-8.343704-8.343704-8.343704-21.807407 0-30.151111s21.807407-8.343704 30.151111 0l84.85926 84.859259c8.343704 8.343704 8.343704 21.807407 0 30.151111-4.171852 4.171852-9.576296 6.257778-15.075556 6.257778z" p-id="10160" fill="#51c4d3"></path></svg>