<?xml version="1.0" standalone="no"?><!DOCTYPE svg PUBLIC "-//W3C//DTD SVG 1.1//EN" "http://www.w3.org/Graphics/SVG/1.1/DTD/svg11.dtd"><svg t="1622731349269" class="icon" viewBox="0 0 1024 1024" version="1.1" xmlns="http://www.w3.org/2000/svg" p-id="60138" width="64" height="64" xmlns:xlink="http://www.w3.org/1999/xlink"><defs><style type="text/css"></style></defs><path d="M241.178947 259.233684m26.947369 0l485.052631 0q26.947368 0 26.947369 26.947369l0 0q0 26.947368-26.947369 26.947368l-485.052631 0q-26.947368 0-26.947369-26.947368l0 0q0-26.947368 26.947369-26.947369Z" fill="#51c4d3" p-id="60139"></path><path d="M241.178947 447.865263m26.947369 0l485.052631 0q26.947368 0 26.947369 26.947369l0 0q0 26.947368-26.947369 26.947368l-485.052631 0q-26.947368 0-26.947369-26.947368l0 0q0-26.947368 26.947369-26.947369Z" fill="#51c4d3" p-id="60140"></path><path d="M970.105263 0H107.789474a80.842105 80.842105 0 0 0-80.842106 80.842105v835.368421a107.789474 107.789474 0 0 0 107.789474 107.789474h862.31579v-53.894737a53.894737 53.894737 0 0 1 0-107.789474V26.947368a26.947368 26.947368 0 0 0-26.947369-26.947368zM134.736842 970.105263a53.894737 53.894737 0 0 1 0-107.789474h769.077895a107.789474 107.789474 0 0 0 0 107.789474z m0-161.68421a105.364211 105.364211 0 0 0-53.894737 15.090526V80.842105a26.947368 26.947368 0 0 1 26.947369-26.947368h835.368421v754.526316z" fill="#51c4d3" p-id="60141"></path></svg>