<?xml version="1.0" standalone="no"?><!DOCTYPE svg PUBLIC "-//W3C//DTD SVG 1.1//EN" "http://www.w3.org/Graphics/SVG/1.1/DTD/svg11.dtd"><svg t="1622731404337" class="icon" viewBox="0 0 1024 1024" version="1.1" xmlns="http://www.w3.org/2000/svg" p-id="60506" width="64" height="64" xmlns:xlink="http://www.w3.org/1999/xlink"><defs><style type="text/css"></style></defs><path d="M466.35 126.966a96.002 96.002 0 0 1 86.5-2.423l4.8 2.423 329.514 178.116a53.116 53.116 0 0 1 24.105 26.974 32.583 32.583 0 0 1 6.642 16.967l0.133 2.977v192c0 18.066-14.645 32.711-32.71 32.711-17.063 0-31.074-13.063-32.578-29.734l-0.134-2.977-0.003-126.416-41.963 22.677 0.01 325.616a96 96 0 0 1-45.84 81.854C689.14 894.11 604.642 917.333 512 917.333s-177.138-23.221-252.826-69.602a96.002 96.002 0 0 1-45.711-76.863l-0.13-4.99-0.01-325.617-76.487-41.343c-24.832-13.423-34.73-43.702-23.185-69.008l1.628-3.27a53.334 53.334 0 0 1 17.747-19.289l3.81-2.269L466.35 126.966z m280.306 347.898L557.65 577.034a96.002 96.002 0 0 1-86.5 2.423l-4.8-2.423-189.027-102.17 0.01 291.013a32 32 0 0 0 15.28 27.285c65.495 40.135 138.403 60.171 219.387 60.171 80.984 0 153.892-20.036 219.386-60.171a32.002 32.002 0 0 0 15.11-23.972l0.17-3.313-0.01-291.013z m-219.44-291.596a32.001 32.001 0 0 0-27.2-1.521l-3.233 1.52L184.597 352l312.186 168.732a32.002 32.002 0 0 0 23.858 2.662l3.344-1.14 3.232-1.522L839.38 352 527.217 183.268z" p-id="60507" fill="#51c4d3"></path></svg>