<?xml version="1.0" standalone="no"?><!DOCTYPE svg PUBLIC "-//W3C//DTD SVG 1.1//EN" "http://www.w3.org/Graphics/SVG/1.1/DTD/svg11.dtd"><svg t="1622731421194" class="icon" viewBox="0 0 1024 1024" version="1.1" xmlns="http://www.w3.org/2000/svg" p-id="61463" width="64" height="64" xmlns:xlink="http://www.w3.org/1999/xlink"><defs><style type="text/css"></style></defs><path d="M870.4 143.36c39.05024 0 70.8096 31.232 71.66464 70.07744L942.08 215.04v471.04c0 39.05024-31.232 70.8096-70.07744 71.66464L870.4 757.76h-235.52c-50.89792 0-92.16 41.26208-92.16 92.16a30.72 30.72 0 0 1-61.44 0c0-83.98336 67.39968-152.22272 151.06048-153.57952L634.88 696.32h235.52a10.24 10.24 0 0 0 10.2144-9.472L880.64 686.08V215.04a10.24 10.24 0 0 0-9.472-10.2144L870.4 204.8h-235.52c-50.89792 0-92.16 41.26208-92.16 92.16a30.72 30.72 0 1 1-61.44 0c0-83.98336 67.39968-152.22272 151.06048-153.57952L634.88 143.36h235.52z" fill="#51c4d3" p-id="61464"></path><path d="M481.26464 848.2304L481.28 849.92c0 40.96 61.44 40.96 61.44 0V296.96c0-84.83328-68.76672-153.6-153.6-153.6H153.6c-39.58784 0-71.68 32.09216-71.68 71.68v471.04c0 39.58784 32.09216 71.68 71.68 71.68h235.52c50.3296 0 91.2384 40.3456 92.14464 90.4704zM389.12 204.8l1.6896 0.01536C440.9344 205.71648 481.28 246.62528 481.28 296.96v430.06976l-1.44384-1.0752A152.9088 152.9088 0 0 0 389.12 696.32H153.6a10.24 10.24 0 0 1-10.24-10.24V215.04a10.24 10.24 0 0 1 10.24-10.24h235.52z" fill="#51c4d3" p-id="61465"></path></svg>