<?xml version="1.0" standalone="no"?><!DOCTYPE svg PUBLIC "-//W3C//DTD SVG 1.1//EN" "http://www.w3.org/Graphics/SVG/1.1/DTD/svg11.dtd"><svg t="1622731335169" class="icon" viewBox="0 0 1024 1024" version="1.1" xmlns="http://www.w3.org/2000/svg" p-id="59076" width="64" height="64" xmlns:xlink="http://www.w3.org/1999/xlink"><defs><style type="text/css"></style></defs><path d="M700.416 794.624H344.064c-16.384 0-30.72-14.336-30.72-32.768V284.672c0-18.432 14.336-32.768 30.72-32.768h358.4c16.384 0 30.72 14.336 30.72 32.768v475.136c0 18.432-14.336 34.816-32.768 34.816z m-356.352-512v477.184c0 2.048 0 2.048 2.048 4.096h356.352V284.672c0-2.048 0-2.048-2.048-4.096l-356.352 2.048z" fill="#51c4d3" p-id="59077"></path><path d="M327.68 589.824c-8.192 0-16.384-6.144-16.384-16.384v-102.4c0-8.192 6.144-16.384 16.384-16.384s16.384 8.192 16.384 16.384v102.4c0 10.24-8.192 16.384-16.384 16.384zM450.56 794.624c-8.192 0-16.384-6.144-16.384-16.384V284.672c0-8.192 6.144-16.384 16.384-16.384s16.384 6.144 16.384 16.384V778.24c0 8.192-8.192 16.384-16.384 16.384zM348.16 630.784h-40.96c-8.192 0-16.384-6.144-16.384-16.384s6.144-16.384 16.384-16.384h40.96c8.192 0 16.384 6.144 16.384 16.384s-8.192 16.384-16.384 16.384zM348.16 425.984h-40.96c-8.192 0-16.384-6.144-16.384-16.384s8.192-16.384 16.384-16.384h40.96c8.192 0 16.384 6.144 16.384 16.384s-8.192 16.384-16.384 16.384z" fill="#51c4d3" p-id="59078"></path><path d="M777.216 438.66112l21.7088 21.7088c4.36224 4.36224 2.90816 11.59168 0 14.49984l-185.344 185.344c-4.36224 4.36224-10.15808 4.36224-14.49984 0l-21.7088-21.7088c-4.34176-4.34176-4.34176-10.1376 0-14.47936l185.344-185.36448c4.36224-1.4336 11.59168-2.90816 14.49984 0z" fill="#51c4d3" p-id="59079"></path><path d="M607.78496 677.60128c-5.79584 0-13.04576-1.4336-18.8416-7.22944l-20.2752-20.2752c-4.34176-4.34176-7.22944-10.1376-7.22944-18.8416-1.4336-7.22944 1.4336-13.02528 5.79584-17.36704l183.9104-183.9104a27.11552 27.11552 0 0 1 37.64224 0l21.72928 21.7088c8.68352 8.704 8.68352 26.07104 0 34.75456l-185.344 185.36448c-4.36224 4.34176-10.15808 7.24992-17.408 5.79584z m-14.49984-46.34624l14.49984 14.49984 176.66048-176.68096-14.47936-14.47936-176.68096 176.66048z" fill="#51c4d3" p-id="59080"></path><path d="M557.09696 696.4224h-2.90816a15.7696 15.7696 0 0 1-13.02528-15.91296l5.79584-43.45856c2.88768-2.88768 4.34176-7.22944 5.79584-8.68352a14.00832 14.00832 0 0 1 20.2752 0l37.64224 37.64224c2.88768 2.90816 4.34176 4.36224 4.34176 7.24992s-1.4336 7.24992-2.88768 11.59168c-2.90816 2.88768-5.79584 5.79584-8.704 5.79584l-46.32576 5.77536z m10.1376-44.89216l-2.90816 23.18336 23.18336-2.90816-20.2752-20.2752z m31.8464 17.38752z" fill="#51c4d3" p-id="59081"></path></svg>