<?xml version="1.0" standalone="no"?><!DOCTYPE svg PUBLIC "-//W3C//DTD SVG 1.1//EN" "http://www.w3.org/Graphics/SVG/1.1/DTD/svg11.dtd"><svg t="1622731266595" class="icon" viewBox="0 0 1024 1024" version="1.1" xmlns="http://www.w3.org/2000/svg" p-id="57797" width="64" height="64" xmlns:xlink="http://www.w3.org/1999/xlink"><defs><style type="text/css"></style></defs><path d="M648.456123 727.078499a59.377954 59.377954 0 0 1-32.248554-9.05371c-20.455462-12.967113-31.011073-37.568666-29.710131-69.277805 1.163444-28.472649 11.909436-60.097174 30.238969-89.045778s42.307057-52.164601 67.585523-65.385556c28.113039-14.722856 54.872253-15.695918 75.327715-2.739382s31.021649 37.568666 29.720707 69.277806c-1.163444 28.472649-11.909436 60.097174-30.249546 89.045777s-42.307057 52.164601-67.574946 65.385556c-14.997852 7.858536-29.61494 11.793092-43.089737 11.793092z m78.881507-211.926623c-8.228723 0-17.811271 2.686498-27.922657 7.985457-20.26508 10.576764-39.863824 29.773591-55.189556 53.941497s-24.326558 50.112709-25.225582 72.979673c-0.793257 19.323748 4.537432 34.078334 14.617088 40.456123s25.701537 4.907619 42.835895-4.072055c20.26508-10.576764 39.863824-29.773591 55.189555-53.941497 15.325731-24.199636 24.326558-50.112709 25.215006-72.979673 0.793257-19.323748-4.526855-34.078334-14.617088-40.456123a27.425549 27.425549 0 0 0-14.902661-3.913402zM436.169889 741.663857a59.473145 59.473145 0 0 1-32.248554-9.05371c-20.487192-12.967113-31.011073-37.547513-29.71013-69.277805 1.163444-28.472649 11.89886-60.097174 30.238969-89.045778s42.307057-52.175178 67.585523-65.385556c28.113039-14.733432 54.861676-15.706495 75.327714-2.739382s31.011073 37.55809 29.720707 69.277805c-1.174021 28.472649-11.909436 60.097174-30.249545 89.045778s-42.307057 52.164601-67.574946 65.385556c-15.008428 7.858536-29.61494 11.793092-43.089738 11.793092z m78.881507-211.9372c-8.228723 0-17.811271 2.686498-27.933234 7.985457-20.254503 10.576764-39.853247 29.784168-55.189555 53.941497s-24.326558 50.112709-25.215006 72.979673c-0.793257 19.334325 4.537432 34.078334 14.617088 40.466699s25.69096 4.907619 42.835895-4.072054c20.254503-10.576764 39.863824-29.784168 55.189555-53.941497 15.325731-24.199636 24.326558-50.112709 25.215006-72.979673 0.793257-19.323748-4.537432-34.078334-14.617088-40.4667a27.499587 27.499587 0 0 0-14.902661-3.913402zM277.190547 878.199306s102.943646-34.786977 157.435135-49.277144c52.947281-14.077673 104.709965-23.184267 184.902991-35.336969s109.374318-14.574781 109.374318-14.574781l-75.444059 3.014377 42.793588-7.403735-51.487688 0.803834c-1.999008 0-3.998017 0.137498-5.986448 0.338457-11.116179 1.057676-49.710792 4.865312-59.22988 6.346058-11.063295 1.79805-79.981491 12.755578-95.47645 15.10362-16.457445 2.496116-82.07569 17.081474-121.326062 29.075524-37.94943 11.634441-55.982813 16.922823-77.030573 26.135185-13.178648 5.806644-19.820856 8.048918-24.94001 10.439266a23.395802 23.395802 0 0 0-7.213353 5.796067c-3.23649 3.532639-7.721038 16.626673 9.392166 13.887291a32.597587 32.597587 0 0 0 5.193192-1.332672zM301.993059 909.517105s102.943646-34.797554 157.435135-49.277145c52.947281-14.077673 104.709965-23.184267 184.913568-35.336969s109.395472-14.553627 109.395472-14.553627l-74.301769 2.792265 50.514626-5.288382-59.229879 0.084615c-2.739382 0-5.45761 0.137498-8.175839 0.401917-12.353661 1.205751-48.959841 4.812428-58.172203 6.346058-11.073872 1.79805-79.981491 12.745001-95.487027 15.093043-16.446868 2.496116-82.07569 17.081474-121.326062 29.075524-37.94943 11.634441-55.982813 16.922823-77.019997 26.145761-13.189225 5.796067-19.831433 8.038341-24.950586 10.439266-2.866303 1.343249-4.949926 3.574946-7.213353 5.785491-8.218146 8.027764 0.179805 12.427698 4.230705 13.030573a19.313171 19.313171 0 0 0 8.969096-1.184598zM264.085936 588.004627l40.530161-20.920839s-41.852256 67.088415-58.679888 118.988597-7.58354 72.249876-3.003801 75.623864 30.059164 11.951744 35.643695 13.569988 10.238308-0.200959 5.119154-16.129565 15.294001-72.048918 15.294001-72.048918l55.178979-129.036523s5.584531-14.617088-3.691291-27.150553-19.672781-13.749793-36.458106-2.242274-47.986779 35.125434-47.986779 35.125433-5.552801 4.230706-4.886465 11.243101a57.410676 57.410676 0 0 0 2.94034 12.977689z" p-id="57798" fill="#51c4d3"></path><path d="M843.523385 1024H180.476615A90.505371 90.505371 0 0 1 90.077012 933.600397V90.399603A90.505371 90.505371 0 0 1 180.476615 0h663.04677a90.494794 90.494794 0 0 1 90.399603 90.399603v843.200794a90.494794 90.494794 0 0 1-90.399603 90.399603zM180.476615 54.216493a36.214841 36.214841 0 0 0-36.172533 36.18311v843.200794a36.214841 36.214841 0 0 0 36.172533 36.18311h663.04677a36.225417 36.225417 0 0 0 36.18311-36.18311V90.399603a36.225417 36.225417 0 0 0-36.18311-36.18311z" p-id="57799" fill="#51c4d3"></path><path d="M740.273013 238.939679H288.983639a27.108247 27.108247 0 1 1 0-54.216493h451.289374a27.108247 27.108247 0 0 1 0 54.216493zM740.273013 380.255825H288.983639a27.118823 27.118823 0 0 1 0-54.227069h451.289374a27.118823 27.118823 0 0 1 0 54.227069z" p-id="57800" fill="#51c4d3"></path></svg>