<?xml version="1.0" standalone="no"?><!DOCTYPE svg PUBLIC "-//W3C//DTD SVG 1.1//EN" "http://www.w3.org/Graphics/SVG/1.1/DTD/svg11.dtd"><svg t="1622733387238" class="icon" viewBox="0 0 1024 1024" version="1.1" xmlns="http://www.w3.org/2000/svg" p-id="12065" width="64" height="64" xmlns:xlink="http://www.w3.org/1999/xlink"><defs><style type="text/css"></style></defs><path d="M133.3 645.3C59.7 645.3 0 585.6 0 512c0-73.6 59.7-133.3 133.3-133.3 73.6 0 133.3 59.7 133.3 133.3 0 73.6-59.7 133.3-133.3 133.3zM512 645.3c-73.6 0-133.3-59.7-133.3-133.3 0-73.6 59.7-133.3 133.3-133.3 73.6 0 133.3 59.7 133.3 133.3 0 73.6-59.7 133.3-133.3 133.3zM890.7 645.3c-73.6 0-133.3-59.7-133.3-133.3 0-73.6 59.7-133.3 133.3-133.3 73.6 0 133.3 59.7 133.3 133.3 0 73.6-59.7 133.3-133.3 133.3z" p-id="12066" fill="#51c4d3"></path></svg>