<?xml version="1.0" standalone="no"?><!DOCTYPE svg PUBLIC "-//W3C//DTD SVG 1.1//EN" "http://www.w3.org/Graphics/SVG/1.1/DTD/svg11.dtd"><svg t="1622733427507" class="icon" viewBox="0 0 1024 1024" version="1.1" xmlns="http://www.w3.org/2000/svg" p-id="13638" width="64" height="64" xmlns:xlink="http://www.w3.org/1999/xlink"><defs><style type="text/css"></style></defs><path d="M512 812c-118.835 0-246.723-30.416-246.723-97.193S393.165 617.612 512 617.612s246.723 30.417 246.723 97.194S630.835 812 512 812z m0-149.528c-131.13 0-201.864 37.148-201.864 52.335S380.87 767.142 512 767.142s201.864-37.148 201.864-52.335S643.13 662.472 512 662.472z" fill="#51c4d3" p-id="13639"></path><path d="M609.193 548.44c0 12.383-10.046 22.43-22.429 22.43s-22.43-10.047-22.43-22.43v-59.768c0-12.383 10.047-22.43 22.43-22.43s22.429 10.047 22.429 22.43v59.768z" fill="#51c4d3" p-id="13640"></path><path d="M609.193 413.879c0 12.383-10.046 22.43-22.429 22.43s-22.43-10.047-22.43-22.43V234.43c0-12.383 10.047-22.43 22.43-22.43s22.429 10.047 22.429 22.43v179.449zM459.665 548.44c0 12.383-10.047 22.43-22.43 22.43s-22.43-10.047-22.43-22.43V324.03c0-12.383 10.047-22.43 22.43-22.43s22.43 10.047 22.43 22.43v224.41zM310.136 597.987c0 12.383-10.047 22.429-22.43 22.429s-22.429-10.046-22.429-22.429V493.316c0-12.383 10.046-22.43 22.429-22.43s22.43 10.047 22.43 22.43v104.671zM310.136 418.537c0 12.383-10.047 22.43-22.43 22.43s-22.429-10.047-22.429-22.43v-29.833c0-12.383 10.046-22.429 22.429-22.429s22.43 10.046 22.43 22.429v29.833z" fill="#51c4d3" p-id="13641"></path><path d="M713.864 388.719c0-12.383 10.046-22.429 22.429-22.429 12.384 0 22.43 10.046 22.43 22.429V493.39c0 12.383-10.046 22.43-22.43 22.43-12.383 0-22.429-10.047-22.429-22.43V388.719zM713.864 568.169c0-12.383 10.046-22.43 22.429-22.43 12.384 0 22.43 10.047 22.43 22.43v29.833c0 12.383-10.046 22.429-22.43 22.429-12.383 0-22.429-10.046-22.429-22.429v-29.833z" fill="#51c4d3" p-id="13642"></path></svg>