<?xml version="1.0" standalone="no"?><!DOCTYPE svg PUBLIC "-//W3C//DTD SVG 1.1//EN" "http://www.w3.org/Graphics/SVG/1.1/DTD/svg11.dtd"><svg t="1622733456315" class="icon" viewBox="0 0 1024 1024" version="1.1" xmlns="http://www.w3.org/2000/svg" p-id="14245" width="64" height="64" xmlns:xlink="http://www.w3.org/1999/xlink"><defs><style type="text/css"></style></defs><path d="M831 63.5H437.2L161 339.7v588.8c0 17.6 14.4 32 32 32h638c17.6 0 32-14.4 32-32v-833c0-17.6-14.4-32-32-32z m-390 98V358H244.5L441 161.5z m350 727H233V430h212c37.5 0 68-30.5 68-68V135.5h278v753z" p-id="14246" fill="#51c4d3"></path><path d="M383.6 659.6c0 96.1 77.9 174 174 174s174-77.9 174-174-77.9-174-174-174-174 77.9-174 174z m73.7-75.9h61.4c0.6 0 1.1 0.3 1.4 0.8l23.4 39.5c11.7 19.5 14.6 24.9 21.8 37.1 0.3 0.5 0.9 0.8 1.4 0.8 0.6 0 1.1-0.3 1.4-0.8 7.5-12.2 11-18.5 21.8-37.1l22.7-39.4c0.3-0.5 0.8-0.8 1.4-0.8h60.2c1.4 0 2.2 1.6 1.3 2.7l-68.3 83.2c-0.9 1.1-0.1 2.7 1.3 2.7h43.8c0.9 0 1.7 0.7 1.7 1.7v17.3c0 0.9-0.7 1.7-1.7 1.7h-56.6c-0.9 0-1.7 0.7-1.7 1.7v11c0 0.9 0.7 1.7 1.7 1.7h56.6c0.9 0 1.7 0.7 1.7 1.7v17.3c0 0.9-0.7 1.7-1.7 1.7h-56.6c-0.9 0-1.7 0.7-1.7 1.7v31.7c0 0.9-0.7 1.7-1.7 1.7h-52.5c-0.9 0-1.7-0.7-1.7-1.7v-31.7c0-0.9-0.7-1.7-1.7-1.7h-57.2c-0.9 0-1.7-0.7-1.7-1.7v-17.3c0-0.9 0.7-1.7 1.7-1.7h57.2c0.9 0 1.7-0.7 1.7-1.7v-11c0-0.9-0.7-1.7-1.7-1.7h-57.2c-0.9 0-1.7-0.7-1.7-1.7v-17.3c0-0.9 0.7-1.7 1.7-1.7H523c1.4 0 2.2-1.6 1.3-2.7L456 586.5c-0.8-1.1-0.1-2.8 1.3-2.8z" p-id="14247" fill="#51c4d3"></path></svg>