<?xml version="1.0" standalone="no"?><!DOCTYPE svg PUBLIC "-//W3C//DTD SVG 1.1//EN" "http://www.w3.org/Graphics/SVG/1.1/DTD/svg11.dtd"><svg t="1622733467745" class="icon" viewBox="0 0 1024 1024" version="1.1" xmlns="http://www.w3.org/2000/svg" p-id="14632" width="64" height="64" xmlns:xlink="http://www.w3.org/1999/xlink"><defs><style type="text/css"></style></defs><path d="M93.696537 604.274102c-18.44561-27.527707-32.987198-49.232639-47.093869-70.27752 155.198961-153.142058 309.517853-305.419397 466.216-460.040174 155.209194 148.04585 315.698796 301.126508 478.971868 456.862719-24.585619 16.475691-46.838035 31.385679-70.390086 47.165502-138.088802-130.582641-275.282187-260.315915-411.887153-389.491471C371.291461 326.699645 234.225993 463.754879 93.696537 604.274102z" p-id="14633" fill="#51c4d3"></path><path d="M781.413361 647.228581c25.982471 0 47.620886 0 72.175806 0 0 35.438085 0 69.259301 0 103.080518 0 47.702753 0.3377 95.405506-0.10745 143.103143-0.440034 47.56972-29.149693 77.098046-76.294728 77.20038-172.918003 0.363284-345.83089 0.312117-518.748893 0.010233-40.943627-0.071633-72.90749-25.404287-73.685225-62.704842-1.790836-85.903843-0.567951-171.869085-0.567951-260.080548 22.436616 0 44.013631 0 69.075101 0 0 82.547304 0 165.488592 0 250.082566 177.512777 0 351.592265 0 528.15334 0C781.413361 814.502893 781.413361 732.237006 781.413361 647.228581z" p-id="14634" fill="#51c4d3"></path><path d="M630.087723 735.619128c6.216759 5.991625 12.433518 11.978134 18.650277 17.96976-7.848978 2.747654-15.66214 7.746645-23.562285 7.879678-45.175116 0.762384-90.386049 0.951701-135.556049-0.07675-10.018448-0.23025-19.908979-6.150242-29.855794-9.445381 8.903013-5.336691 17.800909-10.673382 31.851297-19.095428 0-68.2769 0-142.729626 0-218.993654 45.374666 0 87.362095 0 131.75436 0 0 74.974626 0 148.787768 0 222.595793C625.610633 736.166612 627.84662 735.890311 630.087723 735.619128zM517.290641 662.143687c28.356608 0 54.236746 0 81.63142 0 0-17.212492 0-32.915565 0-49.95409-27.61469 0-54.170229 0-81.63142 0C517.290641 629.207655 517.290641 644.301844 517.290641 662.143687zM517.894409 739.30825c27.573757 0 53.510178 0 80.915085 0 0-17.990226 0-34.455684 0-52.04681-27.563524 0-53.479478 0-80.915085 0C517.894409 704.514865 517.894409 720.350972 517.894409 739.30825zM518.257692 536.401419c0 17.933943 0 33.437466 0 49.759656 27.676091 0 53.443662 0 80.695068 0 0-17.120392 0-32.669965 0-49.759656C571.670654 536.401419 545.83145 536.401419 518.257692 536.401419z" p-id="14635" fill="#51c4d3"></path><path d="M485.260261 664.922041c-28.070074 30.428861-28.771059-11.579034-48.408854-10.320332 0 26.964873 0.010233 55.121931-0.005117 83.273872-0.005117 7.659661 1.294519 15.672373-0.567951 22.8613-1.345685 5.208774-6.912627 9.32258-10.596632 13.927587-4.236606-4.927357-11.870684-9.690981-12.131634-14.817888-1.274052-25.470804-0.567951-51.038825-0.644701-76.576146-0.01535-4.605007-0.404217-9.204897-0.921001-20.149463-12.996352 21.756099-22.625933 37.873622-32.255514 53.991146-2.629971-1.033568-5.259941-2.067136-7.884795-3.095588-8.841613-41.736711 36.364203-68.901134 33.335132-110.013611-4.75339-0.327467-11.70695 0.409334-17.785559-1.560586-6.73866-2.179703-12.679119-6.83076-18.967511-10.402199 6.69261-4.077989 12.955419-9.445381 20.20063-11.855334 6.81541-2.266687 14.664388-1.412202 23.009684-2.00062 0-13.293119 0-24.805636 0-36.149303-35.883236-4.656173-35.883236-4.656173-38.804857-22.794783 30.290711-3.064888 60.443272-6.902393 90.713516-8.386229 4.968291-0.2456 10.443132 9.844481 19.586629 19.110778-19.325678 3.295138-30.894479 5.270174-44.310398 7.557328 0 13.042402 0 26.013171 0 40.554759 6.86146 0.588418 13.809904 0.01535 19.919213 2.010853 7.526628 2.46112 14.352271 7.066127 21.484915 10.750132-6.75401 3.975656-13.114036 9.097447-20.379713 11.5688-6.099076 2.07737-13.252186 1.064268-21.556548 1.504302-0.644701 8.115045-1.228002 15.452356-1.407085 17.703693C454.012732 636.9543 468.344536 649.781802 485.260261 664.922041z" p-id="14636" fill="#51c4d3"></path></svg>