<?xml version="1.0" standalone="no"?><!DOCTYPE svg PUBLIC "-//W3C//DTD SVG 1.1//EN" "http://www.w3.org/Graphics/SVG/1.1/DTD/svg11.dtd"><svg t="1622733403226" class="icon" viewBox="0 0 1024 1024" version="1.1" xmlns="http://www.w3.org/2000/svg" p-id="13107" width="64" height="64" xmlns:xlink="http://www.w3.org/1999/xlink"><defs><style type="text/css"></style></defs><path d="M503.9616 911.0528c-220.3136 0-399.5648-179.2512-399.5648-399.5648 0-220.3136 179.2512-399.5648 399.5648-399.5648 220.3136 0 399.5648 179.2512 399.5648 399.5648 0 220.3648-179.2512 399.5648-399.5648 399.5648z m0-747.8784c-192.1024 0-348.3648 156.2624-348.3648 348.3648 0 192.0512 156.2624 348.3648 348.3648 348.3648 192.0512 0 348.3648-156.2624 348.3648-348.3648 0-192.1024-156.2624-348.3648-348.3648-348.3648z" fill="#51c4d3" p-id="13108"></path><path d="M370.88256 608.08704l199.68-212.21376 37.28896 35.08736-199.68 212.21376z" fill="#51c4d3" p-id="13109"></path><path d="M626.9952 551.5264h-51.2V427.5712H451.7376v-51.2h149.7088c14.1312 0 25.6 11.4688 25.6 25.6v149.5552z" fill="#51c4d3" p-id="13110"></path></svg>